<?xml version="1.0" encoding="UTF-8"?>
<svg version="1.1" xmlns="http://www.w3.org/2000/svg" width="500" height="500">
<path d="M0 0 C0.7115625 0.5465625 1.423125 1.093125 2.15625 1.65625 C2.8471875 2.1821875 3.538125 2.708125 4.25 3.25 C10.21402339 8.11297292 15.12509258 14.14261511 18.29785156 21.19311523 C19.69901517 24.05648374 20.98037394 26.31953397 23.15625 28.65625 C27.04884874 29.83130976 30.64301487 29.4605979 34.65625 29.09375 C36.814642 28.99457888 38.97354639 28.90597609 41.1328125 28.828125 C42.17083008 28.78494141 43.20884766 28.74175781 44.27832031 28.69726562 C55.67633555 28.5348236 66.96690476 32.54372282 75.40625 40.21875 C81.3253517 46.5580719 85.8254828 54.89091912 86.15625 63.65625 C86.19363281 64.33945313 86.23101562 65.02265625 86.26953125 65.7265625 C86.53236166 73.66680742 84.89581913 81.22027664 82.15625 88.65625 C79.51625 88.65625 76.87625 88.65625 74.15625 88.65625 C74.3728125 88.16640625 74.589375 87.6765625 74.8125 87.171875 C78.4112294 77.50862014 78.93222283 65.33390783 76.27734375 55.3515625 C72.43996765 47.0182507 66.77362818 43.11632458 58.40625 39.84375 C51.38644651 37.31875202 51.38644651 37.31875202 44.05078125 36.33984375 C42.57641602 36.27700195 42.57641602 36.27700195 41.07226562 36.21289062 C39.53602539 36.15391602 39.53602539 36.15391602 37.96875 36.09375 C36.41510742 36.02897461 36.41510742 36.02897461 34.83007812 35.96289062 C32.2722681 35.85680634 29.71436155 35.75474854 27.15625 35.65625 C28.76307751 41.04435819 30.39253961 46.42207219 32.09375 51.78125 C35.86527332 64.12573594 38.75101869 75.68884808 39.15625 88.65625 C33.43782002 88.8602368 30.64532658 88.37889887 26.15625 84.65625 C26.15625 83.99625 26.15625 83.33625 26.15625 82.65625 C25.599375 82.40875 25.0425 82.16125 24.46875 81.90625 C21.74416075 80.43349906 19.57030085 78.60052107 17.15625 76.65625 C8.70934124 70.26309945 0.06403996 64.71040579 -9.25 59.6640625 C-11.66160278 58.35525456 -13.81501672 56.99280371 -16.09765625 55.43359375 C-19.70346096 53.09982256 -21.61630939 52.98875938 -25.84375 53.65625 C-27.74077619 54.75709389 -29.38689714 55.96297274 -31.0703125 57.3671875 C-33.20767222 58.92077496 -35.38838543 59.68887328 -37.84375 60.65625 C-50.60440388 67.9599088 -62.73712414 77.04361275 -73.84375 86.65625 C-74.37560913 87.08302032 -74.90746826 87.50979065 -75.45544434 87.94949341 C-77.36718149 90.29974673 -77.23666057 91.86653146 -77.26367188 94.87451172 C-77.27958374 95.93926727 -77.29549561 97.00402283 -77.31188965 98.1010437 C-77.31209106 99.25105865 -77.31229248 100.40107361 -77.3125 101.5859375 C-77.32011353 102.76842072 -77.32772705 103.95090393 -77.33557129 105.16921997 C-77.34638497 107.67252489 -77.34922028 110.17587498 -77.34472656 112.67919922 C-77.3437555 116.50955587 -77.38534092 120.33790213 -77.4296875 124.16796875 C-77.43489522 126.59895415 -77.43758268 129.02994652 -77.4375 131.4609375 C-77.45389526 132.60690399 -77.47029053 133.75287048 -77.48718262 134.93356323 C-77.6150334 140.45092978 -77.6150334 140.45092978 -75.69067383 145.45074463 C-74.19356914 146.95795554 -74.19356914 146.95795554 -71.84375 148.65625 C-71.84375 149.31625 -71.84375 149.97625 -71.84375 150.65625 C-71.13089844 150.89601563 -70.41804688 151.13578125 -69.68359375 151.3828125 C-66.4111383 152.85024094 -64.13081331 154.70474346 -61.40625 157.03125 C-53.77954569 163.51883062 -45.31095957 168.48367583 -36.71386719 173.54882812 C-35.01257689 174.55627627 -33.32205572 175.58185479 -31.6328125 176.609375 C-30.69179687 177.16109375 -29.75078125 177.7128125 -28.78125 178.28125 C-27.96527344 178.76851562 -27.14929688 179.25578125 -26.30859375 179.7578125 C-23.06922801 180.93856388 -21.14741707 180.54854479 -17.84375 179.65625 C-15.5916245 178.63250717 -15.5916245 178.63250717 -13.46875 177.21875 C-12.61925781 176.68507813 -11.76976562 176.15140625 -10.89453125 175.6015625 C-9.88777344 174.95960938 -8.88101563 174.31765625 -7.84375 173.65625 C-6.52584562 172.83935874 -5.20675522 172.02437896 -3.88671875 171.2109375 C-2.4763229 170.33892907 -1.06616696 169.46653251 0.34375 168.59375 C1.00874512 168.18261963 1.67374023 167.77148926 2.35888672 167.34790039 C5.66653413 165.2831888 8.87653244 163.15674847 12.01953125 160.84765625 C15.15625 158.65625 15.15625 158.65625 17.15625 158.65625 C17.15625 157.99625 17.15625 157.33625 17.15625 156.65625 C18.14625 156.65625 19.13625 156.65625 20.15625 156.65625 C20.15625 155.99625 20.15625 155.33625 20.15625 154.65625 C20.81625 154.65625 21.47625 154.65625 22.15625 154.65625 C22.15625 153.99625 22.15625 153.33625 22.15625 152.65625 C25.14261595 149.51527655 28.34596018 146.93518526 32.69140625 146.265625 C34.87716805 146.27948086 36.984046 146.43676 39.15625 146.65625 C38.72407 155.65776525 37.10289309 164.00897193 34.84375 172.71875 C34.54791016 173.90791016 34.25207031 175.09707031 33.94726562 176.32226562 C32.09418549 183.61051384 29.88243245 190.64746977 27.15625 197.65625 C46.4388398 198.10225529 46.4388398 198.10225529 64.15625 191.65625 C64.91679687 191.23472656 65.67734375 190.81320312 66.4609375 190.37890625 C72.46610905 186.58442972 75.49854617 181.50295233 77.15625 174.65625 C77.97375004 166.86013274 78.07394917 158.74505231 76.06640625 151.13671875 C75.61587891 149.41388672 75.61587891 149.41388672 75.15625 147.65625 C76.15625 146.65625 76.15625 146.65625 79.21875 146.59375 C80.188125 146.614375 81.1575 146.635 82.15625 146.65625 C87.03309314 156.83400959 87.80131525 168.89714437 84.15625 179.65625 C79.7927148 189.99560969 73.5822324 196.94117494 63.28125 201.53125 C51.77850426 205.83391434 39.02793338 207.20326952 26.86328125 205.08203125 C24.06888588 204.42993206 24.06888588 204.42993206 21.15625 205.65625 C21.05183594 206.37167969 20.94742188 207.08710938 20.83984375 207.82421875 C20.08102733 210.96788677 18.89131294 213.20840773 17.21875 215.96875 C16.69410156 216.85175781 16.16945312 217.73476563 15.62890625 218.64453125 C15.14292969 219.30839844 14.65695313 219.97226562 14.15625 220.65625 C13.49625 220.65625 12.83625 220.65625 12.15625 220.65625 C12.15625 221.31625 12.15625 221.97625 12.15625 222.65625 C11.49625 222.65625 10.83625 222.65625 10.15625 222.65625 C9.785 223.8628125 9.785 223.8628125 9.40625 225.09375 C8.99375 225.939375 8.58125 226.785 8.15625 227.65625 C6.83321283 228.0283542 5.49887065 228.36255173 4.15625 228.65625 C3.90617188 229.24921875 3.65609375 229.8421875 3.3984375 230.453125 C1.64188567 233.56851882 -0.62745232 234.60158835 -3.71875 236.34375 C-4.76804687 236.94574219 -5.81734375 237.54773438 -6.8984375 238.16796875 C-14.56790601 242.04338984 -26.97718216 242.3459667 -35.21875 239.65625 C-44.08515594 235.40196554 -52.08921438 228.60377483 -57.84375 220.65625 C-57.84375 219.99625 -57.84375 219.33625 -57.84375 218.65625 C-58.50375 218.65625 -59.16375 218.65625 -59.84375 218.65625 C-61.5703125 216.1015625 -61.5703125 216.1015625 -63.46875 212.78125 C-64.10039062 211.69070313 -64.73203125 210.60015625 -65.3828125 209.4765625 C-66.84375 206.65625 -66.84375 206.65625 -66.84375 204.65625 C-67.82859375 204.81738281 -68.8134375 204.97851562 -69.828125 205.14453125 C-85.36637864 207.35033861 -102.55099027 206.06581168 -115.9453125 197.27734375 C-117.72786904 195.83637844 -119.28091841 194.33157332 -120.84375 192.65625 C-121.64232422 191.86541016 -121.64232422 191.86541016 -122.45703125 191.05859375 C-128.4397765 184.30388138 -130.60222566 174.49811985 -130.96875 165.6328125 C-130.77697519 162.90801207 -130.37708715 160.33461465 -129.84375 157.65625 C-129.67746094 156.66625 -129.51117188 155.67625 -129.33984375 154.65625 C-126.70542404 141.13620923 -120.67871881 128.89669158 -112.84375 117.65625 C-113.35421875 116.76099609 -113.35421875 116.76099609 -113.875 115.84765625 C-115.57464518 112.8054722 -117.21702235 109.73810956 -118.84375 106.65625 C-119.17536133 106.02944336 -119.50697266 105.40263672 -119.84863281 104.75683594 C-127.94773243 89.22400183 -133.47637519 73.11120317 -128.82421875 55.66015625 C-126.59212068 48.8215769 -123.28194911 43.41467422 -117.84375 38.65625 C-116.74353516 37.68171875 -116.74353516 37.68171875 -115.62109375 36.6875 C-112.47801581 34.38876508 -109.58294089 33.23423427 -105.90625 31.96875 C-104.12927734 31.34419922 -104.12927734 31.34419922 -102.31640625 30.70703125 C-95.57377045 28.66679612 -89.26977358 28.50215136 -82.28125 28.53125 C-81.34861328 28.52738281 -80.41597656 28.52351563 -79.45507812 28.51953125 C-78.55080078 28.52082031 -77.64652344 28.52210938 -76.71484375 28.5234375 C-75.49172485 28.52512939 -75.49172485 28.52512939 -74.24389648 28.52685547 C-71.69793173 28.66411122 -69.32900791 29.09967161 -66.84375 29.65625 C-66.5859375 28.78742188 -66.328125 27.91859375 -66.0625 27.0234375 C-64.82248798 23.59750685 -63.30343465 20.8453332 -61.34375 17.78125 C-60.7353125 16.81445312 -60.126875 15.84765625 -59.5 14.8515625 C-58.9534375 14.12710938 -58.406875 13.40265625 -57.84375 12.65625 C-57.18375 12.65625 -56.52375 12.65625 -55.84375 12.65625 C-55.616875 12.099375 -55.39 11.5425 -55.15625 10.96875 C-52.72954746 6.69313123 -49.41124627 3.51708181 -44.84375 1.65625 C-44.84375 0.99625 -44.84375 0.33625 -44.84375 -0.34375 C-42.95182525 -1.33044759 -41.05503022 -2.3078102 -39.15625 -3.28125 C-37.57263672 -4.09916016 -37.57263672 -4.09916016 -35.95703125 -4.93359375 C-23.91858238 -10.3863918 -10.40860518 -7.47660372 0 0 Z M-42.84375 7.65625 C-43.71773437 8.32140625 -44.59171875 8.9865625 -45.4921875 9.671875 C-52.37488997 15.47986977 -56.48655853 23.92159059 -60.84375 31.65625 C-59.84859375 31.8521875 -58.8534375 32.048125 -57.828125 32.25 C-48.25817283 34.25978273 -39.48534897 37.13996144 -30.53417969 41.1015625 C-29.73399414 41.44574219 -28.93380859 41.78992188 -28.109375 42.14453125 C-27.05411621 42.61693237 -27.05411621 42.61693237 -25.97753906 43.09887695 C-21.76733909 44.19863514 -17.9861174 42.43553981 -14.078125 40.87890625 C-13.18738281 40.53021484 -12.29664063 40.18152344 -11.37890625 39.82226562 C-9.536977 39.09246897 -7.69581627 38.36072935 -5.85546875 37.62695312 C-0.22978279 35.42929307 5.23834166 33.82801918 11.15625 32.65625 C12.49139984 32.33026874 13.82531604 31.99903811 15.15625 31.65625 C13.04481817 23.97831607 9.02719765 17.98106299 3.15625 12.65625 C2.27646484 11.82287109 2.27646484 11.82287109 1.37890625 10.97265625 C-0.63753131 9.11593652 -2.70614589 7.37180431 -4.84375 5.65625 C-5.47667969 5.14191406 -6.10960937 4.62757813 -6.76171875 4.09765625 C-13.34119001 -0.39471 -21.07421308 -0.55368722 -28.77392578 0.26171875 C-34.18414356 1.29296573 -38.54514048 4.37221912 -42.84375 7.65625 Z M-111.84375 43.65625 C-112.42640625 44.12546875 -113.0090625 44.5946875 -113.609375 45.078125 C-119.6899504 50.44333859 -122.22637945 56.71092096 -123.22265625 64.69140625 C-123.86596668 81.4382295 -117.59356001 97.91484572 -106.84375 110.65625 C-106.02132812 109.68945312 -105.19890625 108.72265625 -104.3515625 107.7265625 C-103.22424259 106.41121465 -102.0966165 105.09612919 -100.96875 103.78125 C-100.38101807 103.09015137 -99.79328613 102.39905273 -99.18774414 101.68701172 C-95.76824259 97.71265815 -92.26200351 94.20862522 -88.28125 90.78125 C-82.45173055 85.10265662 -81.48819706 78.50773396 -80.1953125 70.76074219 C-78.3983827 60.00412075 -75.45727698 49.91190751 -71.84375 39.65625 C-71.51375 38.66625 -71.18375 37.67625 -70.84375 36.65625 C-81.99802686 31.07911157 -102.8160443 36.13316192 -111.84375 43.65625 Z M-63.84375 37.65625 C-64.08609375 38.32269531 -64.3284375 38.98914063 -64.578125 39.67578125 C-64.91328125 40.59746094 -65.2484375 41.51914063 -65.59375 42.46875 C-65.95855469 43.48324219 -66.32335937 44.49773437 -66.69921875 45.54296875 C-67.40125457 47.45260201 -68.1276116 49.35376865 -68.89453125 51.23828125 C-72.17520114 59.48428935 -73.49331627 67.92958353 -74.84375 76.65625 C-72.53375 75.33625 -70.22375 74.01625 -67.84375 72.65625 C-67.84375 71.99625 -67.84375 71.33625 -67.84375 70.65625 C-67.121875 70.40875 -66.4 70.16125 -65.65625 69.90625 C-62.54382027 68.5229479 -60.48126723 66.81421864 -57.84375 64.65625 C-50.55048491 59.58556752 -43.0319485 55.18828477 -35.171875 51.05859375 C-32.72708949 49.8691115 -32.72708949 49.8691115 -31.84375 47.65625 C-47.24977393 40.40390239 -47.24977393 40.40390239 -63.84375 37.65625 Z M8.21875 39.84375 C7.464729 40.06571045 6.71070801 40.2876709 5.93383789 40.51635742 C-0.53011421 42.46754509 -6.6893911 44.86959424 -12.84375 47.65625 C-9.98881186 50.0172542 -7.26830367 52.09834511 -3.96875 53.78125 C0.55639544 56.22375659 4.81904143 58.99360462 9.09375 61.84375 C9.75681152 62.28412598 10.41987305 62.72450195 11.10302734 63.17822266 C13.63569327 64.87864293 15.99374938 66.49374938 18.15625 68.65625 C19.14625 68.65625 20.13625 68.65625 21.15625 68.65625 C21.15625 69.31625 21.15625 69.97625 21.15625 70.65625 C23.17416336 72.24594247 23.17416336 72.24594247 25.65625 73.78125 C26.4915625 74.32007813 27.326875 74.85890625 28.1875 75.4140625 C28.8371875 75.82398438 29.486875 76.23390625 30.15625 76.65625 C30.4350835 71.46502627 29.44727382 67.1533302 28.03125 62.21875 C27.81186768 61.43902832 27.59248535 60.65930664 27.36645508 59.85595703 C25.15517168 52.23665197 22.28255945 44.94022873 19.15625 37.65625 C15.28575891 37.65625 11.89603885 38.75369222 8.21875 39.84375 Z M-86.84375 97.65625 C-86.84375 98.31625 -86.84375 98.97625 -86.84375 99.65625 C-87.40835938 99.8728125 -87.97296875 100.089375 -88.5546875 100.3125 C-91.60369421 102.10236059 -93.28796154 104.38467938 -95.46875 107.15625 C-99.75514241 112.56764241 -99.75514241 112.56764241 -101.84375 114.65625 C-101.5167744 117.27205479 -101.02335932 119.29703137 -99.84375 121.65625 C-99.18375 121.65625 -98.52375 121.65625 -97.84375 121.65625 C-97.6375 122.336875 -97.43125 123.0175 -97.21875 123.71875 C-94.37790677 129.78782417 -90.56529567 133.2233226 -84.84375 136.65625 C-84.84375 123.78625 -84.84375 110.91625 -84.84375 97.65625 C-85.50375 97.65625 -86.16375 97.65625 -86.84375 97.65625 Z M-107.84375 123.65625 C-117.69438953 138.29148588 -124.95338992 154.64972741 -122.84375 172.65625 C-121.2995968 179.30354051 -119.22369214 184.2419385 -113.84375 188.65625 C-113.41320312 189.12675781 -112.98265625 189.59726562 -112.5390625 190.08203125 C-102.46021294 199.44096299 -88.79700082 198.22791828 -76.0390625 197.8671875 C-74.30712691 197.80105753 -72.57527323 197.73241671 -70.84375 197.65625 C-72.567235 191.83165242 -74.37342403 186.04851407 -76.28125 180.28125 C-79.08459226 171.57254139 -80.8017093 162.68165323 -82.44238281 153.69238281 C-82.84306311 151.65973461 -83.32412862 149.66147005 -83.84375 147.65625 C-84.50375 147.65625 -85.16375 147.65625 -85.84375 147.65625 C-85.84375 146.99625 -85.84375 146.33625 -85.84375 145.65625 C-87.59896948 143.91931842 -87.59896948 143.91931842 -89.78125 142.15625 C-93.74254154 138.85866692 -93.74254154 138.85866692 -94.84375 136.65625 C-95.50375 136.65625 -96.16375 136.65625 -96.84375 136.65625 C-96.84375 135.99625 -96.84375 135.33625 -96.84375 134.65625 C-97.50375 134.65625 -98.16375 134.65625 -98.84375 134.65625 C-99.11058594 134.07359375 -99.37742187 133.4909375 -99.65234375 132.890625 C-100.86761752 130.61148863 -102.21444172 128.85162168 -103.90625 126.90625 C-104.43347656 126.29265625 -104.96070312 125.6790625 -105.50390625 125.046875 C-105.94605469 124.58796875 -106.38820313 124.1290625 -106.84375 123.65625 C-107.17375 123.65625 -107.50375 123.65625 -107.84375 123.65625 Z M-73.84375 158.65625 C-72.63378628 171.36086907 -69.58996252 184.16382496 -63.84375 195.65625 C-58.22000102 196.06640997 -53.66823412 194.58403091 -48.40625 192.84375 C-47.58576172 192.58271484 -46.76527344 192.32167969 -45.91992188 192.05273438 C-41.1004209 190.49495473 -36.46553434 188.72765536 -31.84375 186.65625 C-34.41750121 183.93178363 -36.8417076 181.88468676 -40.09375 180.03125 C-61.03325155 167.76491477 -61.03325155 167.76491477 -70.0234375 160.0546875 C-71.72550677 158.4531776 -71.72550677 158.4531776 -73.84375 158.65625 Z M22.28125 162.71875 C16.0709867 167.32271973 9.74810989 171.61196881 3.15625 175.65625 C1.73926688 176.5515827 0.32257476 177.4473762 -1.09375 178.34375 C-3.61686697 179.92525012 -6.17416039 181.40535573 -8.78125 182.84375 C-11.89922112 184.31556895 -11.89922112 184.31556895 -12.84375 186.65625 C-3.20124212 191.03757574 8.34526069 196.2101337 19.15625 195.65625 C23.02894707 188.493474 25.32703814 181.10510693 27.46875 173.28125 C27.73510254 172.31815918 28.00145508 171.35506836 28.27587891 170.36279297 C29.4402618 165.990432 30.30370639 162.20763598 30.15625 157.65625 C27.60030326 157.65625 24.3670401 161.15712824 22.28125 162.71875 Z M-30.34375 192.90625 C-38.3522455 196.38349344 -46.53623878 199.03177465 -55.09375 200.78125 C-56.33125 201.07 -57.56875 201.35875 -58.84375 201.65625 C-59.17375 202.31625 -59.50375 202.97625 -59.84375 203.65625 C-57.18754383 210.19992458 -52.65760938 216.52712527 -47.84375 221.65625 C-47.18375 221.65625 -46.52375 221.65625 -45.84375 221.65625 C-45.84375 222.31625 -45.84375 222.97625 -45.84375 223.65625 C-45.18375 223.65625 -44.52375 223.65625 -43.84375 223.65625 C-43.84375 224.31625 -43.84375 224.97625 -43.84375 225.65625 C-43.18375 225.65625 -42.52375 225.65625 -41.84375 225.65625 C-41.84375 226.31625 -41.84375 226.97625 -41.84375 227.65625 C-33.41416305 232.81294991 -24.58745112 234.95607459 -14.71875 233.15625 C-1.54003913 228.93906252 7.33410587 218.1964505 14.2578125 206.78515625 C15.48295794 204.53603046 15.48295794 204.53603046 14.15625 201.65625 C11.63518507 200.93419742 9.22479193 200.38890637 6.65625 199.90625 C-0.71626432 198.37753284 -7.36786301 196.04787097 -14.22070312 192.94238281 C-20.6654497 190.07631462 -23.99046398 190.00887231 -30.34375 192.90625 Z " fill="#D6D6D6" transform="translate(204.84375,132.34375)"/>
<path d="M0 0 C2.5 1.375 2.5 1.375 5 3 C5 3.66 5 4.32 5 5 C5.71285156 5.23976563 6.42570313 5.47953125 7.16015625 5.7265625 C10.4326117 7.19399094 12.71293669 9.04849346 15.4375 11.375 C23.06420431 17.86258062 31.53279043 22.82742583 40.12988281 27.89257812 C41.83117311 28.90002627 43.52169428 29.92560479 45.2109375 30.953125 C46.15195313 31.50484375 47.09296875 32.0565625 48.0625 32.625 C48.87847656 33.11226563 49.69445312 33.59953125 50.53515625 34.1015625 C53.77452199 35.28231388 55.69633293 34.89229479 59 34 C61.2521255 32.97625717 61.2521255 32.97625717 63.375 31.5625 C64.22449219 31.02882813 65.07398438 30.49515625 65.94921875 29.9453125 C66.95597656 29.30335938 67.96273437 28.66140625 69 28 C70.31790438 27.18310874 71.63699478 26.36812896 72.95703125 25.5546875 C74.3674271 24.68267907 75.77758304 23.81028251 77.1875 22.9375 C77.85249512 22.52636963 78.51749023 22.11523926 79.20263672 21.69165039 C82.51028413 19.6269388 85.72028244 17.50049847 88.86328125 15.19140625 C92 13 92 13 94 13 C94 12.34 94 11.68 94 11 C94.99 11 95.98 11 97 11 C97 10.34 97 9.68 97 9 C97.66 9 98.32 9 99 9 C99 8.34 99 7.68 99 7 C101.98636595 3.85902655 105.18971018 1.27893526 109.53515625 0.609375 C111.72091805 0.62323086 113.827796 0.78051 116 1 C115.56782 10.00151525 113.94664309 18.35272193 111.6875 27.0625 C111.24374023 28.84624023 111.24374023 28.84624023 110.79101562 30.66601562 C108.93793549 37.95426384 106.72618245 44.99121977 104 52 C123.2825898 52.44600529 123.2825898 52.44600529 141 46 C141.76054687 45.57847656 142.52109375 45.15695312 143.3046875 44.72265625 C149.30985905 40.92817972 152.34229617 35.84670233 154 29 C154.81750004 21.20388274 154.91769917 13.08880231 152.91015625 5.48046875 C152.45962891 3.75763672 152.45962891 3.75763672 152 2 C153 1 153 1 156.0625 0.9375 C157.5165625 0.9684375 157.5165625 0.9684375 159 1 C163.87684314 11.17775959 164.64506525 23.24089437 161 34 C156.6364648 44.33935969 150.4259824 51.28492494 140.125 55.875 C128.57909798 60.19380718 115.85357737 61.51510579 103.64453125 59.42578125 C101.0313608 58.74110992 101.0313608 58.74110992 99 60 C99.2784375 58.5459375 99.2784375 58.5459375 99.5625 57.0625 C99.7790625 55.5465625 99.7790625 55.5465625 100 54 C99.67 53.67 99.34 53.34 99 53 C98.34 52.34 97.68 51.68 97 51 C94.31160615 50.73008094 91.70858064 50.91262643 89 51 C89.495 53.475 89.495 53.475 90 56 C77.10003357 54.98823793 64.97068018 49.61001804 53 45 C53 44.34 53 43.68 53 43 C51.783125 42.67 50.56625 42.34 49.3125 42 C43.26353713 39.97425698 38.17876304 36.61617642 32.84472656 33.17529297 C30.89872645 31.93547765 28.93338385 30.73241149 26.9609375 29.53515625 C19.89250532 25.22734924 13.16896527 20.84402668 6.8203125 15.49609375 C5.06333336 13.93899078 5.06333336 13.93899078 3 13 C3 12.34 3 11.68 3 11 C2.34 11 1.68 11 1 11 C1 9.68 1 8.36 1 7 C1.99 7 2.98 7 4 7 C3.67 6.01 3.34 5.02 3 4 C2.01 4 1.02 4 0 4 C0 2.68 0 1.36 0 0 Z M99.125 17.0625 C92.9147367 21.66646973 86.59185989 25.95571881 80 30 C78.58301688 30.8953327 77.16632476 31.7911262 75.75 32.6875 C73.22688303 34.26900012 70.66958961 35.74910573 68.0625 37.1875 C64.94452888 38.65931895 64.94452888 38.65931895 64 41 C73.64250788 45.38132574 85.18901069 50.5538837 96 50 C99.87269707 42.837224 102.17078814 35.44885693 104.3125 27.625 C104.57885254 26.66190918 104.84520508 25.69881836 105.11962891 24.70654297 C106.2840118 20.334182 107.14745639 16.55138598 107 12 C104.44405326 12 101.2107901 15.50087824 99.125 17.0625 Z " fill="#D5D6D6" transform="translate(128,278)"/>
<path d="M0 0 C1.06734375 0.81984375 1.06734375 0.81984375 2.15625 1.65625 C2.8471875 2.1821875 3.538125 2.708125 4.25 3.25 C10.21402339 8.11297292 15.12509258 14.14261511 18.29785156 21.19311523 C19.69901517 24.05648374 20.98037394 26.31953397 23.15625 28.65625 C27.04884874 29.83130976 30.64301487 29.4605979 34.65625 29.09375 C36.814642 28.99457888 38.97354639 28.90597609 41.1328125 28.828125 C42.17083008 28.78494141 43.20884766 28.74175781 44.27832031 28.69726562 C55.67633555 28.5348236 66.96690476 32.54372282 75.40625 40.21875 C81.3253517 46.5580719 85.8254828 54.89091912 86.15625 63.65625 C86.19363281 64.33945313 86.23101562 65.02265625 86.26953125 65.7265625 C86.53236166 73.66680742 84.89581913 81.22027664 82.15625 88.65625 C79.51625 88.65625 76.87625 88.65625 74.15625 88.65625 C74.3728125 88.16640625 74.589375 87.6765625 74.8125 87.171875 C78.4112294 77.50862014 78.93222283 65.33390783 76.27734375 55.3515625 C72.43996765 47.0182507 66.77362818 43.11632458 58.40625 39.84375 C51.38644651 37.31875202 51.38644651 37.31875202 44.05078125 36.33984375 C42.57641602 36.27700195 42.57641602 36.27700195 41.07226562 36.21289062 C39.53602539 36.15391602 39.53602539 36.15391602 37.96875 36.09375 C36.93298828 36.05056641 35.89722656 36.00738281 34.83007812 35.96289062 C32.2722681 35.85680634 29.71436155 35.75474854 27.15625 35.65625 C28.76307751 41.04435819 30.39253961 46.42207219 32.09375 51.78125 C35.86527332 64.12573594 38.75101869 75.68884808 39.15625 88.65625 C36.84625 88.65625 34.53625 88.65625 32.15625 88.65625 C32.14207031 87.975625 32.12789063 87.295 32.11328125 86.59375 C31.72571939 78.71681707 29.90848255 71.92141148 27.41015625 64.515625 C26.52832171 61.89742894 25.79806561 59.2894336 25.16015625 56.6015625 C24.25646846 52.85725692 22.97031706 49.35787865 21.53125 45.78125 C19.15625 39.86434249 19.15625 39.86434249 19.15625 37.65625 C15.98817178 38.58902274 12.82206927 39.52834161 9.65625 40.46875 C8.769375 40.72978516 7.8825 40.99082031 6.96875 41.25976562 C2.84523299 42.48772474 -1.2218299 43.75889296 -5.23828125 45.3046875 C-10.22462818 47.17389231 -14.60387108 48.35621216 -19.84375 46.71875 C-20.50375 46.368125 -21.16375 46.0175 -21.84375 45.65625 C-20.85375 45.32625 -19.86375 44.99625 -18.84375 44.65625 C-18.84375 43.66625 -18.84375 42.67625 -18.84375 41.65625 C-15.53535763 40.3538901 -12.22136692 39.06638587 -8.90625 37.78125 C-7.98005859 37.41644531 -7.05386719 37.05164063 -6.09960938 36.67578125 C0.90462555 33.97239233 7.59419649 31.65625 15.15625 31.65625 C14.6509375 30.81320313 14.145625 29.97015625 13.625 29.1015625 C12.65046875 27.45800781 12.65046875 27.45800781 11.65625 25.78125 C11.0065625 24.69070312 10.356875 23.60015625 9.6875 22.4765625 C8.15625 19.65625 8.15625 19.65625 8.15625 17.65625 C6.67125 17.16125 6.67125 17.16125 5.15625 16.65625 C4.13169943 15.48615046 3.15878108 14.27027315 2.21875 13.03125 C-3.22803509 6.75782185 -9.55842622 2.05064069 -17.9765625 0.9765625 C-27.8020622 0.29227084 -34.97232522 2.46777294 -42.84375 8.65625 C-43.40320313 9.22730469 -43.96265625 9.79835937 -44.5390625 10.38671875 C-45.84375 11.65625 -45.84375 11.65625 -47.84375 11.65625 C-48.09125 12.39875 -48.33875 13.14125 -48.59375 13.90625 C-49.84375 16.65625 -49.84375 16.65625 -51.65625 18.40625 C-54.37943684 21.20724218 -55.86204395 24.25355361 -57.59765625 27.73046875 C-58.84375 29.65625 -58.84375 29.65625 -61.84375 30.65625 C-61.84375 31.31625 -61.84375 31.97625 -61.84375 32.65625 C-63.82375 33.15125 -63.82375 33.15125 -65.84375 33.65625 C-66.85314477 29.9253931 -67.05764483 28.14348894 -65.48046875 24.55078125 C-64.83722656 23.53371094 -64.19398438 22.51664063 -63.53125 21.46875 C-62.89574219 20.44394531 -62.26023438 19.41914063 -61.60546875 18.36328125 C-60.36269176 16.45364831 -59.1075894 14.55200911 -57.84375 12.65625 C-57.18375 12.65625 -56.52375 12.65625 -55.84375 12.65625 C-55.616875 12.099375 -55.39 11.5425 -55.15625 10.96875 C-52.72954746 6.69313123 -49.41124627 3.51708181 -44.84375 1.65625 C-44.84375 0.99625 -44.84375 0.33625 -44.84375 -0.34375 C-42.95182525 -1.33044759 -41.05503022 -2.3078102 -39.15625 -3.28125 C-38.10050781 -3.82652344 -37.04476562 -4.37179688 -35.95703125 -4.93359375 C-23.91858238 -10.3863918 -10.40860518 -7.47660372 0 0 Z " fill="#D7D7D7" transform="translate(204.84375,132.34375)"/>
<path d="M0 0 C1.5658311 2.56146333 2.86483966 4.98270717 4.125 7.6875 C4.47175781 8.39583984 4.81851563 9.10417969 5.17578125 9.83398438 C7.09385094 13.81342782 8.70640343 17.76580505 10 22 C10.66 22 11.32 22 12 22 C12.391875 22.804375 12.78375 23.60875 13.1875 24.4375 C15.35006142 28.68805176 17.66311057 32.8434773 20 37 C20.24130116 24.15741598 19.72221049 11.73205613 18 -1 C27.41623641 0.76861484 27.41623641 0.76861484 31 4 C34.2827724 10.81878725 35.67682417 18.46859799 36 26 C36.05994141 27.03640625 36.05994141 27.03640625 36.12109375 28.09375 C36.32889553 34.84119589 35.25683115 41.38762719 34 48 C33.82855469 48.96164062 33.65710938 49.92328125 33.48046875 50.9140625 C32.06413929 57.10936168 32.06413929 57.10936168 29.203125 59.50390625 C25.35102408 61.58201333 22.38592065 62.16810149 18 62 C17.48050781 60.94941406 16.96101563 59.89882813 16.42578125 58.81640625 C10.80376103 47.48184061 4.89235947 36.62654847 -2 26 C-2.02918874 29.70831663 -2.04686218 33.41660342 -2.0625 37.125 C-2.07087891 38.17171875 -2.07925781 39.2184375 -2.08789062 40.296875 C-2.10382455 45.33199492 -1.97920414 50.04277907 -1 55 C-0.88803927 57.67810075 -0.95374701 60.31732686 -1 63 C-2.42122098 62.5991428 -3.83686706 62.17849837 -5.25 61.75 C-6.03890625 61.51796875 -6.8278125 61.2859375 -7.640625 61.046875 C-10.55620828 59.7532056 -12.01552726 58.50692416 -14 56 C-20.18595379 39.83796836 -20.29044085 22.97583946 -14.3125 6.75 C-12.38668076 2.86861915 -9.8808477 1.23460618 -6 -0.5390625 C-3.56799771 -1.09956303 -2.33346723 -0.86204703 0 0 Z " fill="#94ACCE" transform="translate(173,215)"/>
<path d="M0 0 C0.93263672 -0.00386719 1.86527344 -0.00773438 2.82617188 -0.01171875 C3.73044922 -0.01042969 4.63472656 -0.00914062 5.56640625 -0.0078125 C6.78952515 -0.00612061 6.78952515 -0.00612061 8.03735352 -0.00439453 C10.58331827 0.13286122 12.95224209 0.56842161 15.4375 1.125 C13.6875 6.875 13.6875 6.875 11.4375 9.125 C10.7775 8.795 10.1175 8.465 9.4375 8.125 C-3.45738474 6.89570461 -15.33520858 7.85899704 -26.9375 13.875 C-34.36782077 20.24384638 -38.8105421 26.15059051 -39.875 36.0234375 C-40.42556147 49.95952477 -36.31266706 61.93321066 -29.46484375 73.8203125 C-27.28691536 77.60373636 -25.29537899 81.43021734 -23.5625 85.4375 C-22.60395794 87.47503098 -22.60395794 87.47503098 -19.5625 88.125 C-18.375 90.6875 -18.375 90.6875 -17.5625 93.125 C-16.9025 93.125 -16.2425 93.125 -15.5625 93.125 C-14.125 94.734375 -14.125 94.734375 -12.5625 96.875 C-11.7890625 97.91914063 -11.7890625 97.91914063 -11 98.984375 C-9.5625 101.125 -9.5625 101.125 -8.625 103.265625 C-7.69734605 105.29271728 -7.69734605 105.29271728 -5.546875 106.11328125 C-3.5625 107.125 -3.5625 107.125 -2.515625 109.04296875 C-1.00010471 113.93473145 -0.23557603 118.00319117 -0.5625 123.125 C-0.8925 121.805 -1.2225 120.485 -1.5625 119.125 C-2.2225 119.125 -2.8825 119.125 -3.5625 119.125 C-3.5625 118.465 -3.5625 117.805 -3.5625 117.125 C-4.119375 116.898125 -4.67625 116.67125 -5.25 116.4375 C-8.22409588 114.74949964 -10.28258865 112.65823483 -12.5625 110.125 C-12.5625 109.465 -12.5625 108.805 -12.5625 108.125 C-13.2225 108.125 -13.8825 108.125 -14.5625 108.125 C-14.5625 107.465 -14.5625 106.805 -14.5625 106.125 C-15.2225 106.125 -15.8825 106.125 -16.5625 106.125 C-18.47265625 104.11328125 -18.47265625 104.11328125 -20.625 101.4375 C-21.69427734 100.13232422 -21.69427734 100.13232422 -22.78515625 98.80078125 C-24.56612383 96.11954434 -25.19194579 94.28896285 -25.5625 91.125 C-28.5325 91.62 -28.5325 91.62 -31.5625 92.125 C-31.32402344 91.59777344 -31.08554688 91.07054687 -30.83984375 90.52734375 C-30.42402318 86.92551767 -32.27976948 84.62980689 -34.125 81.6875 C-34.87469333 80.42530816 -35.62072772 79.16093662 -36.36328125 77.89453125 C-36.73662598 77.2598291 -37.1099707 76.62512695 -37.49462891 75.97119141 C-46.12081771 61.05778498 -51.06219732 44.08131765 -46.54296875 27.12890625 C-44.31087068 20.2903269 -41.00069911 14.88342422 -35.5625 10.125 C-34.82902344 9.4753125 -34.09554687 8.825625 -33.33984375 8.15625 C-30.19676581 5.85751508 -27.30169089 4.70298427 -23.625 3.4375 C-21.84802734 2.81294922 -21.84802734 2.81294922 -20.03515625 2.17578125 C-13.29252045 0.13554612 -6.98852358 -0.02909864 0 0 Z " fill="#808EB0" transform="translate(122.5625,160.875)"/>
<path d="M0 0 C1.5658311 2.56146333 2.86483966 4.98270717 4.125 7.6875 C4.47175781 8.39583984 4.81851563 9.10417969 5.17578125 9.83398438 C7.09385094 13.81342782 8.70640343 17.76580505 10 22 C10.66 22 11.32 22 12 22 C12.33 23.65 12.66 25.3 13 27 C12.01 26.34 11.02 25.68 10 25 C9.67 25.99 9.34 26.98 9 28 C5.9375 29.1875 5.9375 29.1875 3 30 C3 30.66 3 31.32 3 32 C3.639375 32.268125 4.27875 32.53625 4.9375 32.8125 C7 34 7 34 8 37 C7.01 37 6.02 37 5 37 C3.17578125 34.59375 3.17578125 34.59375 1.3125 31.5 C0.68988281 30.4790625 0.06726563 29.458125 -0.57421875 28.40625 C-1.04472656 27.6121875 -1.51523438 26.818125 -2 26 C-2.02918874 29.70831663 -2.04686218 33.41660342 -2.0625 37.125 C-2.07087891 38.17171875 -2.07925781 39.2184375 -2.08789062 40.296875 C-2.10382455 45.33199492 -1.97920414 50.04277907 -1 55 C-0.88803927 57.67810075 -0.95374701 60.31732686 -1 63 C-2.42122098 62.5991428 -3.83686706 62.17849837 -5.25 61.75 C-6.03890625 61.51796875 -6.8278125 61.2859375 -7.640625 61.046875 C-10.55620828 59.7532056 -12.01552726 58.50692416 -14 56 C-20.18595379 39.83796836 -20.29044085 22.97583946 -14.3125 6.75 C-12.38668076 2.86861915 -9.8808477 1.23460618 -6 -0.5390625 C-3.56799771 -1.09956303 -2.33346723 -0.86204703 0 0 Z " fill="#9187DF" transform="translate(173,215)"/>
<path d="M0 0 C6.875 0.875 6.875 0.875 8 2 C9.46698632 2.2976818 10.94132229 2.55937435 12.41796875 2.8046875 C18.0563205 3.88640012 23.05617089 5.86258002 28.3125 8.125 C30.03428196 8.8649182 31.7594617 9.5969903 33.48828125 10.3203125 C34.23634033 10.64273926 34.98439941 10.96516602 35.75512695 11.29736328 C38.27347099 12.08559538 40.37653576 12.12417057 43 12 C42.67 12.99 42.34 13.98 42 15 C44.97 15.33 47.94 15.66 51 16 C51.495 17.485 51.495 17.485 52 19 C53.60217357 20.06138821 53.60217357 20.06138821 55.58203125 20.875 C59.89508568 22.89833702 63.75308488 25.32573226 67.6875 28 C68.32494141 28.42539063 68.96238281 28.85078125 69.61914062 29.2890625 C72.43784382 31.18565123 75.12959914 33.10528788 77.76953125 35.25 C79.96639257 37.17591174 79.96639257 37.17591174 83 38 C83 38.66 83 39.32 83 40 C83.5775 40.268125 84.155 40.53625 84.75 40.8125 C87.0325868 42.01719859 88.9737942 43.40798115 91 45 C91.99 44.01 91.99 44.01 93 43 C94.04976964 46.14930893 94.10131595 48.38814456 94.0625 51.6875 C94.05347656 52.68136719 94.04445313 53.67523438 94.03515625 54.69921875 C94.02355469 55.45847656 94.01195312 56.21773437 94 57 C92 56 90 55 88 54 C88 53.34 88 52.68 88 52 C87.443125 51.7525 86.88625 51.505 86.3125 51.25 C83.58791075 49.77724906 81.41405085 47.94427107 79 46 C70.55309124 39.60684945 61.90778996 34.05415579 52.59375 29.0078125 C50.18417324 27.69757709 48.00187912 26.32905414 45.7109375 24.7890625 C43.0196518 23.01296905 41.16979414 22.37291696 38 22 C38 21.34 38 20.68 38 20 C37.195625 19.731875 36.39125 19.46375 35.5625 19.1875 C34.386875 18.795625 33.21125 18.40375 32 18 C31.2884375 17.77054688 30.576875 17.54109375 29.84375 17.3046875 C29.0909375 17.05976563 28.338125 16.81484375 27.5625 16.5625 C26.86253906 16.33691406 26.16257813 16.11132812 25.44140625 15.87890625 C23.49738531 15.17905871 21.5912952 14.37409443 19.703125 13.53515625 C15.95275685 11.90550496 12.14856482 10.86033951 8.1875 9.875 C1.22504892 8.11252446 1.22504892 8.11252446 -1 7 C-0.67 4.69 -0.34 2.38 0 0 Z " fill="#7063AB" transform="translate(143,163)"/>
<path d="M0 0 C1.4540625 0.0309375 1.4540625 0.0309375 2.9375 0.0625 C7.81434314 10.24025959 8.58256525 22.30339437 4.9375 33.0625 C0.5739648 43.40185969 -5.6365176 50.34742494 -15.9375 54.9375 C-27.48340202 59.25630718 -40.20892263 60.57760579 -52.41796875 58.48828125 C-55.0311392 57.80360992 -55.0311392 57.80360992 -57.0625 59.0625 C-56.63052365 54.3107602 -55.73480705 52.14249946 -52.0625 49.0625 C-52.0625 49.7225 -52.0625 50.3825 -52.0625 51.0625 C-32.7799102 51.50850529 -32.7799102 51.50850529 -15.0625 45.0625 C-14.30195313 44.64097656 -13.54140625 44.21945312 -12.7578125 43.78515625 C-6.75264095 39.99067972 -3.72020383 34.90920233 -2.0625 28.0625 C-1.24499996 20.26638274 -1.14480083 12.15130231 -3.15234375 4.54296875 C-3.45269531 3.39441406 -3.75304687 2.24585938 -4.0625 1.0625 C-3.0625 0.0625 -3.0625 0.0625 0 0 Z " fill="#7DB598" transform="translate(284.0625,278.9375)"/>
<path d="M0 0 C4.38964754 2.1794215 6.53142244 5.18376812 8.9375 9.375 C10 13 10 13 10 21 C1.09 21 -7.82 21 -17 21 C-15.35 24.3 -13.7 27.6 -12 31 C-8.98509443 32.00496852 -6.95818308 32.10335303 -3.8125 32.0625 C-2.91144531 32.05347656 -2.01039063 32.04445313 -1.08203125 32.03515625 C-0.39496094 32.02355469 0.29210937 32.01195312 1 32 C1 31.34 1 30.68 1 30 C1.66 30 2.32 30 3 30 C3 29.34 3 28.68 3 28 C4.98 28.33 6.96 28.66 9 29 C7.639661 33.45201856 6.04150633 35.64245464 2 38 C-3.61006282 39.29246856 -8.74823475 39.62588263 -14 37 C-19.00332212 33.76255627 -20.94271642 30.99342937 -22.53125 25.25390625 C-23.98589251 18.2595002 -22.22909774 12.59441416 -20 6 C-19.34 6 -18.68 6 -18 6 C-18 5.34 -18 4.68 -18 4 C-12.79005299 -0.92050551 -6.91211378 -1.21378942 0 0 Z M-13.4375 7.625 C-15.42951313 10.43110633 -15.42951313 10.43110633 -17 16 C-10.07 16 -3.14 16 4 16 C3.67 14.02 3.34 12.04 3 10 C2.34 10 1.68 10 1 10 C0.67 9.01 0.34 8.02 0 7 C-4.2270792 4.8864604 -9.54123916 5.02749277 -13.4375 7.625 Z " fill="#D3D3D3" transform="translate(368,231)"/>
<path d="M0 0 C0.93263672 -0.00386719 1.86527344 -0.00773438 2.82617188 -0.01171875 C3.73044922 -0.01042969 4.63472656 -0.00914062 5.56640625 -0.0078125 C6.78952515 -0.00612061 6.78952515 -0.00612061 8.03735352 -0.00439453 C10.58331827 0.13286122 12.95224209 0.56842161 15.4375 1.125 C13.6875 6.875 13.6875 6.875 11.4375 9.125 C10.7775 8.795 10.1175 8.465 9.4375 8.125 C-3.45738474 6.89570461 -15.33520858 7.85899704 -26.9375 13.875 C-35.54710019 21.25465731 -39.16638814 27.91793661 -40.25 39.1875 C-40.36508969 40.83260559 -40.47323914 42.47829099 -40.5625 44.125 C-41.2225 44.125 -41.8825 44.125 -42.5625 44.125 C-42.8925 41.815 -43.2225 39.505 -43.5625 37.125 C-44.5525 37.62 -44.5525 37.62 -45.5625 38.125 C-45.65956112 44.23985027 -45.33290851 50.05803301 -44.5625 56.125 C-48.54694903 52.14055097 -48.38202556 45.11021888 -48.875 39.6875 C-47.87353559 28.27080571 -44.34681512 17.81127573 -35.5625 10.125 C-34.82902344 9.4753125 -34.09554687 8.825625 -33.33984375 8.15625 C-30.19676581 5.85751508 -27.30169089 4.70298427 -23.625 3.4375 C-21.84802734 2.81294922 -21.84802734 2.81294922 -20.03515625 2.17578125 C-13.29252045 0.13554612 -6.98852358 -0.02909864 0 0 Z " fill="#6E48B5" transform="translate(122.5625,160.875)"/>
<path d="M0 0 C2.31 0 4.62 0 7 0 C9.81228634 7.24970535 12.57528684 14.5017911 15.10546875 21.85546875 C15.90763723 24.16123126 15.90763723 24.16123126 18 26 C21.3 17.42 24.6 8.84 28 0 C29.98 0 31.96 0 34 0 C33.42277525 4.12563798 32.48756957 7.70046226 30.9375 11.5625 C30.49535156 12.68011719 30.05320312 13.79773438 29.59765625 14.94921875 C29.22278076 15.8935376 29.22278076 15.8935376 28.84033203 16.85693359 C26.79359966 22.07663632 24.8352976 27.33114245 22.85522461 32.57641602 C16.90400084 48.25664806 16.90400084 48.25664806 13 51 C9.57831793 51.8639237 6.26686595 52.63343297 3 51 C3.33 49.35 3.66 47.7 4 46 C6.31 46 8.62 46 11 46 C11.144375 45.278125 11.28875 44.55625 11.4375 43.8125 C12 41 12 41 12.703125 38.8046875 C13.11781166 34.88698984 11.76722742 31.87092887 10.3125 28.3125 C10.0343042 27.60206543 9.7561084 26.89163086 9.46948242 26.15966797 C8.65996395 24.10064989 7.83406045 22.04918227 7 20 C6.4121875 18.55560547 6.4121875 18.55560547 5.8125 17.08203125 C5.4825 16.27121094 5.1525 15.46039063 4.8125 14.625 C2.87009445 9.84619472 1.39390734 4.96315492 0 0 Z " fill="#C9C9C9" transform="translate(308,231)"/>
<path d="M0 0 C1.98 0 3.96 0 6 0 C6.00410889 0.82725586 6.00821777 1.65451172 6.01245117 2.50683594 C6.04534615 6.25528406 6.11598915 10.0020981 6.1875 13.75 C6.19330078 15.05195313 6.19910156 16.35390625 6.20507812 17.6953125 C6.23408203 18.94570312 6.26308594 20.19609375 6.29296875 21.484375 C6.3086792 22.63647461 6.32438965 23.78857422 6.34057617 24.97558594 C6.75368788 28.1894242 6.75368788 28.1894242 9.41088867 30.38549805 C12.08046301 32.05017463 13.07476492 32.49910228 16.125 32.0625 C16.78757813 31.99160156 17.45015625 31.92070312 18.1328125 31.84765625 C20.95398081 30.56691666 21.63279456 28.73676934 23 26 C23.49789207 23.01173177 23.49789207 23.01173177 23.51171875 19.82421875 C23.54716797 18.66728516 23.58261719 17.51035156 23.61914062 16.31835938 C23.64169922 15.12017578 23.66425781 13.92199219 23.6875 12.6875 C23.72166016 11.46998047 23.75582031 10.25246094 23.79101562 8.99804688 C23.87334817 5.99878986 23.94254921 2.99981986 24 0 C25.98 0 27.96 0 30 0 C30 12.54 30 25.08 30 38 C28.02 38 26.04 38 24 38 C23.67 37.34 23.34 36.68 23 36 C22.18015625 36.48726563 22.18015625 36.48726563 21.34375 36.984375 C18.56725791 38.18752157 16.51725618 38.26657833 13.5 38.25 C12.5615625 38.25515625 11.623125 38.2603125 10.65625 38.265625 C6.17040378 37.81704038 4.6761945 36.81450701 1.765625 33.30859375 C-1.34679099 27.43550741 -0.41534125 20.51314841 -0.25 14.0625 C-0.22990673 12.69729179 -0.21166094 11.33205507 -0.1953125 9.96679688 C-0.14834433 6.64379866 -0.08266726 3.32227008 0 0 Z " fill="#D7D7D7" transform="translate(220,231)"/>
<path d="M0 0 C2.625 -0.5625 2.625 -0.5625 6 0 C8.69232401 3.00157744 12 6.82892393 12 11 C12.66 11 13.32 11 14 11 C14.33 11.66 14.66 12.32 15 13 C16.32 10.69 17.64 8.38 19 6 C19.66 6 20.32 6 21 6 C21.309375 5.195625 21.61875 4.39125 21.9375 3.5625 C23 1 23 1 24 0 C26.33297433 -0.04092937 28.66705225 -0.04241723 31 0 C29.19314662 5.21244091 26.10526786 9.03996722 22.77734375 13.37890625 C21.17295441 15.74493976 20.35176913 17.20404195 20 20 C20.37907282 22.18703385 20.37907282 22.18703385 21 24 C21.66 24 22.32 24 23 24 C24.5078125 25.8984375 24.5078125 25.8984375 26.125 28.375 C26.66382813 29.18710937 27.20265625 29.99921875 27.7578125 30.8359375 C29 33 29 33 29 35 C29.66 35 30.32 35 31 35 C31 35.99 31 36.98 31 38 C27.80859375 38.40625 27.80859375 38.40625 24 38 C21.93353981 35.78441382 20.58095959 34.04044892 19.0625 31.5 C18.66482422 30.87996094 18.26714844 30.25992187 17.85742188 29.62109375 C16.88283117 28.09462638 15.93834415 26.54901257 15 25 C11.59517314 28.82354343 8.5096208 32.50909962 6 37 C5 38 5 38 1.9375 38.0625 C0.968125 38.041875 -0.00125 38.02125 -1 38 C-0.37240135 35.07120629 0.58622659 32.63904371 2 30 C2.66 30 3.32 30 4 30 C4 29.34 4 28.68 4 28 C4.66 28 5.32 28 6 28 C6.28875 27.0925 6.5775 26.185 6.875 25.25 C7.76841716 22.66901709 8.75227117 20.41157674 10 18 C9.566875 17.37351563 9.13375 16.74703125 8.6875 16.1015625 C8.130625 15.28429687 7.57375 14.46703125 7 13.625 C6.443125 12.81289062 5.88625 12.00078125 5.3125 11.1640625 C4 9 4 9 4 7 C3.34 7 2.68 7 2 7 C0.5393715 4.35261084 0 3.10551666 0 0 Z " fill="#C5C5C5" transform="translate(382,231)"/>
<path d="M0 0 C3.23716267 1.20815535 4.80733479 2.66994451 6.75 5.5 C7.17796875 6.1084375 7.6059375 6.716875 8.046875 7.34375 C9 9 9 9 9 11 C6.3125 11.8125 6.3125 11.8125 3 12 C2.21625 11.195625 1.4325 10.39125 0.625 9.5625 C-2.10895616 6.89363804 -2.49880703 6.58241912 -6.0625 6.4375 C-9.87908643 6.7325408 -9.87908643 6.7325408 -12.375 8.375 C-15.11198209 12.79627875 -16.38094256 17.89474094 -15.7421875 23.1015625 C-14.92687646 26.14280209 -13.75009247 28.3748613 -12 31 C-8.36217368 32.21260877 -5.82264001 32.39544552 -2 32 C-1.154375 31.154375 -0.30875 30.30875 0.5625 29.4375 C1.366875 28.633125 2.17125 27.82875 3 27 C6.3125 27.1875 6.3125 27.1875 9 28 C7.64717831 32.42741644 5.76701112 34.36309221 2 37 C-2.44890177 39.22445088 -8.16996151 38.50006489 -13 38 C-17.34096692 36.30495578 -19.35062215 32.70842921 -21.375 28.6875 C-24.03189532 21.96188631 -23.69508196 15.93688806 -21.15234375 9.1875 C-16.49152247 0.33983927 -9.50742626 -1.53477024 0 0 Z " fill="#CCCCCC" transform="translate(280,231)"/>
<path d="M0 0 C2.5 1.375 2.5 1.375 5 3 C5 3.66 5 4.32 5 5 C5.71285156 5.23976563 6.42570313 5.47953125 7.16015625 5.7265625 C10.4326117 7.19399094 12.71293669 9.04849346 15.4375 11.375 C21.3107913 16.37105718 27.58952014 20.42716167 34.1875 24.375 C34.83662354 24.76421631 35.48574707 25.15343262 36.15454102 25.55444336 C41.68912524 28.85342294 47.30708278 31.98192538 53 35 C50.64046906 37.35953094 49.22104383 37.49141413 46 38 C46 38.99 46 39.98 46 41 C40.98844991 38.01899176 35.98989218 35.01711819 31 32 C30.30052246 31.57799316 29.60104492 31.15598633 28.88037109 30.72119141 C21.15885969 26.04493573 13.74340988 21.32792324 6.8203125 15.49609375 C5.06333336 13.93899078 5.06333336 13.93899078 3 13 C3 12.34 3 11.68 3 11 C2.34 11 1.68 11 1 11 C1 9.68 1 8.36 1 7 C1.99 7 2.98 7 4 7 C3.67 6.01 3.34 5.02 3 4 C2.01 4 1.02 4 0 4 C0 2.68 0 1.36 0 0 Z " fill="#89B7AF" transform="translate(128,278)"/>
<path d="M0 0 C1.98 0 3.96 0 6 0 C7.60051664 1.60051664 7.12731472 3.28846122 7.12939453 5.50390625 C7.13254669 6.46159912 7.13569885 7.41929199 7.13894653 8.40600586 C7.1369223 9.44764893 7.13489807 10.48929199 7.1328125 11.5625 C7.13376923 12.62412354 7.13472595 13.68574707 7.13571167 14.77954102 C7.13639364 17.02913472 7.13453819 19.27873037 7.13037109 21.52832031 C7.1250231 24.98507071 7.13031554 28.44169117 7.13671875 31.8984375 C7.13605797 34.07812529 7.13477682 36.257813 7.1328125 38.4375 C7.13483673 39.47914307 7.13686096 40.52078613 7.13894653 41.59399414 C7.13579437 42.55168701 7.13264221 43.50937988 7.12939453 44.49609375 C7.12820114 45.76731079 7.12820114 45.76731079 7.12698364 47.06420898 C7 49 7 49 6 50 C4.02 50 2.04 50 0 50 C0 33.5 0 17 0 0 Z " fill="#CECECE" transform="translate(296,219)"/>
<path d="M0 0 C1.98567708 0.26041667 3.97135417 0.52083333 5.95703125 0.78125 C8.15471706 1.053233 8.15471706 1.053233 11 1 C12.60429638 1.70404373 14.18488047 2.46269745 15.75 3.25 C24.19338869 7.19624425 33.60242633 10.38856736 43 10 C43 10.66 43 11.32 43 12 C40.36 12 37.72 12 35 12 C35.495 14.475 35.495 14.475 36 17 C23.10003357 15.98823793 10.97068018 10.61001804 -1 6 C-0.67 5.34 -0.34 4.68 0 4 C0.66 4 1.32 4 2 4 C1.34 2.68 0.68 1.36 0 0 Z " fill="#93D2B1" transform="translate(182,317)"/>
<path d="M0 0 C9.41726666 1.76880835 9.41726666 1.76880835 13 5 C16.26113419 11.68577929 17.57918139 18.61543734 17 26 C16.67 26 16.34 26 16 26 C16 24.35 16 22.7 16 21 C15.34 21 14.68 21 14 21 C13.67 21.99 13.34 22.98 13 24 C13 23.34 13 22.68 13 22 C12.34 22 11.68 22 11 22 C9.66666667 20.66666667 8.33333333 19.33333333 7 18 C6.34 18 5.68 18 5 18 C4.67 24.6 4.34 31.2 4 38 C3.67 38 3.34 38 3 38 C2.95101562 36.76507813 2.90203125 35.53015625 2.8515625 34.2578125 C2.35735989 22.76674571 1.41972753 11.41295532 0 0 Z " fill="#8F6BEA" transform="translate(191,214)"/>
<path d="M0 0 C3.39581516 -0.0291544 6.79159786 -0.04685068 10.1875 -0.0625 C11.14720703 -0.07087891 12.10691406 -0.07925781 13.09570312 -0.08789062 C14.02705078 -0.09111328 14.95839844 -0.09433594 15.91796875 -0.09765625 C17.19837036 -0.10551147 17.19837036 -0.10551147 18.50463867 -0.11352539 C21.09246747 0.00420677 23.47661953 0.42892956 26 1 C24.25 6.75 24.25 6.75 22 9 C21.34 8.67 20.68 8.34 20 8 C18.60803 7.90462261 17.21163849 7.86926528 15.81640625 7.8671875 C14.97625977 7.86501221 14.13611328 7.86283691 13.27050781 7.8605957 C12.37686523 7.86534912 11.48322266 7.87010254 10.5625 7.875 C9.65467773 7.87910889 8.74685547 7.88321777 7.81152344 7.88745117 C-1.8474061 7.96779826 -9.98502082 8.39400833 -19 12 C-19.66 11.67 -20.32 11.34 -21 11 C-19.71186658 10.16121545 -18.41936744 9.32913217 -17.125 8.5 C-16.40570313 8.0359375 -15.68640625 7.571875 -14.9453125 7.09375 C-13 6 -13 6 -11 6 C-11 5.34 -11 4.68 -11 4 C-10.28972656 3.87882813 -9.57945313 3.75765625 -8.84765625 3.6328125 C-7.92855469 3.46523437 -7.00945312 3.29765625 -6.0625 3.125 C-5.14597656 2.96257812 -4.22945312 2.80015625 -3.28515625 2.6328125 C-2.53105469 2.42398438 -1.77695313 2.21515625 -1 2 C-0.67 1.34 -0.34 0.68 0 0 Z " fill="#744FBD" transform="translate(112,161)"/>
<path d="M0 0 C0.66 0 1.32 0 2 0 C2.33 2.31 2.66 4.62 3 7 C3.66 7 4.32 7 5 7 C5.31453125 8.2065625 5.6290625 9.413125 5.953125 10.65625 C6.38496453 12.27095432 6.8172818 13.88553093 7.25 15.5 C7.45496094 16.29148438 7.65992187 17.08296875 7.87109375 17.8984375 C9.34185807 23.33580861 11.33527519 28.0349572 14 33 C13.01 33.495 13.01 33.495 12 34 C12 33.34 12 32.68 12 32 C11.34 32 10.68 32 10 32 C9.80849249 35.00046938 9.80849249 35.00046938 11.0625 37.5625 C11.371875 38.366875 11.68125 39.17125 12 40 C11.67 40.66 11.34 41.32 11 42 C11.66 42.33 12.32 42.66 13 43 C12.01 43 11.02 43 10 43 C4.31909607 32.11654729 -0.45663269 22.44950393 -1 10 C-1.04382813 9.06800781 -1.08765625 8.13601562 -1.1328125 7.17578125 C-1.17805585 5.11720864 -1.10456338 3.05641305 -1 1 C-0.67 0.67 -0.34 0.34 0 0 Z " fill="#8879D0" transform="translate(77,198)"/>
<path d="M0 0 C0.33 0.66 0.66 1.32 1 2 C15.85 1.505 15.85 1.505 31 1 C31 2.65 31 4.3 31 6 C21.67774365 9.76475737 11.50376373 10.11925236 1.640625 8.421875 C-0.96937778 7.74188875 -0.96937778 7.74188875 -3 9 C-2.5020163 5.26512223 -2.12508244 3.18762365 0 0 Z " fill="#A8F9C9" transform="translate(230,329)"/>
<path d="M0 0 C1.4540625 0.0309375 1.4540625 0.0309375 2.9375 0.0625 C7.47322329 9.52835731 8.0398985 19.81330732 5.9375 30.0625 C5.2775 28.7425 4.6175 27.4225 3.9375 26.0625 C2.2875 27.3825 0.6375 28.7025 -1.0625 30.0625 C-2.21419522 27.75910956 -2.15230063 26.54591767 -2.08984375 23.9921875 C-2.07759766 23.1775 -2.06535156 22.3628125 -2.05273438 21.5234375 C-2.01805414 19.82282165 -1.97911332 18.12228641 -1.93554688 16.421875 C-1.86220303 10.91677226 -2.62453272 6.36914075 -4.0625 1.0625 C-3.0625 0.0625 -3.0625 0.0625 0 0 Z " fill="#A1D2CB" transform="translate(284.0625,278.9375)"/>
<path d="M0 0 C2.5 1.375 2.5 1.375 5 3 C5 3.66 5 4.32 5 5 C6.06541016 5.35964844 6.06541016 5.35964844 7.15234375 5.7265625 C10.44522972 7.19910136 12.79919918 9.06136009 15.5625 11.375 C16.49191406 12.14585937 17.42132813 12.91671875 18.37890625 13.7109375 C23.13415715 17.86380937 23.13415715 17.86380937 25 20 C24.75 22.75 24.75 22.75 24 25 C18.24546108 23.69652658 14.27978131 21.49428245 9.5625 18 C8.92634766 17.54882812 8.29019531 17.09765625 7.63476562 16.6328125 C6.04637627 15.47948146 4.51707714 14.24564448 3 13 C3 12.34 3 11.68 3 11 C2.34 11 1.68 11 1 11 C1 9.68 1 8.36 1 7 C1.99 7 2.98 7 4 7 C3.67 6.01 3.34 5.02 3 4 C2.01 4 1.02 4 0 4 C0 2.68 0 1.36 0 0 Z " fill="#83A3A8" transform="translate(128,278)"/>
<path d="M0 0 C6.875 0.875 6.875 0.875 8 2 C9.46037682 2.2980437 10.92824493 2.55960729 12.3984375 2.8046875 C18.12387357 3.90408545 23.26368071 5.87721725 28.625 8.125 C29.98818359 8.68380859 29.98818359 8.68380859 31.37890625 9.25390625 C33.58935414 10.16135328 35.7961198 11.07674422 38 12 C38 12.33 38 12.66 38 13 C32.93767116 13.48990279 28.67369154 11.7106322 24 10 C24 9.34 24 8.68 24 8 C22.02 8 20.04 8 18 8 C18 7.34 18 6.68 18 6 C17.01 6.33 16.02 6.66 15 7 C15.66 7.33 16.32 7.66 17 8 C17 8.99 17 9.98 17 11 C18.794375 11.1546875 18.794375 11.1546875 20.625 11.3125 C24.573396 11.81043271 27.60062069 12.84429605 31 15 C31.495 16.485 31.495 16.485 32 18 C30.64451156 17.56661254 29.29068724 17.12802005 27.9375 16.6875 C27.18339844 16.44386719 26.42929688 16.20023438 25.65234375 15.94921875 C23.62963856 15.22533457 21.64352746 14.39836453 19.6796875 13.52734375 C15.87997853 11.95018217 12.16771033 10.86510207 8.1875 9.875 C1.22504892 8.11252446 1.22504892 8.11252446 -1 7 C-0.67 4.69 -0.34 2.38 0 0 Z " fill="#7856C3" transform="translate(143,163)"/>
<path d="M0 0 C2.475 0.495 2.475 0.495 5 1 C5 12.88 5 24.76 5 37 C3.68 37 2.36 37 1 37 C-0.02361309 32.78866447 -0.11489283 28.83810136 -0.09765625 24.51171875 C-0.0962413 23.80852005 -0.09482635 23.10532135 -0.09336853 22.3808136 C-0.08780109 20.14966456 -0.07525475 17.91861836 -0.0625 15.6875 C-0.05748079 14.16862125 -0.05291862 12.64974091 -0.04882812 11.13085938 C-0.03784236 7.42053988 -0.02060034 3.71027999 0 0 Z " fill="#F7F7F7" transform="translate(244,231)"/>
<path d="M0 0 C1.65 0.33 3.3 0.66 5 1 C5 2.32 5 3.64 5 5 C4.34 5 3.68 5 3 5 C3.01160156 5.59425781 3.02320312 6.18851563 3.03515625 6.80078125 C3.10546296 13.25895513 2.68350916 19.57989613 2 26 C1.34 26 0.68 26 0 26 C-0.33 23.69 -0.66 21.38 -1 19 C-1.66 19.33 -2.32 19.66 -3 20 C-3.09706112 26.11485027 -2.77040851 31.93303301 -2 38 C-5.98444903 34.01555097 -5.81952556 26.98521888 -6.3125 21.5625 C-5.65057102 14.01650964 -3.83270035 6.57034346 0 0 Z " fill="#624F9D" transform="translate(80,179)"/>
<path d="M0 0 C0.33 0.66 0.66 1.32 1 2 C1.66 2 2.32 2 3 2 C3 2.66 3 3.32 3 4 C3.99 4 4.98 4 6 4 C12 16 12 16 13.0703125 18.265625 C13.99079957 20.18356638 13.99079957 20.18356638 16 22 C15.625 24.125 15.625 24.125 15 26 C13.68 26.33 12.36 26.66 11 27 C11 26.01 11 25.02 11 24 C9.02 24.33 7.04 24.66 5 25 C5.226875 24.443125 5.45375 23.88625 5.6875 23.3125 C6.12475977 20.07677771 4.66945002 18.76101349 3 16 C2.66666667 13.66666667 2.33333333 11.33333333 2 9 C1.46375 8.113125 0.9275 7.22625 0.375 6.3125 C-1 4 -1 4 -0.6875 1.6875 C-0.460625 1.130625 -0.23375 0.57375 0 0 Z " fill="#7978AB" transform="translate(86,228)"/>
<path d="M0 0 C1.53202706 0.25195908 3.05257128 0.57596777 4.5625 0.9375 C5.38878906 1.13214844 6.21507812 1.32679688 7.06640625 1.52734375 C8.02353516 1.76130859 8.02353516 1.76130859 9 2 C9 2.66 9 3.32 9 4 C10.299375 4.144375 11.59875 4.28875 12.9375 4.4375 C16.875 4.875 16.875 4.875 18 6 C19.68608966 6.07205511 21.37500659 6.08386068 23.0625 6.0625 C23.98160156 6.05347656 24.90070313 6.04445312 25.84765625 6.03515625 C26.55792969 6.02355469 27.26820313 6.01195312 28 6 C27.67 6.99 27.34 7.98 27 9 C29.64 10.32 32.28 11.64 35 13 C34.67 13.66 34.34 14.32 34 15 C31.5 15.6875 31.5 15.6875 29 16 C28.67 15.67 28.34 15.34 28 15 C27.29875 14.87625 26.5975 14.7525 25.875 14.625 C22.26663299 13.84057239 19.3324325 12.60213101 16 11 C15.67 10.34 15.34 9.68 15 9 C12.83927773 8.21376109 10.64509125 7.51798774 8.4375 6.875 C7.23996094 6.52179688 6.04242188 6.16859375 4.80859375 5.8046875 C3.88175781 5.53914062 2.95492187 5.27359375 2 5 C2 4.01 2 3.02 2 2 C1.01 1.67 0.02 1.34 -1 1 C-0.67 0.67 -0.34 0.34 0 0 Z " fill="#9274DE" transform="translate(158,169)"/>
<path d="M0 0 C1.046875 2.06640625 1.046875 2.06640625 1.75 4.5625 C1.99234375 5.38878906 2.2346875 6.21507812 2.484375 7.06640625 C2.65453125 7.70449219 2.8246875 8.34257812 3 9 C2.236875 8.67 1.47375 8.34 0.6875 8 C-2.61758338 6.77020153 -4.56137942 6.90862071 -8 7.625 C-11.18359699 8.7691002 -11.18359699 8.7691002 -12.8125 11.6875 C-14.05274073 15.14711887 -14.57169299 18.35939039 -15 22 C-15.33 22.33 -15.66 22.66 -16 23 C-15.93553196 25.03074313 -15.86732164 27.06193467 -15.7421875 29.08984375 C-15.82726562 29.72019531 -15.91234375 30.35054687 -16 31 C-16.99 31.66 -17.98 32.32 -19 33 C-17.8740458 11.10213214 -17.8740458 11.10213214 -12 3 C-8.24439545 0.37589169 -4.49858613 -2.14037992 0 0 Z " fill="#7F4EDC" transform="translate(173,215)"/>
<path d="M0 0 C2.35716404 2.15454249 3.78966144 4.19719874 5.1875 7.0625 C5.53167969 7.75472656 5.87585938 8.44695312 6.23046875 9.16015625 C7 11 7 11 7 13 C7.66 13 8.32 13 9 13 C9.33 14.65 9.66 16.3 10 18 C9.01 17.34 8.02 16.68 7 16 C6.67 16.99 6.34 17.98 6 19 C2.9375 20.1875 2.9375 20.1875 0 21 C0 21.66 0 22.32 0 23 C0.639375 23.268125 1.27875 23.53625 1.9375 23.8125 C4 25 4 25 5 28 C4.01 28 3.02 28 2 28 C-0.6435453 24.51301091 -2.73906294 20.7540087 -5 17 C-5.33 21.95 -5.66 26.9 -6 32 C-6.33 32 -6.66 32 -7 32 C-7 25.4 -7 18.8 -7 12 C-4.69 12 -2.38 12 0 12 C-0.66 13.98 -1.32 15.96 -2 18 C-1.01 18 -0.02 18 1 18 C1.33 17.01 1.66 16.02 2 15 C2.66 14.34 3.32 13.68 4 13 C3.71125 12.48050781 3.4225 11.96101562 3.125 11.42578125 C-0.56239016 4.49912127 -0.56239016 4.49912127 0 0 Z M0 11 C2 12 2 12 2 12 Z " fill="#948BDE" transform="translate(176,224)"/>
<path d="M0 0 C3 1 3 1 4 3 C4.7425 2.773125 5.485 2.54625 6.25 2.3125 C9 2 9 2 11.3125 3.4375 C12.1478125 4.2109375 12.1478125 4.2109375 13 5 C13.66 4.34 14.32 3.68 15 3 C16.04976964 6.14930893 16.10131595 8.38814456 16.0625 11.6875 C16.05347656 12.68136719 16.04445312 13.67523438 16.03515625 14.69921875 C16.02355469 15.45847656 16.01195312 16.21773437 16 17 C14 16 12 15 10 14 C10 13.34 10 12.68 10 12 C9.443125 11.7525 8.88625 11.505 8.3125 11.25 C3.51722549 8.65795973 0.62060703 6.30380482 -1 1 C-0.67 0.67 -0.34 0.34 0 0 Z " fill="#8179BD" transform="translate(221,203)"/>
<path d="M0 0 C0.495 1.485 0.495 1.485 1 3 C1.495 3.99 1.495 3.99 2 5 C2.99 5.33 3.98 5.66 5 6 C2.1237651 8.3223428 -0.63780422 9.86565842 -4.0625 11.25 C-4.91972656 11.60578125 -5.77695312 11.9615625 -6.66015625 12.328125 C-9 13 -9 13 -12 12 C-11.34 12 -10.68 12 -10 12 C-10 11.34 -10 10.68 -10 10 C-10.66 9.67 -11.32 9.34 -12 9 C-11.34 9 -10.68 9 -10 9 C-10 8.34 -10 7.68 -10 7 C-10.99 7.33 -11.98 7.66 -13 8 C-15.06498892 8.08315752 -17.1325789 8.10735878 -19.19921875 8.09765625 C-20.40771484 8.09443359 -21.61621094 8.09121094 -22.86132812 8.08789062 C-24.7552832 8.07532227 -24.7552832 8.07532227 -26.6875 8.0625 C-28.59885742 8.05573242 -28.59885742 8.05573242 -30.54882812 8.04882812 C-33.69926564 8.03702873 -36.84960949 8.02056597 -40 8 C-39.67 7.01 -39.34 6.02 -39 5 C-39 5.66 -39 6.32 -39 7 C-19.76142118 7.35842555 -19.76142118 7.35842555 -2 1 C-1.34 0.67 -0.68 0.34 0 0 Z " fill="#74AC8B" transform="translate(271,323)"/>
<path d="M0 0 C1.98567708 0.26041667 3.97135417 0.52083333 5.95703125 0.78125 C8.15471706 1.053233 8.15471706 1.053233 11 1 C13.44233235 2.17148276 15.67688841 3.59736658 18 5 C18 5.66 18 6.32 18 7 C18.99 7.33 19.98 7.66 21 8 C20 9.5625 20 9.5625 18 11 C11.19644398 10.87850793 5.2741106 8.47965768 -1 6 C-0.67 5.34 -0.34 4.68 0 4 C0.66 4 1.32 4 2 4 C1.34 2.68 0.68 1.36 0 0 Z " fill="#8BBCA8" transform="translate(182,317)"/>
<path d="M0 0 C9.58060678 1.91612136 9.58060678 1.91612136 13 5 C16.26113419 11.68577929 17.57918139 18.61543734 17 26 C16.67 26 16.34 26 16 26 C16 24.35 16 22.7 16 21 C15.34 21 14.68 21 14 21 C13.67 21.99 13.34 22.98 13 24 C13 23.34 13 22.68 13 22 C12.34 22 11.68 22 11 22 C10.957279 20.33388095 10.95936168 18.66617115 11 17 C11.33 16.67 11.66 16.34 12 16 C11.8981629 14.08575543 11.8981629 14.08575543 11.5625 11.9375 C11.376875 10.638125 11.19125 9.33875 11 8 C9.02 7.34 7.04 6.68 5 6 C5 5.34 5 4.68 5 4 C4.01 3.67 3.02 3.34 2 3 C3.26974972 7.41522109 3.26974972 7.41522109 6 11 C5.01 11.495 5.01 11.495 4 12 C3.34227572 15.02934491 3.34227572 15.02934491 3 18 C2.67 18 2.34 18 2 18 C1.34 12.06 0.68 6.12 0 0 Z " fill="#6C4BB1" transform="translate(191,214)"/>
<path d="M0 0 C2.31730006 0.39953449 3.67446613 0.66689557 5.34375 2.375 C7.29106617 4.28557435 9.28697827 5.40026371 11.6875 6.6875 C12.49574219 7.12449219 13.30398437 7.56148437 14.13671875 8.01171875 C14.75160156 8.33785156 15.36648437 8.66398438 16 9 C13.35261084 10.4606285 12.10551666 11 9 11 C8.67 11.66 8.34 12.32 8 13 C4.541582 12.01188057 1.9386095 10.95865538 -1.0625 8.9375 C-3.88125835 7.07831896 -5.69363079 6.38898461 -9 6 C-9 5.67 -9 5.34 -9 5 C-2.25 4 -2.25 4 0 4 C0.33 3.67 0.66 3.34 1 3 C0.67 2.01 0.34 1.02 0 0 Z " fill="#745EB8" transform="translate(190,179)"/>
<path d="M0 0 C1.65 0 3.3 0 5 0 C5 12.54 5 25.08 5 38 C3.02 38 1.04 38 -1 38 C-1.33 37.34 -1.66 36.68 -2 36 C-2.81210938 36.49113281 -2.81210938 36.49113281 -3.640625 36.9921875 C-6.50719067 38.21664767 -8.6452987 38.19892146 -11.75 38.125 C-13.22726563 38.09792969 -13.22726563 38.09792969 -14.734375 38.0703125 C-15.48203125 38.04710937 -16.2296875 38.02390625 -17 38 C-17 37.67 -17 37.34 -17 37 C-16.37351563 36.93941406 -15.74703125 36.87882812 -15.1015625 36.81640625 C-14.28429687 36.73261719 -13.46703125 36.64882813 -12.625 36.5625 C-11.81289062 36.48128906 -11.00078125 36.40007812 -10.1640625 36.31640625 C-7.95727195 36.10909886 -7.95727195 36.10909886 -6 35 C-7.12534105 33.64381501 -7.12534105 33.64381501 -10.0625 33.9375 C-11.031875 33.958125 -12.00125 33.97875 -13 34 C-13 33.67 -13 33.34 -13 33 C-12.38511719 32.82984375 -11.77023438 32.6596875 -11.13671875 32.484375 C-10.32847656 32.24203125 -9.52023438 31.9996875 -8.6875 31.75 C-7.88699219 31.51796875 -7.08648437 31.2859375 -6.26171875 31.046875 C-3.49297509 29.98225702 -3.49297509 29.98225702 -1 26 C-0.67 29.63 -0.34 33.26 0 37 C1.32 37 2.64 37 4 37 C4 25.12 4 13.24 4 1 C2.68 0.67 1.36 0.34 0 0 Z " fill="#8D8D8D" transform="translate(245,231)"/>
<path d="M0 0 C5.78467036 4.03581653 8.19258771 8.60257818 11 15 C10.01 15.33 9.02 15.66 8 16 C8 14.68 8 13.36 8 12 C5.05555551 11.45219637 2.37501773 10.98214201 -0.625 11.125 C-3.62711579 10.96699391 -4.85985638 10.06087904 -7 8 C-7 7.34 -7 6.68 -7 6 C-5.02 5.34 -3.04 4.68 -1 4 C-1.33 3.01 -1.66 2.02 -2 1 C-1.34 0.67 -0.68 0.34 0 0 Z " fill="#9596DD" transform="translate(183,239)"/>
<path d="M0 0 C0.83853516 -0.00128906 1.67707031 -0.00257813 2.54101562 -0.00390625 C3.41306641 -0.00003906 4.28511719 0.00382813 5.18359375 0.0078125 C6.4974707 0.00201172 6.4974707 0.00201172 7.83789062 -0.00390625 C8.67513672 -0.00261719 9.51238281 -0.00132812 10.375 0 C11.14142822 0.00112793 11.90785645 0.00225586 12.69750977 0.00341797 C14.62109375 0.1328125 14.62109375 0.1328125 16.62109375 1.1328125 C15.96109375 3.1128125 15.30109375 5.0928125 14.62109375 7.1328125 C13.73421875 6.8234375 12.84734375 6.5140625 11.93359375 6.1953125 C6.31231428 4.55770836 0.43557177 4.46506839 -5.37890625 4.1328125 C-5.37890625 3.4728125 -5.37890625 2.8128125 -5.37890625 2.1328125 C-6.03890625 1.8028125 -6.69890625 1.4728125 -7.37890625 1.1328125 C-4.58943849 0.20298991 -2.88280618 0.00423631 0 0 Z " fill="#8954EB" transform="translate(120.37890625,162.8671875)"/>
<path d="M0 0 C0.33 0 0.66 0 1 0 C1.08302368 0.90709717 1.08302368 0.90709717 1.16772461 1.83251953 C1.42203865 4.59689466 1.67974082 7.36094407 1.9375 10.125 C2.02451172 11.07632813 2.11152344 12.02765625 2.20117188 13.0078125 C2.64249276 17.71523526 3.21336266 22.33636435 4 27 C4.11196073 29.67810075 4.04625299 32.31732686 4 35 C0.89287788 34.21362959 -2.09244107 33.36075884 -5 32 C-6.5625 29.3125 -6.5625 29.3125 -7 27 C-5.35 27.33 -3.7 27.66 -2 28 C-0.01039227 24.6816923 0.2361745 22.20040301 0.1953125 18.359375 C0.18886719 17.28945313 0.18242187 16.21953125 0.17578125 15.1171875 C0.15902344 14.00601562 0.14226562 12.89484375 0.125 11.75 C0.11597656 10.62335938 0.10695312 9.49671875 0.09765625 8.3359375 C0.07410658 5.55707635 0.0412168 2.7786461 0 0 Z " fill="#97A3C7" transform="translate(168,243)"/>
<path d="M0 0 C0.33 0 0.66 0 1 0 C2.13425151 7.7979791 2.59497345 15.22450441 1 23 C0.34 21.68 -0.32 20.36 -1 19 C-2.65 20.32 -4.3 21.64 -6 23 C-7.60670684 19.78658631 -6.82510855 16.37041032 -6.5625 12.875 C-6.51029297 12.12089844 -6.45808594 11.36679687 -6.40429688 10.58984375 C-6.27454996 8.7262063 -6.13792512 6.86305004 -6 5 C-5.67 5 -5.34 5 -5 5 C-4.67 7.64 -4.34 10.28 -4 13 C-0.25474201 9.25474201 -0.31090051 5.01729091 0 0 Z " fill="#759F92" transform="translate(289,286)"/>
<path d="M0 0 C1.5 1.375 1.5 1.375 3 3 C3 3.66 3 4.32 3 5 C3.66 5 4.32 5 5 5 C7.125 9.625 7.125 9.625 6 13 C5.34 13 4.68 13 4 13 C4.66 14.65 5.32 16.3 6 18 C5.34 18 4.68 18 4 18 C2.58303493 16.42945794 1.23893184 14.79253336 -0.0625 13.125 C-0.77535156 12.22007812 -1.48820312 11.31515625 -2.22265625 10.3828125 C-4 8 -4 8 -5 6 C-4.360625 5.566875 -3.72125 5.13375 -3.0625 4.6875 C-0.73253997 3.08760823 -0.73253997 3.08760823 0 0 Z " fill="#8893BF" transform="translate(102,249)"/>
<path d="M0 0 C1.46366342 0.39753821 2.9208935 0.81881384 4.375 1.25 C5.18710938 1.48203125 5.99921875 1.7140625 6.8359375 1.953125 C9.45785454 3.2214892 9.99382318 4.32423308 11 7 C9.5 8.6875 9.5 8.6875 7 10 C2.87526842 9.15347561 -0.52037916 7.31974722 -4 5 C-3.67 3.68 -3.34 2.36 -3 1 C-2.01 1.33 -1.02 1.66 0 2 C0 1.34 0 0.68 0 0 Z " fill="#7D6AC2" transform="translate(202,188)"/>
<path d="M0 0 C2.5 1.375 2.5 1.375 5 3 C5 3.66 5 4.32 5 5 C5.763125 5.2475 6.52625 5.495 7.3125 5.75 C10.2364045 7.10995558 11.30004356 8.31585826 13 11 C12.360625 11.103125 11.72125 11.20625 11.0625 11.3125 C10.381875 11.539375 9.70125 11.76625 9 12 C8.67 12.99 8.34 13.98 8 15 C5.525 14.01 5.525 14.01 3 13 C3 12.34 3 11.68 3 11 C2.34 11 1.68 11 1 11 C1 9.68 1 8.36 1 7 C1.99 7 2.98 7 4 7 C3.67 6.01 3.34 5.02 3 4 C2.01 4 1.02 4 0 4 C0 2.68 0 1.36 0 0 Z " fill="#879FAB" transform="translate(128,278)"/>
<path d="M0 0 C0 0.66 0 1.32 0 2 C-4.31717628 3.06035909 -8.51866511 3.14961746 -12.9375 3.125 C-13.62779297 3.12886719 -14.31808594 3.13273437 -15.02929688 3.13671875 C-18.2242374 3.13066199 -21.22523474 2.9619835 -24.37890625 2.4296875 C-26.97182385 1.74173745 -26.97182385 1.74173745 -29 3 C-29 2.01 -29 1.02 -29 0 C-25.47970194 -0.19859939 -21.95876195 -0.38186528 -18.4375 -0.5625 C-17.44685547 -0.61857422 -16.45621094 -0.67464844 -15.43554688 -0.73242188 C-10.11689117 -0.99747116 -5.23752631 -0.99167749 0 0 Z " fill="#86BA9B" transform="translate(256,335)"/>
<path d="M0 0 C1.53202706 0.25195908 3.05257128 0.57596777 4.5625 0.9375 C5.38878906 1.13214844 6.21507812 1.32679688 7.06640625 1.52734375 C8.02353516 1.76130859 8.02353516 1.76130859 9 2 C9 2.66 9 3.32 9 4 C10.2375 4.12375 11.475 4.2475 12.75 4.375 C15.8762197 4.75746305 18.28879237 5.30549523 21 7 C20.67 7.99 20.34 8.98 20 10 C15.95295419 9.27595226 12.10929598 8.16553713 8.1875 6.9375 C7.02605469 6.57527344 5.86460937 6.21304688 4.66796875 5.83984375 C3.78753906 5.56269531 2.90710938 5.28554687 2 5 C2 4.01 2 3.02 2 2 C1.01 1.67 0.02 1.34 -1 1 C-0.67 0.67 -0.34 0.34 0 0 Z " fill="#8B62EB" transform="translate(158,169)"/>
<path d="M0 0 C1.5912689 4.873261 2.21192221 8.80790596 2 14 C1.67 12.68 1.34 11.36 1 10 C0.34 10 -0.32 10 -1 10 C-1 9.34 -1 8.68 -1 8 C-1.598125 7.731875 -2.19625 7.46375 -2.8125 7.1875 C-5.01819033 5.99012525 -6.43583187 4.95521016 -8 3 C-8 2.01 -8 1.02 -8 0 C-4.71023192 -1.09658936 -3.28696233 -0.79953138 0 0 Z " fill="#8E9FB7" transform="translate(120,270)"/>
<path d="M0 0 C3.0916909 2.52956528 3.90931332 5.22454612 5 9 C4.34 9 3.68 9 3 9 C3 8.34 3 7.68 3 7 C2.34 7 1.68 7 1 7 C0.80849249 10.00046938 0.80849249 10.00046938 2.0625 12.5625 C2.371875 13.366875 2.68125 14.17125 3 15 C2.67 15.66 2.34 16.32 2 17 C2.66 17.33 3.32 17.66 4 18 C3.01 18 2.02 18 1 18 C-0.17407021 15.73272667 -1.33939739 13.46165376 -2.5 11.1875 C-2.83386719 10.54490234 -3.16773437 9.90230469 -3.51171875 9.24023438 C-5.00239084 6.30452301 -6 4.33873483 -6 1 C-5.01 1 -4.02 1 -3 1 C-2.34 1.99 -1.68 2.98 -1 4 C-0.67 2.68 -0.34 1.36 0 0 Z " fill="#7971AB" transform="translate(86,223)"/>
<path d="M0 0 C0.66 0 1.32 0 2 0 C2.33 2.31 2.66 4.62 3 7 C3.66 7 4.32 7 5 7 C4.67 10.3 4.34 13.6 4 17 C2.68 16.67 1.36 16.34 0 16 C-1.02224111 11.01657457 -1.3632306 6.07454515 -1 1 C-0.67 0.67 -0.34 0.34 0 0 Z " fill="#8C72DE" transform="translate(77,198)"/>
<path d="M0 0 C0 0.66 0 1.32 0 2 C0.66 2 1.32 2 2 2 C1.67 4.31 1.34 6.62 1 9 C-0.65 9.33 -2.3 9.66 -4 10 C-4 8.35 -4 6.7 -4 5 C-5.65 5 -7.3 5 -9 5 C-9 3.66666667 -9 2.33333333 -9 1 C-5.846632 0.29925156 -3.27275026 0 0 0 Z " fill="#9AA9D9" transform="translate(189,249)"/>
<path d="M0 0 C0.66 0 1.32 0 2 0 C2.45375 1.11375 2.9075 2.2275 3.375 3.375 C4.72465986 6.96199008 4.72465986 6.96199008 7 9 C6.625 11.125 6.625 11.125 6 13 C4.68 13.33 3.36 13.66 2 14 C2 13.01 2 12.02 2 11 C0.02 11.33 -1.96 11.66 -4 12 C-3.67 11.01 -3.34 10.02 -3 9 C-2.34 9 -1.68 9 -1 9 C-1.020625 7.88625 -1.04125 6.7725 -1.0625 5.625 C-1 2 -1 2 0 0 Z " fill="#9597D6" transform="translate(95,241)"/>
<path d="M0 0 C2.97 0.495 2.97 0.495 6 1 C6 2.65 6 4.3 6 6 C6.99 5.67 7.98 5.34 9 5 C11 6.8125 11 6.8125 13 9 C13 9.99 13 10.98 13 12 C11.35 12 9.7 12 8 12 C7.67 12.66 7.34 13.32 7 14 C6.01780373 12.23084525 5.03934641 10.45961431 4.0625 8.6875 C3.51722656 7.70136719 2.97195312 6.71523438 2.41015625 5.69921875 C1 3 1 3 0 0 Z " fill="#90B8BF" transform="translate(179,253)"/>
<path d="M0 0 C0.66 0.33 1.32 0.66 2 1 C2.31563182 6.26053037 1.66590937 9.44573816 -1 14 C-2.32 13.34 -3.64 12.68 -5 12 C-4.34 12 -3.68 12 -3 12 C-3.83333333 9.83333333 -3.83333333 9.83333333 -6 9 C-5.34 7.35 -4.68 5.7 -4 4 C-3.34 4 -2.68 4 -2 4 C-1.67 3.01 -1.34 2.02 -1 1 C-0.67 0.67 -0.34 0.34 0 0 Z " fill="#A6EACA" transform="translate(287,304)"/>
<path d="M0 0 C0.75 2.25 0.75 2.25 1 5 C-0.75 7.3125 -0.75 7.3125 -3 9 C-3.99 9 -4.98 9 -6 9 C-5.67 7.35 -5.34 5.7 -5 4 C-7.97 3.505 -7.97 3.505 -11 3 C-11 4.65 -11 6.3 -11 8 C-11.33 8 -11.66 8 -12 8 C-12 6.02 -12 4.04 -12 2 C-7.86666662 -0.29629632 -4.59061602 -1.53020534 0 0 Z " fill="#9078E4" transform="translate(180,233)"/>
<path d="M0 0 C1.13953239 3.41859718 0.85624079 4.0194049 -0.375 7.25 C-1.4304493 10.18606806 -2.24096045 12.90208096 -2.625 16 C-3 19 -3 19 -4 20 C-3.93553196 22.03074313 -3.86732164 24.06193467 -3.7421875 26.08984375 C-3.82726562 26.72019531 -3.91234375 27.35054687 -4 28 C-4.99 28.66 -5.98 29.32 -7 30 C-6.46643635 19.62310697 -5.32244617 9.12419343 0 0 Z " fill="#5C5089" transform="translate(161,218)"/>
<path d="M0 0 C3.62276315 1.3255581 6.63505348 2.94346955 9.8125 5.125 C10.60269531 5.66382813 11.39289063 6.20265625 12.20703125 6.7578125 C12.79871094 7.16773438 13.39039063 7.57765625 14 8 C11.50907189 9.24546405 10.58919267 8.7767578 8 8 C8 8.66 8 9.32 8 10 C6.3125 10.6875 6.3125 10.6875 4 11 C1.25 9.5625 1.25 9.5625 -1 8 C-0.01 7.34 0.98 6.68 2 6 C2.2773501 2.81509993 2.2773501 2.81509993 0 0 Z " fill="#7FA5A3" transform="translate(149,295)"/>
<path d="M0 0 C7.92 1.98 7.92 1.98 16 4 C16 4.33 16 4.66 16 5 C14.80375 4.938125 13.6075 4.87625 12.375 4.8125 C8.21395131 4.78314516 5.69944588 6.10917211 2 8 C-0.875 7.6875 -0.875 7.6875 -3 7 C-2.01 6.67 -1.02 6.34 0 6 C0 4.68 0 3.36 0 2 C0 1.34 0 0.68 0 0 Z " fill="#7FB79A" transform="translate(200,322)"/>
<path d="M0 0 C0.66 0.33 1.32 0.66 2 1 C2 2.65 2 4.3 2 6 C0.68 6 -0.64 6 -2 6 C-2.33 7.98 -2.66 9.96 -3 12 C-3.99 12 -4.98 12 -6 12 C-6.33 12.66 -6.66 13.32 -7 14 C-7.98995103 11.32713221 -8.04574968 10.14780667 -7.1875 7.375 C-6 5 -6 5 -4 3 C-2.68 3 -1.36 3 0 3 C0 2.01 0 1.02 0 0 Z " fill="#9EE3BE" transform="translate(279,316)"/>
<path d="M0 0 C0.99 0.66 1.98 1.32 3 2 C2.01 2.495 2.01 2.495 1 3 C0.835 3.825 0.67 4.65 0.5 5.5 C0.335 6.325 0.17 7.15 0 8 C-0.99 8.495 -0.99 8.495 -2 9 C-2.33 15.6 -2.66 22.2 -3 29 C-3.33 29 -3.66 29 -4 29 C-4 20.09 -4 11.18 -4 2 C-2.68 1.34 -1.36 0.68 0 0 Z " fill="#836BCD" transform="translate(198,223)"/>
<path d="M0 0 C1.98 0 3.96 0 6 0 C6 0.66 6 1.32 6 2 C6.99 2.33 7.98 2.66 9 3 C7.4296232 4.5703768 5.59499179 4.53894045 3.4375 4.9375 C-1.09206252 5.80430837 -5.53640291 6.84277113 -10 8 C-6.98112756 4.51668565 -4.43090471 3.20842856 0 2 C0 1.34 0 0.68 0 0 Z " fill="#8756EB" transform="translate(101,165)"/>
<path d="M0 0 C1.8125 1.5 1.8125 1.5 3 3 C2.67 3.66 2.34 4.32 2 5 C1.34 5 0.68 5 0 5 C0 5.66 0 6.32 0 7 C-4.455 6.01 -4.455 6.01 -9 5 C-9 4.34 -9 3.68 -9 3 C-9.66 2.67 -10.32 2.34 -11 2 C-7.23342553 0.59848392 -4.03456732 -0.5452118 0 0 Z " fill="#AAE4D0" transform="translate(184,314)"/>
<path d="M0 0 C2.35716404 2.15454249 3.78966144 4.19719874 5.1875 7.0625 C5.53167969 7.75472656 5.87585938 8.44695312 6.23046875 9.16015625 C7 11 7 11 7 13 C7.66 13 8.32 13 9 13 C9.33 14.65 9.66 16.3 10 18 C9.01 17.34 8.02 16.68 7 16 C6.01 16.33 5.02 16.66 4 17 C4 16.01 4 15.02 4 14 C3.24975192 12.30378694 2.49833513 10.60805036 1.734375 8.91796875 C0.62254421 6.0141979 0.31397997 3.07700374 0 0 Z " fill="#6653A4" transform="translate(176,224)"/>
<path d="M0 0 C0.66 0 1.32 0 2 0 C2 1.32 2 2.64 2 4 C3.65 4.33 5.3 4.66 7 5 C4.33333333 9 1.66666667 13 -1 17 C-1 15.02 -1 13.04 -1 11 C-0.34 11 0.32 11 1 11 C1 9.68 1 8.36 1 7 C-0.32 6.34 -1.64 5.68 -3 5 C-1.625 2.5 -1.625 2.5 0 0 Z " fill="#6548A8" transform="translate(84,173)"/>
<path d="M0 0 C1.32 0.33 2.64 0.66 4 1 C4 2.32 4 3.64 4 5 C3.34 5 2.68 5 2 5 C2.061875 6.423125 2.061875 6.423125 2.125 7.875 C2 11 2 11 0 13 C0 12.34 0 11.68 0 11 C-0.99 11.33 -1.98 11.66 -3 12 C-2 8 -1 4 0 0 Z " fill="#8B61E7" transform="translate(81,179)"/>
<path d="M0 0 C3.465 1.98 3.465 1.98 7 4 C6.67 5.65 6.34 7.3 6 9 C2.5625 8.1875 2.5625 8.1875 -1 7 C-1.33 6.01 -1.66 5.02 -2 4 C-1.34 3.67 -0.68 3.34 0 3 C0 2.01 0 1.02 0 0 Z " fill="#96C0BE" transform="translate(146,294)"/>
<path d="M0 0 C3.3 1.65 6.6 3.3 10 5 C7.64046906 7.35953094 6.22104383 7.49141413 3 8 C3 8.99 3 9.98 3 11 C1.35 9.68 -0.3 8.36 -2 7 C-0.68 6.34 0.64 5.68 2 5 C2 4.34 2 3.68 2 3 C1.34 2.67 0.68 2.34 0 2 C0 1.34 0 0.68 0 0 Z " fill="#76A194" transform="translate(171,308)"/>
<path d="M0 0 C0 0.33 0 0.66 0 1 C-0.65226562 1.17015625 -1.30453125 1.3403125 -1.9765625 1.515625 C-7.38948546 3.01655349 -11.50929461 4.63197096 -16 8 C-16.99 8.495 -16.99 8.495 -18 9 C-18 7.35 -18 5.7 -18 4 C-11.74827614 1.13035626 -6.90352555 -0.51137226 0 0 Z " fill="#583890" transform="translate(109,169)"/>
<path d="M0 0 C0.33 0.66 0.66 1.32 1 2 C1.66 2 2.32 2 3 2 C3 2.66 3 3.32 3 4 C3.66 4 4.32 4 5 4 C5.33 6.31 5.66 8.62 6 11 C4.68 11.33 3.36 11.66 2 12 C1.814375 11.13375 1.814375 11.13375 1.625 10.25 C1.08844891 7.97071952 1.08844891 7.97071952 -0.125 6 C-1.19223228 3.56061193 -0.87822019 2.45901654 0 0 Z " fill="#968FE0" transform="translate(86,228)"/>
<path d="M0 0 C0.33 0 0.66 0 1 0 C1.33 2.97 1.66 5.94 2 9 C1.01 8.67 0.02 8.34 -1 8 C-1.125 2.25 -1.125 2.25 0 0 Z M-4 8 C-3.01 8 -2.02 8 -1 8 C0.0326802 10.78823655 0.04509293 11.8677274 -0.9375 14.75 C-1.288125 15.4925 -1.63875 16.235 -2 17 C-4 15 -4 15 -4.125 11.375 C-4.08375 10.26125 -4.0425 9.1475 -4 8 Z " fill="#7669B2" transform="translate(82,207)"/>
<path d="M0 0 C0.33 0.66 0.66 1.32 1 2 C9.25 2 17.5 2 26 2 C26 2.33 26 2.66 26 3 C17.75 3 9.5 3 1 3 C1.33 4.32 1.66 5.64 2 7 C0.68 6.67 -0.64 6.34 -2 6 C-1.49396008 3.83125748 -1.00016187 2.00032373 0 0 Z " fill="#B6EFCF" transform="translate(230,329)"/>
<path d="M0 0 C2 1 2 1 2 1 Z M-7 1 C-4.69 1 -2.38 1 0 1 C-0.474375 1.598125 -0.94875 2.19625 -1.4375 2.8125 C-3.16465744 5.00382924 -3.16465744 5.00382924 -4 8 C-4.33 7.34 -4.66 6.68 -5 6 C-5.33 10.95 -5.66 15.9 -6 21 C-6.33 21 -6.66 21 -7 21 C-7 14.4 -7 7.8 -7 1 Z " fill="#584E8E" transform="translate(176,235)"/>
<path d="M0 0 C0.99 0 1.98 0 3 0 C4.28317892 3.84953676 4.06643637 6.94738135 4 11 C3.67 11 3.34 11 3 11 C3 9.35 3 7.7 3 6 C2.34 6 1.68 6 1 6 C0.67 6.99 0.34 7.98 0 9 C0 8.34 0 7.68 0 7 C-0.66 7 -1.32 7 -2 7 C-2.125 4.625 -2.125 4.625 -2 2 C-1.34 1.34 -0.68 0.68 0 0 Z " fill="#796BBD" transform="translate(204,229)"/>
<path d="M0 0 C2.86724686 0.57344937 3.8614515 0.8614515 6 3 C6.99 3.33 7.98 3.66 9 4 C9 5.65 9 7.3 9 9 C8.67 8.34 8.34 7.68 8 7 C7.05125 7.061875 6.1025 7.12375 5.125 7.1875 C4.09375 7.125625 3.0625 7.06375 2 7 C0 4 0 4 0 0 Z " fill="#8A56EE" transform="translate(193,217)"/>
<path d="M0 0 C0.33 0 0.66 0 1 0 C0.125 7.625 0.125 7.625 -1 11 C-0.34 11 0.32 11 1 11 C0.67 12.98 0.34 14.96 0 17 C-0.99 16.67 -1.98 16.34 -3 16 C-3.32712342 9.86946489 -3.39366878 5.37330889 0 0 Z " fill="#7B59C6" transform="translate(80,179)"/>
<path d="M0 0 C2.625 0.375 2.625 0.375 5 1 C5 1.66 5 2.32 5 3 C5.99 3.33 6.98 3.66 8 4 C6.75 5.5625 6.75 5.5625 5 7 C3 6.9375 3 6.9375 1 6 C-0.75 3.9375 -0.75 3.9375 -2 2 C-1.34 1.34 -0.68 0.68 0 0 Z " fill="#A0DCC1" transform="translate(195,321)"/>
<path d="M0 0 C2.64 0.33 5.28 0.66 8 1 C7.34 2.98 6.68 4.96 6 7 C3 7 3 7 1.3125 5.75 C0 4 0 4 0 0 Z " fill="#ACE6C6" transform="translate(216,328)"/>
<path d="M0 0 C2.37160148 2.37160148 2.31983352 3.00621122 2.375 6.25 C2.29026953 11.01801445 1.05137615 13.39382819 -2 17 C-2.33 17 -2.66 17 -3 17 C-3 14.03 -3 11.06 -3 8 C-2.01 7.67 -1.02 7.34 0 7 C0 4.69 0 2.38 0 0 Z " fill="#A7DACF" transform="translate(287,284)"/>
<path d="M0 0 C0.33 0.99 0.66 1.98 1 3 C1.66 3 2.32 3 3 3 C3 3.66 3 4.32 3 5 C3.66 5.33 4.32 5.66 5 6 C-0.50808397 5.40984815 -5.64878069 4.43336231 -11 3 C-11 2.67 -11 2.34 -11 2 C-10.28972656 1.93941406 -9.57945312 1.87882812 -8.84765625 1.81640625 C-7.46900391 1.69072266 -7.46900391 1.69072266 -6.0625 1.5625 C-5.14597656 1.48128906 -4.22945312 1.40007812 -3.28515625 1.31640625 C-1.03840268 1.23955024 -1.03840268 1.23955024 0 0 Z " fill="#81B497" transform="translate(213,328)"/>
<path d="M0 0 C1.4540625 0.0309375 1.4540625 0.0309375 2.9375 0.0625 C4 1.875 4 1.875 4.9375 4.0625 C4.6075 5.0525 4.2775 6.0425 3.9375 7.0625 C2.9475 6.0725 1.9575 5.0825 0.9375 4.0625 C-1.0425 5.0525 -1.0425 5.0525 -3.0625 6.0625 C-3.44468767 4.40635343 -3.77645102 2.73792976 -4.0625 1.0625 C-3.0625 0.0625 -3.0625 0.0625 0 0 Z " fill="#6D8685" transform="translate(284.0625,278.9375)"/>
<path d="M0 0 C5.57951246 0.35956858 10.19127181 0.87432668 15 4 C15.33 4.99 15.66 5.98 16 7 C10.53262809 5.25192871 5.24175152 3.34205919 0 1 C0 0.67 0 0.34 0 0 Z " fill="#654E9D" transform="translate(159,174)"/>
<path d="M0 0 C2.97 0.495 2.97 0.495 6 1 C6.33 3.31 6.66 5.62 7 8 C4.36 7.34 1.72 6.68 -1 6 C-0.67 5.34 -0.34 4.68 0 4 C0.66 4 1.32 4 2 4 C1.34 2.68 0.68 1.36 0 0 Z " fill="#8FC4B0" transform="translate(182,317)"/>
<path d="M0 0 C0.99 0.66 1.98 1.32 3 2 C3.66 2.33 4.32 2.66 5 3 C3.6875 5 3.6875 5 2 7 C1.01 7 0.02 7 -1 7 C-3.17032476 8.43990623 -3.17032476 8.43990623 -5 10 C-3.66511872 6.40608886 -2.03977277 3.24509304 0 0 Z " fill="#F2FCF7" transform="translate(225,328)"/>
<path d="M0 0 C1.125 2.3125 1.125 2.3125 2 5 C1.01 6.485 1.01 6.485 0 8 C-1.9375 7.1875 -1.9375 7.1875 -4 6 C-4.33 5.01 -4.66 4.02 -5 3 C-2.25 0 -2.25 0 0 0 Z " fill="#94B7BF" transform="translate(141,289)"/>
<path d="M0 0 C1.32 0.33 2.64 0.66 4 1 C4 1.66 4 2.32 4 3 C3.34 3 2.68 3 2 3 C2.350625 3.721875 2.70125 4.44375 3.0625 5.1875 C4.10409017 8.3122705 3.89096572 9.88161996 3 13 C2.34 12.67 1.68 12.34 1 12 C0.5859375 9.27734375 0.5859375 9.27734375 0.375 5.9375 C0.30023438 4.83277344 0.22546875 3.72804687 0.1484375 2.58984375 C0.09945312 1.73519531 0.05046875 0.88054687 0 0 Z " fill="#9AA7D8" transform="translate(156,249)"/>
<path d="M0 0 C0.433125 0.9590625 0.433125 0.9590625 0.875 1.9375 C1.82823451 4.15206079 1.82823451 4.15206079 4 5 C3.67 6.65 3.34 8.3 3 10 C2.01 10 1.02 10 0 10 C-0.66 7.69 -1.32 5.38 -2 3 C-1.34 3 -0.68 3 0 3 C0 2.01 0 1.02 0 0 Z " fill="#95A2CC" transform="translate(108,259)"/>
<path d="M0 0 C3.97497544 3.40712181 5.86793788 7.32760855 8 12 C7.01 12.33 6.02 12.66 5 13 C5 11.68 5 10.36 5 9 C4.34 9 3.68 9 3 9 C0 2.25 0 2.25 0 0 Z " fill="#6E7599" transform="translate(186,242)"/>
<path d="M0 0 C0.33 0 0.66 0 1 0 C1 3.63 1 7.26 1 11 C-3 9 -3 9 -4 6 C-3.67 5.34 -3.34 4.68 -3 4 C-2.34 4 -1.68 4 -1 4 C-0.67 2.68 -0.34 1.36 0 0 Z " fill="#8F8AC5" transform="translate(236,209)"/>
<path d="M0 0 C0.66 0 1.32 0 2 0 C1.45912682 3.78611227 -0.11722332 5.55400767 -3 8 C-3.66 8 -4.32 8 -5 8 C-4.67 6.02 -4.34 4.04 -4 2 C-2.68 2 -1.36 2 0 2 C0 1.34 0 0.68 0 0 Z " fill="#87B89C" transform="translate(281,320)"/>
<path d="M0 0 C1.65 1.65 3.3 3.3 5 5 C4.360625 5.103125 3.72125 5.20625 3.0625 5.3125 C2.381875 5.539375 1.70125 5.76625 1 6 C0.67 6.99 0.34 7.98 0 9 C-0.99 8.67 -1.98 8.34 -3 8 C-2.505 7.05125 -2.01 6.1025 -1.5 5.125 C0.14424369 2.27721834 0.14424369 2.27721834 0 0 Z " fill="#6F8895" transform="translate(136,284)"/>
<path d="M0 0 C0.33 0 0.66 0 1 0 C1 2.64 1 5.28 1 8 C-0.48199902 7.55090939 -1.96055236 7.09043436 -3.4375 6.625 C-4.26121094 6.36976563 -5.08492187 6.11453125 -5.93359375 5.8515625 C-8 5 -8 5 -9 3 C-6.36 3 -3.72 3 -1 3 C-1.33 3.66 -1.66 4.32 -2 5 C-1.34 5.33 -0.68 5.66 0 6 C0 4.02 0 2.04 0 0 Z " fill="#678D7E" transform="translate(171,270)"/>
<path d="M0 0 C2.97 0.495 2.97 0.495 6 1 C5.67 2.65 5.34 4.3 5 6 C3.35 6.33 1.7 6.66 0 7 C0.185625 6.21625 0.37125 5.4325 0.5625 4.625 C1.25962266 2.02910225 1.25962266 2.02910225 0 0 Z " fill="#9DB5DB" transform="translate(185,252)"/>
<path d="M0 0 C-0.25 1.875 -0.25 1.875 -1 4 C-3.0625 5.25 -3.0625 5.25 -5 6 C-5.33 4.02 -5.66 2.04 -6 0 C-3.50907189 -1.24546405 -2.58919267 -0.7767578 0 0 Z " fill="#A0D1C7" transform="translate(167,306)"/>
<path d="M0 0 C1.31225809 3.93677426 0.3393954 5.7794262 -0.9375 9.6875 C-1.50791016 11.45673828 -1.50791016 11.45673828 -2.08984375 13.26171875 C-2.39019531 14.16535156 -2.69054687 15.06898438 -3 16 C-3.33 16 -3.66 16 -4 16 C-4.5326514 9.741346 -2.81849506 5.54891215 0 0 Z " fill="#694BA8" transform="translate(161,218)"/>
<path d="M0 0 C0 0.66 0 1.32 0 2 C-0.99 2.495 -0.99 2.495 -2 3 C-2 3.99 -2 4.98 -2 6 C-3.32 6 -4.64 6 -6 6 C-6 5.34 -6 4.68 -6 4 C-6.66 3.67 -7.32 3.34 -8 3 C-7.67 2.34 -7.34 1.68 -7 1 C-4.61370553 0.38812962 -2.46459429 0 0 0 Z " fill="#8D70CC" transform="translate(186,175)"/>
<path d="M0 0 C1.65 0 3.3 0 5 0 C5 1.65 5 3.3 5 5 C3.35 5 1.7 5 0 5 C-0.33 4.01 -0.66 3.02 -1 2 C-0.67 1.34 -0.34 0.68 0 0 Z " fill="#865BE9" transform="translate(86,173)"/>
<path d="M0 0 C0.66 0.33 1.32 0.66 2 1 C1.67 2.98 1.34 4.96 1 7 C-0.65 7 -2.3 7 -4 7 C-4 6.01 -4 5.02 -4 4 C-3.34 4 -2.68 4 -2 4 C-1.67 3.01 -1.34 2.02 -1 1 C-0.67 0.67 -0.34 0.34 0 0 Z " fill="#A9E7CE" transform="translate(287,304)"/>
<path d="M0 0 C1.11375 0.2475 1.11375 0.2475 2.25 0.5 C5.19006578 1.11925696 5.19006578 1.11925696 9 1 C9.33 1 9.66 1 10 1 C10 2.65 10 4.3 10 6 C9.01 5.67 8.02 5.34 7 5 C7.33 4.67 7.66 4.34 8 4 C5.69 3.67 3.38 3.34 1 3 C0.67 2.01 0.34 1.02 0 0 Z " fill="#AADDD1" transform="translate(161,270)"/>
<path d="M0 0 C-1.81817001 2.31459868 -2.75615543 2.95377187 -5.69921875 3.51171875 C-6.68535156 3.56972656 -7.67148438 3.62773437 -8.6875 3.6875 C-9.68136719 3.75324219 -10.67523438 3.81898438 -11.69921875 3.88671875 C-12.45847656 3.92410156 -13.21773438 3.96148437 -14 4 C-13 2 -13 2 -9.8125 0.875 C-6.36250398 0.08319763 -3.515707 -0.1714979 0 0 Z " fill="#6442A3" transform="translate(112,162)"/>
<path d="M0 0 C0.33 0 0.66 0 1 0 C1.33 1.98 1.66 3.96 2 6 C2.99 6 3.98 6 5 6 C5 6.99 5 7.98 5 9 C3 10.6875 3 10.6875 1 12 C-0.3271261 8.0186217 -0.06915913 4.14954773 0 0 Z " fill="#B6CBD8" transform="translate(127,276)"/>
<path d="M0 0 C0.66 0 1.32 0 2 0 C2.125 5.75 2.125 5.75 1 8 C-0.32 7.67 -1.64 7.34 -3 7 C-2.01 4.69 -1.02 2.38 0 0 Z " fill="#9ECCC1" transform="translate(203,263)"/>
<path d="M0 0 C3 2 3 2 3.73046875 4.3828125 C3.88128906 5.28773438 4.03210938 6.19265625 4.1875 7.125 C4.34605469 8.03507812 4.50460938 8.94515625 4.66796875 9.8828125 C4.83232422 10.93082031 4.83232422 10.93082031 5 12 C4.34 12 3.68 12 3 12 C2.49440092 10.56445975 1.9957251 9.1264798 1.5 7.6875 C1.2215625 6.88699219 0.943125 6.08648437 0.65625 5.26171875 C0 3 0 3 0 0 Z " fill="#789295" transform="translate(157,261)"/>
<path d="M0 0 C0.33 0 0.66 0 1 0 C1.125 5.75 1.125 5.75 0 8 C-0.66 8 -1.32 8 -2 8 C-2 7.34 -2 6.68 -2 6 C-2.66 6 -3.32 6 -4 6 C-4 5.01 -4 4.02 -4 3 C-3.01 3 -2.02 3 -1 3 C-0.67 2.01 -0.34 1.02 0 0 Z " fill="#A2C4D2" transform="translate(206,254)"/>
<path d="M0 0 C1.5 1.375 1.5 1.375 3 3 C3 3.66 3 4.32 3 5 C3.66 5 4.32 5 5 5 C5 5.66 5 6.32 5 7 C3.35 7 1.7 7 0 7 C-0.38133299 5.0085944 -0.71325582 3.00720923 -1 1 C-0.67 0.67 -0.34 0.34 0 0 Z " fill="#787EA3" transform="translate(102,249)"/>
<path d="M0 0 C1.9375 0.6875 1.9375 0.6875 4 2 C4.75 4.625 4.75 4.625 5 7 C4.34 7 3.68 7 3 7 C3 6.01 3 5.02 3 4 C1.02 4.33 -0.96 4.66 -3 5 C-2.67 4.01 -2.34 3.02 -2 2 C-1.34 2 -0.68 2 0 2 C0 1.34 0 0.68 0 0 Z " fill="#A0A3C4" transform="translate(94,248)"/>
<path d="M0 0 C0.99 0.33 1.98 0.66 3 1 C4.52160014 4.6037898 5 7.05220686 5 11 C4.34 11 3.68 11 3 11 C2.49384702 9.73160474 1.99530901 8.46016898 1.5 7.1875 C1.2215625 6.47980469 0.943125 5.77210938 0.65625 5.04296875 C0 3 0 3 0 0 Z " fill="#6850A2" transform="translate(201,218)"/>
<path d="M0 0 C1.32 0.33 2.64 0.66 4 1 C2.25 4.875 2.25 4.875 0 6 C-0.66 5.67 -1.32 5.34 -2 5 C-1.34 3.35 -0.68 1.7 0 0 Z " fill="#8C78D8" transform="translate(209,192)"/>
<path d="M0 0 C1.32 0.33 2.64 0.66 4 1 C3.34 2.98 2.68 4.96 2 7 C0.02 6.34 -1.96 5.68 -4 5 C-1 3 -1 3 1 3 C0.67 2.01 0.34 1.02 0 0 Z " fill="#8C6CCF" transform="translate(133,163)"/>
<path d="M0 0 C0.99 0.33 1.98 0.66 3 1 C3 1.99 3 2.98 3 4 C3.639375 4.268125 4.27875 4.53625 4.9375 4.8125 C7 6 7 6 8 9 C7.01 9 6.02 9 5 9 C3.61328125 7.5390625 3.61328125 7.5390625 2.3125 5.625 C1.65701172 4.68527344 1.65701172 4.68527344 0.98828125 3.7265625 C0 2 0 2 0 0 Z " fill="#6F709F" transform="translate(173,243)"/>
<path d="M0 0 C-0.33 1.32 -0.66 2.64 -1 4 C-2.65 3.67 -4.3 3.34 -6 3 C-6.33 2.01 -6.66 1.02 -7 0 C-4.3333581 -1.33332095 -2.83319697 -0.67102033 0 0 Z " fill="#907FE3" transform="translate(219,199)"/>
<path d="M0 0 C0 0.99 0 1.98 0 3 C-3.63 3.33 -7.26 3.66 -11 4 C-7.88789178 0.88789178 -4.34860953 0 0 0 Z " fill="#8BC4A0" transform="translate(266,327)"/>
<path d="M0 0 C2.31 0 4.62 0 7 0 C5.25 4.875 5.25 4.875 3 6 C2.814375 5.071875 2.814375 5.071875 2.625 4.125 C2.12802644 1.80879168 2.12802644 1.80879168 0 0 Z " fill="#7D7D7D" transform="translate(406,231)"/>
<path d="M0 0 C0.99 0 1.98 0 3 0 C3 2.31 3 4.62 3 7 C2.01 7 1.02 7 0 7 C0 4.69 0 2.38 0 0 Z " fill="#9078E7" transform="translate(78,208)"/>
<path d="M0 0 C1.32 0.33 2.64 0.66 4 1 C4 1.66 4 2.32 4 3 C4.99 3.33 5.98 3.66 7 4 C6.01 4.33 5.02 4.66 4 5 C3.67 5.66 3.34 6.32 3 7 C0 2.25 0 2.25 0 0 Z " fill="#6D62A0" transform="translate(222,200)"/>
<path d="M0 0 C0.33 0.66 0.66 1.32 1 2 C1.99 2.33 2.98 2.66 4 3 C3.67 3.99 3.34 4.98 3 6 C0.9375 6.6875 0.9375 6.6875 -1 7 C-1 4.37886292 -0.68707555 2.49064888 0 0 Z " fill="#A6D9CC" transform="translate(170,308)"/>
<path d="M0 0 C0 0.66 0 1.32 0 2 C-5.75 5 -5.75 5 -8 5 C-8 4.01 -8 3.02 -8 2 C-5.09399739 0.74335022 -3.20395416 0 0 0 Z " fill="#6C9380" transform="translate(204,271)"/>
<path d="M0 0 C3 1 3 1 4.25 2.9375 C4.4975 3.618125 4.745 4.29875 5 5 C4.67 5.66 4.34 6.32 4 7 C4.66 7.33 5.32 7.66 6 8 C5.01 8 4.02 8 3 8 C0 2.25 0 2.25 0 0 Z " fill="#6D6A9F" transform="translate(84,233)"/>
<path d="M0 0 C-0.33 0.66 -0.66 1.32 -1 2 C-3.64860427 2.59355614 -6.29197322 2.74209269 -9 3 C-5.83583464 -0.30799106 -4.50236011 -1.35070803 0 0 Z " fill="#5D3FA0" transform="translate(173,215)"/>
<path d="M0 0 C3 1 3 1 4 3 C4.66 2.67 5.32 2.34 6 2 C5.67 3.32 5.34 4.64 5 6 C2.5625 5.1875 2.5625 5.1875 0 4 C-0.33 3.01 -0.66 2.02 -1 1 C-0.67 0.67 -0.34 0.34 0 0 Z " fill="#9687E2" transform="translate(221,203)"/>
<path d="M0 0 C1.98 0.99 3.96 1.98 6 3 C2.91190305 4.76462683 1.76687864 5 -2 5 C-2 4.01 -2 3.02 -2 2 C-1.34 2 -0.68 2 0 2 C0 1.34 0 0.68 0 0 Z " fill="#6959A5" transform="translate(200,185)"/>
<path d="M0 0 C1.25 2.125 1.25 2.125 2 4 C1.29875 3.71125 0.5975 3.4225 -0.125 3.125 C-3.05452503 1.97866412 -6.00921653 0.97374346 -9 0 C-9 -0.33 -9 -0.66 -9 -1 C-5.27367653 -2.03508985 -3.20634389 -2.32183523 0 0 Z " fill="#65549D" transform="translate(190,185)"/>
<path d="M0 0 C1.46067199 0.45082469 2.91848032 0.91093537 4.375 1.375 C5.18710938 1.63023437 5.99921875 1.88546875 6.8359375 2.1484375 C9 3 9 3 11 5 C7.16865501 5.218934 4.41557141 4.80266269 1 3 C0.67 2.01 0.34 1.02 0 0 Z " fill="#57458C" transform="translate(170,171)"/>
<path d="M0 0 C3.65316671 1.24976756 4.78065836 1.67098753 7 5 C6.34 5.66 5.68 6.32 5 7 C4.01 6.67 3.02 6.34 2 6 C2 5.01 2 4.02 2 3 C1.34 2.01 0.68 1.02 0 0 Z " fill="#729593" transform="translate(149,295)"/>
<path d="M0 0 C2.375 0.625 2.375 0.625 5 2 C6.3125 5.125 6.3125 5.125 7 8 C6.34 8 5.68 8 5 8 C3.7109375 6.50390625 3.7109375 6.50390625 2.375 4.5625 C1.92898437 3.92441406 1.48296875 3.28632813 1.0234375 2.62890625 C0 1 0 1 0 0 Z " fill="#6A718F" transform="translate(101,259)"/>
<path d="M0 0 C2.97 0.495 2.97 0.495 6 1 C6 1.99 6 2.98 6 4 C5.34 4 4.68 4 4 4 C3.67 4.66 3.34 5.32 3 6 C0 2.25 0 2.25 0 0 Z " fill="#6C8095" transform="translate(179,253)"/>
<path d="M0 0 C1.32 0.33 2.64 0.66 4 1 C4.33 2.65 4.66 4.3 5 6 C4.01 5.34 3.02 4.68 2 4 C1.01 4.33 0.02 4.66 -1 5 C-1 2 -1 2 0 0 Z " fill="#766CB1" transform="translate(181,236)"/>
<path d="M0 0 C-2.97 2.475 -2.97 2.475 -6 5 C-6 3.35 -6 1.7 -6 0 C-3.50907189 -1.24546405 -2.58919267 -0.7767578 0 0 Z " fill="#6947AE" transform="translate(97,173)"/>
<path d="M0 0 C1.32 0 2.64 0 4 0 C4.66 1.65 5.32 3.3 6 5 C3.69 4.01 1.38 3.02 -1 2 C-0.67 1.34 -0.34 0.68 0 0 Z " fill="#EBFAF6" transform="translate(184,314)"/>
<path d="M0 0 C4.55384615 -0.36923077 4.55384615 -0.36923077 6.8125 1.5 C7.204375 1.995 7.59625 2.49 8 3 C7.67 3.66 7.34 4.32 7 5 C4.69 4.01 2.38 3.02 0 2 C0 1.34 0 0.68 0 0 Z " fill="#A7D6C6" transform="translate(179,314)"/>
<path d="M0 0 C1.32 0.66 2.64 1.32 4 2 C3.67 2.99 3.34 3.98 3 5 C0.9375 5.6875 0.9375 5.6875 -1 6 C-1.33 5.34 -1.66 4.68 -2 4 C-1.34 3.67 -0.68 3.34 0 3 C0 2.01 0 1.02 0 0 Z " fill="#A5D0D2" transform="translate(146,294)"/>
<path d="M0 0 C0.66 0.33 1.32 0.66 2 1 C1.67 2.32 1.34 3.64 1 5 C0.01 4.67 -0.98 4.34 -2 4 C-2.33 4.66 -2.66 5.32 -3 6 C-3 4.35 -3 2.7 -3 1 C-2.01 0.67 -1.02 0.34 0 0 Z " fill="#92C2BF" transform="translate(285,282)"/>
<path d="M0 0 C0.8353125 0.37125 0.8353125 0.37125 1.6875 0.75 C-1.125 2.8125 -1.125 2.8125 -4.3125 4.75 C-5.3025 4.42 -6.2925 4.09 -7.3125 3.75 C-2.88173077 -0.31153846 -2.88173077 -0.31153846 0 0 Z " fill="#BABABA" transform="translate(236.3125,280.25)"/>
<path d="M0 0 C0.66 0 1.32 0 2 0 C2.33 0.66 2.66 1.32 3 2 C3.66 2 4.32 2 5 2 C5 2.99 5 3.98 5 5 C3.35 5 1.7 5 0 5 C0 3.35 0 1.7 0 0 Z " fill="#9ACAB4" transform="translate(191,272)"/>
<path d="M0 0 C0.66 0.99 1.32 1.98 2 3 C1.01 3.495 1.01 3.495 0 4 C0.33 5.32 0.66 6.64 1 8 C-0.32 7.34 -1.64 6.68 -3 6 C-1.125 1.125 -1.125 1.125 0 0 Z " fill="#7E71B9" transform="translate(221,200)"/>
<path d="M0 0 C2.125 0.9375 2.125 0.9375 4 2 C2.75 3.5625 2.75 3.5625 1 5 C-1.1875 4.6875 -1.1875 4.6875 -3 4 C-2.67 3.01 -2.34 2.02 -2 1 C-1.34 0.67 -0.68 0.34 0 0 Z " fill="#ABEBCD" transform="translate(199,323)"/>
<path d="M0 0 C1 3 1 3 -0.4375 6.1875 C-1.2109375 7.5796875 -1.2109375 7.5796875 -2 9 C-2.33 9 -2.66 9 -3 9 C-3 7.02 -3 5.04 -3 3 C-2.01 2.67 -1.02 2.34 0 2 C0 1.34 0 0.68 0 0 Z " fill="#7EAB99" transform="translate(288,309)"/>
<path d="M0 0 C0.66 0.66 1.32 1.32 2 2 C1.625 4.125 1.625 4.125 1 6 C-0.65 4.68 -2.3 3.36 -4 2 C-2.68 1.34 -1.36 0.68 0 0 Z " fill="#7FAB9C" transform="translate(173,313)"/>
<path d="M0 0 C0.66 0 1.32 0 2 0 C2 2.31 2 4.62 2 7 C1.01 7.495 1.01 7.495 0 8 C-1.125 2.25 -1.125 2.25 0 0 Z " fill="#87AAA6" transform="translate(169,264)"/>
<path d="M0 0 C0.66 0 1.32 0 2 0 C2 0.66 2 1.32 2 2 C2.99 1.67 3.98 1.34 5 1 C5.33 1.99 5.66 2.98 6 4 C5.01 4 4.02 4 3 4 C2.34 4.66 1.68 5.32 1 6 C0.67 4.02 0.34 2.04 0 0 Z " fill="#83A0B3" transform="translate(183,257)"/>
<path d="M0 0 C0.99 0.66 1.98 1.32 3 2 C2.67 3.32 2.34 4.64 2 6 C1.34 6 0.68 6 0 6 C-0.66 4.68 -1.32 3.36 -2 2 C-1.34 1.34 -0.68 0.68 0 0 Z " fill="#9DA2E0" transform="translate(99,248)"/>
</svg>
