<svg width="600" height="162" viewBox="0 0 600 162" fill="none" xmlns="http://www.w3.org/2000/svg">
<path d="M178.631 79.9529C178.631 73.2601 177.606 67.6092 175.556 63C173.575 58.3909 170.808 54.8551 167.255 52.3927C163.702 49.9934 159.671 48.7937 155.162 48.7937C151.404 48.6675 148.125 49.3936 145.323 50.972C142.522 52.6137 140.097 54.8551 138.047 57.6964C136.066 60.5376 134.323 63.8208 132.82 67.546C131.386 71.2712 130.156 75.249 129.131 79.4793L124.622 96.9057C122.572 105.366 119.839 113.132 116.423 120.204C113.007 127.276 108.805 133.4 103.817 138.577C98.8296 143.755 92.9538 147.764 86.1898 150.605C79.4258 153.51 71.6711 154.994 62.9258 155.057C50.081 154.994 38.9443 151.963 29.5157 145.965C20.1555 140.03 12.879 131.443 7.68649 120.204C2.56226 109.028 0.000137329 95.5482 0.000137329 79.7634V42.6972V25.3441C0.000137329 15.0711 8.32808 6.74313 18.6011 6.74313C28.8741 6.74313 37.2021 15.0711 37.2021 25.3441V42.6972V79.2899C37.2021 86.2352 38.2952 92.265 40.4816 97.3792C42.6679 102.557 45.7083 106.566 49.6027 109.407C53.4971 112.249 57.9723 113.669 63.0282 113.669C67.7425 113.669 71.7053 112.375 74.9165 109.786C78.1277 107.261 80.8606 103.535 83.1152 98.6105C85.3699 93.7487 87.4196 87.7821 89.2643 80.7105L95.0035 59.5905C99.3078 43.2375 106.038 30.3256 115.193 20.8547C124.348 11.3838 136.681 6.67999 152.19 6.74313C164.898 6.67999 176.001 9.80537 185.497 16.1193C194.994 22.4963 202.407 31.2411 207.737 42.3536C213.066 53.466 215.73 66.0938 215.73 80.237V119.102V136.507C215.73 146.752 207.425 155.057 197.181 155.057C186.936 155.057 178.631 146.752 178.631 136.507V119.102V79.9529Z" fill="white"/>
<path d="M554.89 132.437C532.721 132.437 519.171 117.738 519.171 94.6598C519.171 71.9644 532.913 56.499 553.98 56.499C572.079 56.499 587.592 67.8467 587.592 93.6543V93.7022C587.592 97.1017 585.725 98.969 582.325 98.969H536.36C536.504 111.562 543.925 118.935 555.129 118.935C560.875 118.935 565.615 117.02 568.536 113.285C570.403 110.843 572.127 109.598 575.095 109.934L580.937 110.604C584.624 111.035 586.539 113.046 585.342 115.775C580.841 125.974 569.924 132.437 554.89 132.437ZM536.408 87.2862H570.978C570.882 77.2792 564.179 70.0013 554.219 70.0013C543.877 70.0013 536.935 77.9016 536.408 87.2862Z" fill="white"/>
<path d="M441.027 62.7235C441.027 59.324 442.895 57.4566 446.294 57.4566H452.806C456.205 57.4566 458.073 59.324 458.073 62.7235V69.6183H459.078C461.712 64.3035 467.122 56.499 480.098 56.499C497.095 56.499 510.454 69.8098 510.454 94.3246C510.454 118.552 497.478 132.294 480.146 132.294C467.505 132.294 461.807 124.777 459.078 119.414H458.36V153.313C458.36 156.713 456.493 158.58 453.093 158.58H446.294C442.895 158.58 441.027 156.713 441.027 153.313V62.7235ZM458.025 94.2288C458.025 108.497 464.249 118.073 475.31 118.073C486.753 118.073 492.786 108.018 492.786 94.2288C492.786 80.535 486.849 70.7195 475.31 70.7195C464.154 70.7195 458.025 79.9605 458.025 94.2288Z" fill="white"/>
<path d="M417.552 47.0182C411.998 47.0182 407.497 42.8047 407.497 37.6336C407.497 32.4147 411.998 28.2012 417.552 28.2012C423.058 28.2012 427.559 32.4147 427.559 37.6336C427.559 42.8047 423.058 47.0182 417.552 47.0182ZM408.838 125.734V62.723C408.838 59.3235 410.705 57.4562 414.105 57.4562H420.904C424.303 57.4562 426.17 59.3235 426.17 62.723V125.734C426.17 129.133 424.303 131.001 420.904 131.001H414.105C410.705 131.001 408.838 129.133 408.838 125.734Z" fill="white"/>
<path d="M393.98 125.734C393.98 129.133 392.113 131.001 388.713 131.001H381.914C378.515 131.001 376.647 129.133 376.647 125.734V38.2083C376.647 34.8087 378.515 32.9414 381.914 32.9414H388.713C392.113 32.9414 393.98 34.8087 393.98 38.2083V125.734Z" fill="white"/>
<path d="M350.753 59.898C347.641 59.898 346.205 58.3658 344.912 55.4451C342.374 49.8431 336.15 46.6351 327.627 46.6351C316.519 46.6351 309.911 52.0456 309.863 59.4192C309.768 67.6067 318.482 71.0062 326.526 72.9214L335.719 75.2197C350.466 78.715 364.495 86.4716 364.543 103.469C364.495 120.754 350.849 132.485 327.34 132.485C306.751 132.485 292.962 123.579 289.897 107.587C289.227 104.044 291.334 102.033 294.877 102.033H302.011C305.171 102.033 306.608 103.661 307.709 106.677C310.39 113.811 317.907 117.307 327.196 117.307C338.783 117.307 346.731 111.705 346.779 103.326C346.731 95.7126 339.741 92.4088 329.159 89.7275L318.003 86.8547C301.867 82.6891 291.86 74.5973 291.86 60.5204C291.812 43.1877 307.278 31.6006 327.866 31.6006C346.348 31.6006 359.515 40.7936 362.532 54.3438C363.298 57.8391 361.143 59.898 357.6 59.898H350.753Z" fill="white"/>
</svg>
