<?xml version="1.0" encoding="UTF-8"?>
<!DOCTYPE svg PUBLIC "-//W3C//DTD SVG 1.1//EN" "http://www.w3.org/Graphics/SVG/1.1/DTD/svg11.dtd">
<svg xmlns="http://www.w3.org/2000/svg" version="1.1" width="762px" height="379px" style="shape-rendering:geometricPrecision; text-rendering:geometricPrecision; image-rendering:optimizeQuality; fill-rule:evenodd; clip-rule:evenodd" xmlns:xlink="http://www.w3.org/1999/xlink">
<g><path style="opacity:1" fill="#fdfdfd" d="M -0.5,-0.5 C 101.5,-0.5 203.5,-0.5 305.5,-0.5C 305.196,0.14987 304.863,0.816537 304.5,1.5C 307.351,4.2038 308.851,7.53713 309,11.5C 310.135,22.8058 310.635,34.1392 310.5,45.5C 290.15,43.1109 271.15,46.9442 253.5,57C 233.595,73.056 227.095,93.556 234,118.5C 239.325,140.131 253.158,149.631 275.5,147C 288.779,143.723 297.613,135.557 302,122.5C 304.47,116.255 306.637,109.922 308.5,103.5C 309.167,117.833 309.833,132.167 310.5,146.5C 315.552,146.55 320.552,146.05 325.5,145C 330.975,144.554 331.808,142.387 328,138.5C 327.667,136.5 327.333,134.5 327,132.5C 326.5,88.1679 326.333,43.8346 326.5,-0.5C 471.5,-0.5 616.5,-0.5 761.5,-0.5C 761.5,15.1667 761.5,30.8333 761.5,46.5C 754.035,45.0595 746.702,45.2261 739.5,47C 744.192,52.6933 745.692,59.1933 744,66.5C 738.543,85.0711 731.709,103.071 723.5,120.5C 721.854,119.221 720.687,117.555 720,115.5C 712.114,97.7272 704.78,79.7272 698,61.5C 697.582,56.4645 697.582,51.4645 698,46.5C 689.245,45.3503 680.412,45.1837 671.5,46C 670.062,46.2189 668.729,46.7189 667.5,47.5C 669.771,51.2739 672.604,54.6072 676,57.5C 689.773,86.6602 702.273,116.327 713.5,146.5C 710.836,157.317 705.17,166.15 696.5,173C 689.282,177.475 684.448,175.641 682,167.5C 681.506,165.866 681.34,164.199 681.5,162.5C 681.854,158.363 681.354,154.363 680,150.5C 677.161,149.664 674.995,150.664 673.5,153.5C 669.188,157.146 665.188,161.146 661.5,165.5C 669.599,178.047 680.932,182.547 695.5,179C 705.88,172.437 713.046,163.271 717,151.5C 726.549,124.851 736.883,98.5172 748,72.5C 751.575,64.7879 756.075,57.7879 761.5,51.5C 761.5,160.5 761.5,269.5 761.5,378.5C 722.5,378.5 683.5,378.5 644.5,378.5C 658.453,371.174 662.953,359.841 658,344.5C 656.457,342.622 654.624,341.122 652.5,340C 646.833,339.333 641.167,339.333 635.5,340C 621.5,348.667 607.5,357.333 593.5,366C 586.66,370.113 579.327,372.947 571.5,374.5C 566.07,373.156 563.737,369.656 564.5,364C 564.34,359.159 566.34,355.492 570.5,353C 580.473,349.293 590.807,347.293 601.5,347C 631.355,337.487 645.521,316.987 644,285.5C 642.44,270.974 635.607,259.807 623.5,252C 632.827,251.5 642.161,251.334 651.5,251.5C 651.665,248.15 651.498,244.817 651,241.5C 650.044,240.106 648.711,239.439 647,239.5C 636.581,242.563 626.081,245.23 615.5,247.5C 584.906,239.064 561.739,248.398 546,275.5C 539.228,294.465 540.562,312.798 550,330.5C 556.581,337.542 564.415,342.709 573.5,346C 569.286,348.274 564.953,350.274 560.5,352C 548.914,359.482 547.58,368.316 556.5,378.5C 370.833,378.5 185.167,378.5 -0.5,378.5C -0.5,252.167 -0.5,125.833 -0.5,-0.5 Z"/></g>
<g><path style="opacity:1" fill="#1d1d1d" d="M 305.5,-0.5 C 312.5,-0.5 319.5,-0.5 326.5,-0.5C 326.333,43.8346 326.5,88.1679 327,132.5C 327.333,134.5 327.667,136.5 328,138.5C 331.808,142.387 330.975,144.554 325.5,145C 320.552,146.05 315.552,146.55 310.5,146.5C 310.5,132.833 310.5,119.167 310.5,105.5C 314.167,105.5 317.833,105.5 321.5,105.5C 321.5,101.5 321.5,97.5 321.5,93.5C 317.5,93.5 313.5,93.5 309.5,93.5C 309.5,89.5 309.5,85.5 309.5,81.5C 313.5,81.5 317.5,81.5 321.5,81.5C 321.5,77.5 321.5,73.5 321.5,69.5C 317.833,69.5 314.167,69.5 310.5,69.5C 310.5,65.5 310.5,61.5 310.5,57.5C 314.167,57.5 317.833,57.5 321.5,57.5C 321.5,53.5 321.5,49.5 321.5,45.5C 317.833,45.5 314.167,45.5 310.5,45.5C 310.635,34.1392 310.135,22.8058 309,11.5C 308.851,7.53713 307.351,4.2038 304.5,1.5C 304.863,0.816537 305.196,0.14987 305.5,-0.5 Z"/></g>
<g><path style="opacity:1" fill="#1c1c1c" d="M 59.5,0.5 C 100.682,-2.48775 128.182,15.5122 142,54.5C 148.391,88.6853 137.891,116.185 110.5,137C 67.4806,158.122 32.9806,148.622 7,108.5C 5.46458,104.227 4.13124,99.8938 3,95.5C -5.29707,63.151 2.8696,35.9843 27.5,14C 37.2205,6.96505 47.8872,2.46505 59.5,0.5 Z"/></g>
<g><path style="opacity:1" fill="#fdfdfd" d="M 60.5,4.5 C 73.484,3.65977 85.1506,7.15977 95.5,15C 119.057,36.9878 129.224,64.1544 126,96.5C 123.53,110.61 117.03,122.444 106.5,132C 105.552,132.483 104.552,132.649 103.5,132.5C 103.548,135.292 102.215,137.125 99.5,138C 78.6764,147.805 60.0097,144.805 43.5,129C 22.5071,105.823 14.0071,78.6561 18,47.5C 23.4289,24.2389 37.5955,9.90558 60.5,4.5 Z"/></g>
<g><path style="opacity:1" fill="#1e1e1e" d="M 352.5,9.5 C 363.398,9.60498 367.231,14.9383 364,25.5C 363.5,27.3333 362.333,28.5 360.5,29C 348.206,31.6171 343.706,26.7837 347,14.5C 348.73,12.5981 350.563,10.9314 352.5,9.5 Z"/></g>
<g><path style="opacity:1" fill="#1a1a1a" d="M 354.5,46.5 C 357.5,46.5 360.5,46.5 363.5,46.5C 363.169,72.0055 363.502,97.3388 364.5,122.5C 364.143,130.073 364.976,137.407 367,144.5C 358.892,145.815 350.725,145.815 342.5,144.5C 344.588,140.822 345.755,136.822 346,132.5C 347.934,107.494 347.934,82.4941 346,57.5C 345.184,55.3746 344.017,53.5413 342.5,52C 345.552,48.3102 349.552,46.4768 354.5,46.5 Z"/></g>
<g><path style="opacity:1" fill="#7d7d7d" d="M 354.5,46.5 C 357.625,45.5206 360.958,45.1872 364.5,45.5C 364.5,71.1667 364.5,96.8333 364.5,122.5C 363.502,97.3388 363.169,72.0055 363.5,46.5C 360.5,46.5 357.5,46.5 354.5,46.5 Z"/></g>
<g><path style="opacity:1" fill="#1c1c1c" d="M 401.5,48.5 C 401.333,59.1719 401.5,69.8385 402,80.5C 402.513,79.4734 403.013,78.4734 403.5,77.5C 406.335,63.8355 413.669,53.3355 425.5,46C 447.631,41.4652 461.464,49.9652 467,71.5C 470.562,89.665 472.896,107.998 474,126.5C 475.268,132.075 476.768,137.575 478.5,143C 478.415,144.107 478.081,145.107 477.5,146C 470.5,146.667 463.5,146.667 456.5,146C 455.484,145.481 454.818,144.647 454.5,143.5C 455.628,131.193 455.794,118.86 455,106.5C 453.906,95.1334 452.573,83.8 451,72.5C 448.992,61.1673 442.659,53.5006 432,49.5C 423.433,51.6229 417.1,56.6229 413,64.5C 403.227,87.2471 399.893,110.914 403,135.5C 403.973,138.779 405.473,141.779 407.5,144.5C 398.974,146.146 390.474,146.479 382,145.5C 385.81,116.352 386.477,87.0191 384,57.5C 383.184,55.3746 382.017,53.5413 380.5,52C 382.809,49.2188 385.809,47.5522 389.5,47C 392.706,46.7037 395.872,46.2037 399,45.5C 400.749,45.7483 401.582,46.7483 401.5,48.5 Z"/></g>
<g><path style="opacity:1" fill="#1a1a1a" d="M 162.5,47.5 C 163.5,47.5 164.5,47.5 165.5,47.5C 165.5,50.8333 165.5,54.1667 165.5,57.5C 169.5,57.5 173.5,57.5 177.5,57.5C 177.5,61.5 177.5,65.5 177.5,69.5C 173.5,69.5 169.5,69.5 165.5,69.5C 165.5,73.5 165.5,77.5 165.5,81.5C 169.5,81.5 173.5,81.5 177.5,81.5C 177.5,85.5 177.5,89.5 177.5,93.5C 178.791,93.2627 179.791,93.596 180.5,94.5C 179.556,107.822 179.389,121.155 180,134.5C 180.281,138.179 181.448,141.512 183.5,144.5C 182.975,145.192 182.308,145.692 181.5,146C 174.209,146.721 167.043,146.221 160,144.5C 161.509,114.88 161.842,85.213 161,55.5C 157.386,51.9639 157.886,49.2972 162.5,47.5 Z"/></g>
<g><path style="opacity:1" fill="#6b6b6b" d="M 401.5,48.5 C 402.167,58.1667 402.833,67.8333 403.5,77.5C 403.013,78.4734 402.513,79.4734 402,80.5C 401.5,69.8385 401.333,59.1719 401.5,48.5 Z"/></g>
<g><path style="opacity:1" fill="#1e1e1e" d="M 761.5,46.5 C 761.5,48.1667 761.5,49.8333 761.5,51.5C 756.075,57.7879 751.575,64.7879 748,72.5C 736.883,98.5172 726.549,124.851 717,151.5C 713.046,163.271 705.88,172.437 695.5,179C 680.932,182.547 669.599,178.047 661.5,165.5C 665.188,161.146 669.188,157.146 673.5,153.5C 675.833,153.5 678.167,153.5 680.5,153.5C 680.19,156.713 680.523,159.713 681.5,162.5C 681.34,164.199 681.506,165.866 682,167.5C 684.448,175.641 689.282,177.475 696.5,173C 705.17,166.15 710.836,157.317 713.5,146.5C 702.273,116.327 689.773,86.6602 676,57.5C 672.604,54.6072 669.771,51.2739 667.5,47.5C 668.729,46.7189 670.062,46.2189 671.5,46C 680.412,45.1837 689.245,45.3503 698,46.5C 697.582,51.4645 697.582,56.4645 698,61.5C 704.78,79.7272 712.114,97.7272 720,115.5C 720.687,117.555 721.854,119.221 723.5,120.5C 731.709,103.071 738.543,85.0711 744,66.5C 745.692,59.1933 744.192,52.6933 739.5,47C 746.702,45.2261 754.035,45.0595 761.5,46.5 Z"/></g>
<g><path style="opacity:1" fill="#1f1f1f" d="M 180.5,94.5 C 179.791,93.596 178.791,93.2627 177.5,93.5C 177.5,89.5 177.5,85.5 177.5,81.5C 173.5,81.5 169.5,81.5 165.5,81.5C 165.5,77.5 165.5,73.5 165.5,69.5C 169.5,69.5 173.5,69.5 177.5,69.5C 177.5,65.5 177.5,61.5 177.5,57.5C 173.5,57.5 169.5,57.5 165.5,57.5C 165.5,54.1667 165.5,50.8333 165.5,47.5C 164.5,47.5 163.5,47.5 162.5,47.5C 166.981,46.3516 171.648,46.1849 176.5,47C 177,47.5 177.5,48 178,48.5C 178.333,60.1667 178.667,71.8333 179,83.5C 180.452,75.2348 182.786,67.2348 186,59.5C 194.926,45.3073 207.092,41.8073 222.5,49C 225,51.5 227.5,54 230,56.5C 228.159,64.4945 223.992,71.1612 217.5,76.5C 215.366,69.2761 212.533,62.2761 209,55.5C 205.664,50.0327 201.498,49.1993 196.5,53C 192.472,56.8867 189.306,61.3867 187,66.5C 184.263,75.8388 182.096,85.1722 180.5,94.5 Z"/></g>
<g><path style="opacity:1" fill="#1c1c1c" d="M 611.5,49.5 C 611.333,60.8382 611.5,72.1716 612,83.5C 612.41,82.0993 612.91,80.766 613.5,79.5C 614.352,68.6352 618.352,59.1352 625.5,51C 640.4,41.832 653.067,44.1653 663.5,58C 659.716,65.0671 655.55,71.9004 651,78.5C 649.399,72.3634 647.399,66.3634 645,60.5C 643.262,56.7587 640.762,53.592 637.5,51C 632.864,50.9274 629.031,52.7608 626,56.5C 622.863,61.1082 620.53,66.1082 619,71.5C 613.773,93.2054 612.106,115.205 614,137.5C 614.536,139.869 615.703,141.869 617.5,143.5C 616.975,144.192 616.308,144.692 615.5,145C 608.5,145.667 601.5,145.667 594.5,145C 593.692,144.692 593.025,144.192 592.5,143.5C 593.758,134.898 594.591,126.231 595,117.5C 595.667,98.1667 595.667,78.8333 595,59.5C 594.941,56.1586 593.774,53.3253 591.5,51C 592.261,48.5751 593.928,47.2418 596.5,47C 601.167,46.3333 605.833,46.3333 610.5,47C 611.252,47.6708 611.586,48.5041 611.5,49.5 Z"/></g>
<g><path style="opacity:1" fill="#878787" d="M 611.5,49.5 C 612.167,59.5 612.833,69.5 613.5,79.5C 612.91,80.766 612.41,82.0993 612,83.5C 611.5,72.1716 611.333,60.8382 611.5,49.5 Z"/></g>
<g><path style="opacity:1" fill="#1e1e1e" d="M 560.5,145.5 C 560.666,137.826 560.5,130.159 560,122.5C 559.283,123.044 558.783,123.711 558.5,124.5C 552.284,141.025 540.284,148.692 522.5,147.5C 497.178,146.665 486.678,133.665 491,108.5C 491.819,103.859 493.486,99.5252 496,95.5C 500.108,90.7895 504.775,86.7895 510,83.5C 511.264,49.6003 528.097,38.1003 560.5,49C 567.262,53.0949 571.762,58.9282 574,66.5C 575.55,92.8413 577.05,119.175 578.5,145.5C 572.5,145.5 566.5,145.5 560.5,145.5 Z"/></g>
<g><path style="opacity:1" fill="#fbfbfb" d="M 536.5,81.5 C 544.167,81.5 551.833,81.5 559.5,81.5C 564.237,103.444 558.904,122.277 543.5,138C 526.974,147.824 514.808,143.991 507,126.5C 502.55,108.832 508.05,95.3316 523.5,86C 528.032,84.6782 532.365,83.1782 536.5,81.5 Z"/></g>
<g><path style="opacity:1" fill="#636363" d="M 557.5,69.5 C 558.477,72.2869 558.81,75.2869 558.5,78.5C 549.5,78.5 540.5,78.5 531.5,78.5C 539.984,77.507 548.651,77.1736 557.5,77.5C 557.5,74.8333 557.5,72.1667 557.5,69.5 Z"/></g>
<g><path style="opacity:1" fill="#a8a8a8" d="M 516.5,68.5 C 515.911,72.9707 516.577,76.9707 518.5,80.5C 517.791,81.404 516.791,81.7373 515.5,81.5C 515.182,76.9677 515.515,72.6344 516.5,68.5 Z"/></g>
<g><path style="opacity:1" fill="#fbfbfb" d="M 557.5,69.5 C 557.5,72.1667 557.5,74.8333 557.5,77.5C 548.651,77.1736 539.984,77.507 531.5,78.5C 527.167,79.1667 522.833,79.8333 518.5,80.5C 516.577,76.9707 515.911,72.9707 516.5,68.5C 519.488,57.1807 526.822,50.8473 538.5,49.5C 550.239,50.9488 556.572,57.6155 557.5,69.5 Z"/></g>
<g><path style="opacity:1" fill="#989898" d="M 310.5,105.5 C 310.5,119.167 310.5,132.833 310.5,146.5C 309.833,132.167 309.167,117.833 308.5,103.5C 308.783,102.711 309.283,102.044 310,101.5C 310.49,102.793 310.657,104.127 310.5,105.5 Z"/></g>
<g><path style="opacity:1" fill="#585858" d="M 560.5,145.5 C 559.833,138.5 559.167,131.5 558.5,124.5C 558.783,123.711 559.283,123.044 560,122.5C 560.5,130.159 560.666,137.826 560.5,145.5 Z"/></g>
<g><path style="opacity:1" fill="#1f1f1f" d="M 310.5,45.5 C 314.167,45.5 317.833,45.5 321.5,45.5C 321.5,49.5 321.5,53.5 321.5,57.5C 317.833,57.5 314.167,57.5 310.5,57.5C 310.5,61.5 310.5,65.5 310.5,69.5C 314.167,69.5 317.833,69.5 321.5,69.5C 321.5,73.5 321.5,77.5 321.5,81.5C 317.5,81.5 313.5,81.5 309.5,81.5C 309.5,85.5 309.5,89.5 309.5,93.5C 313.5,93.5 317.5,93.5 321.5,93.5C 321.5,97.5 321.5,101.5 321.5,105.5C 317.833,105.5 314.167,105.5 310.5,105.5C 310.657,104.127 310.49,102.793 310,101.5C 309.283,102.044 308.783,102.711 308.5,103.5C 306.637,109.922 304.47,116.255 302,122.5C 297.613,135.557 288.779,143.723 275.5,147C 253.158,149.631 239.325,140.131 234,118.5C 227.095,93.556 233.595,73.056 253.5,57C 271.15,46.9442 290.15,43.1109 310.5,45.5 Z"/></g>
<g><path style="opacity:1" fill="#fdfdfd" d="M 288.5,48.5 C 294.509,48.3338 300.509,48.5005 306.5,49C 307.416,49.3742 308.25,49.8742 309,50.5C 310.885,73.2098 307.885,95.2098 300,116.5C 295.871,128.294 288.038,136.46 276.5,141C 273.833,141.667 271.167,141.667 268.5,141C 258.625,135.772 252.458,127.606 250,116.5C 246.442,99.0601 249.109,82.7268 258,67.5C 266.141,57.6912 276.307,51.3578 288.5,48.5 Z"/></g>
<g><path style="opacity:1" fill="#373737" d="M 681.5,162.5 C 680.523,159.713 680.19,156.713 680.5,153.5C 678.167,153.5 675.833,153.5 673.5,153.5C 674.995,150.664 677.161,149.664 680,150.5C 681.354,154.363 681.854,158.363 681.5,162.5 Z"/></g>
<g><path style="opacity:1" fill="#1c1c1c" d="M 393.5,248.5 C 393.5,260.167 393.5,271.833 393.5,283.5C 389.971,285.423 385.971,286.089 381.5,285.5C 381.5,289.5 381.5,293.5 381.5,297.5C 385.5,297.5 389.5,297.5 393.5,297.5C 393.5,301.5 393.5,305.5 393.5,309.5C 389.5,309.5 385.5,309.5 381.5,309.5C 381.5,313.5 381.5,317.5 381.5,321.5C 385.5,321.5 389.5,321.5 393.5,321.5C 393.5,325.5 393.5,329.5 393.5,333.5C 389.5,333.5 385.5,333.5 381.5,333.5C 381.5,337.5 381.5,341.5 381.5,345.5C 379.473,345.662 377.473,345.495 375.5,345C 374.978,344.439 374.645,343.772 374.5,343C 376.057,339.004 376.891,334.838 377,330.5C 377.667,305.833 377.667,281.167 377,256.5C 372.797,249.484 374.964,245.984 383.5,246C 386.5,245.333 389.5,245.333 392.5,246C 393.252,246.671 393.586,247.504 393.5,248.5 Z"/></g>
<g><path style="opacity:1" fill="#646464" d="M 393.5,248.5 C 394.167,259.167 394.833,269.833 395.5,280.5C 395.573,282.027 394.906,283.027 393.5,283.5C 393.5,271.833 393.5,260.167 393.5,248.5 Z"/></g>
<g><path style="opacity:1" fill="#1c1c1c" d="M 65.5,199.5 C 85.3425,196.963 104.009,200.463 121.5,210C 125.274,212.102 127.941,215.102 129.5,219C 127.852,226.77 125.519,234.27 122.5,241.5C 116.381,234.21 110.048,227.044 103.5,220C 75.8863,197.015 51.3863,199.848 30,228.5C 18.433,250.953 17.433,273.953 27,297.5C 42.2762,332.388 68.4429,345.221 105.5,336C 115.345,332.168 123.511,326.001 130,317.5C 133.268,312.616 136.768,307.949 140.5,303.5C 141.248,307.071 140.415,310.405 138,313.5C 118.035,343.818 90.2018,354.318 54.5,345C 17.3027,329.122 0.802675,300.955 5,260.5C 10.8623,234.292 26.0289,215.459 50.5,204C 55.5351,202.151 60.5351,200.651 65.5,199.5 Z"/></g>
<g><path style="opacity:1" fill="#1e1e1e" d="M 482.5,244.5 C 492.282,244.113 501.616,245.946 510.5,250C 519.654,256.475 523.821,265.308 523,276.5C 523.275,299.558 524.442,322.558 526.5,345.5C 521.156,345.666 515.823,345.499 510.5,345C 509.692,344.692 509.025,344.192 508.5,343.5C 507.706,337.217 507.206,330.884 507,324.5C 497.815,343.509 482.648,351.009 461.5,347C 445.166,343.664 437.499,333.664 438.5,317C 438.139,301.893 444.639,290.727 458,283.5C 459.232,278.279 459.899,272.946 460,267.5C 463.042,255.293 470.542,247.626 482.5,244.5 Z"/></g>
<g><path style="opacity:1" fill="#fbfbfb" d="M 480.5,249.5 C 493.107,247.542 501.273,252.542 505,264.5C 505.499,268.821 505.666,273.154 505.5,277.5C 491.711,277.233 478.044,278.233 464.5,280.5C 462.05,265.996 467.383,255.662 480.5,249.5 Z"/></g>
<g><path style="opacity:1" fill="#fdfdfd" d="M 487.5,280.5 C 494.283,279.937 500.783,280.937 507,283.5C 511.367,305.391 505.534,323.891 489.5,339C 472.502,346.912 461.002,342.078 455,324.5C 451.459,310.125 455.292,298.292 466.5,289C 473.446,285.698 480.446,282.865 487.5,280.5 Z"/></g>
<g><path style="opacity:1" fill="#1e1e1e" d="M 705.5,245.5 C 722.346,244.055 736.512,249.389 748,261.5C 752.324,267.131 753.991,273.464 753,280.5C 750.595,281.274 748.095,281.774 745.5,282C 754.768,292.488 757.935,304.655 755,318.5C 751.167,333 742,342.167 727.5,346C 717.833,346.667 708.167,346.667 698.5,346C 678.599,342.429 666.099,330.929 661,311.5C 655.018,275.336 669.851,253.336 705.5,245.5 Z"/></g>
<g><path style="opacity:1" fill="#fdfdfd" d="M 677.5,279.5 C 695.487,280.217 713.487,280.717 731.5,281C 747.953,286.73 754.453,298.23 751,315.5C 743.424,335.384 728.924,343.55 707.5,340C 698.295,337.649 691.128,332.482 686,324.5C 676.973,310.61 674.14,295.61 677.5,279.5 Z"/></g>
<g><path style="opacity:1" fill="#f9f9f9" d="M 704.5,249.5 C 715.99,249.712 725.156,254.379 732,263.5C 733.667,266.167 735.333,268.833 737,271.5C 737.749,272.635 737.583,273.635 736.5,274.5C 727.712,275.153 718.879,275.487 710,275.5C 700.43,275.627 690.93,275.127 681.5,274C 680.643,273.311 679.977,272.478 679.5,271.5C 684.477,260.203 692.811,252.87 704.5,249.5 Z"/></g>
<g><path style="opacity:1" fill="#1d1d1d" d="M 256.5,285.5 C 258.993,314.002 246.993,333.835 220.5,345C 199.68,351.557 181.18,347.724 165,333.5C 155.473,320.382 152.139,305.716 155,289.5C 159.808,268.354 172.641,254.521 193.5,248C 208.542,244.896 222.875,246.896 236.5,254C 247.847,261.527 254.514,272.027 256.5,285.5 Z"/></g>
<g><path style="opacity:1" fill="#161616" d="M 256.5,285.5 C 256.5,289.5 256.5,293.5 256.5,297.5C 254.167,297.5 251.833,297.5 249.5,297.5C 249.5,301.5 249.5,305.5 249.5,309.5C 246.833,309.5 244.167,309.5 241.5,309.5C 242.536,291.606 237.203,275.94 225.5,262.5C 229.298,261.517 233.298,261.183 237.5,261.5C 237.5,265.5 237.5,269.5 237.5,273.5C 241.5,273.5 245.5,273.5 249.5,273.5C 249.5,277.5 249.5,281.5 249.5,285.5C 251.833,285.5 254.167,285.5 256.5,285.5 Z"/></g>
<g><path style="opacity:1" fill="#fdfdfd" d="M 225.5,262.5 C 237.203,275.94 242.536,291.606 241.5,309.5C 238.711,331.464 226.378,342.631 204.5,343C 190.95,339.122 181.45,330.622 176,317.5C 170.605,303.768 169.105,289.602 171.5,275C 179.419,254.874 193.752,247.874 214.5,254C 218.614,256.284 222.28,259.117 225.5,262.5 Z"/></g>
<g><path style="opacity:1" fill="#666666" d="M 341.5,312.5 C 342.494,322.987 342.828,333.654 342.5,344.5C 348.167,344.5 353.833,344.5 359.5,344.5C 353.69,345.49 347.69,345.823 341.5,345.5C 341.5,334.5 341.5,323.5 341.5,312.5 Z"/></g>
<g><path style="opacity:1" fill="#1d1d1d" d="M 359.5,344.5 C 353.833,344.5 348.167,344.5 342.5,344.5C 342.828,333.654 342.494,322.987 341.5,312.5C 338.924,318.562 336.091,325.229 333,332.5C 328.208,341.482 320.708,346.316 310.5,347C 298.485,348.737 288.318,345.237 280,336.5C 277.895,332.417 276.562,328.083 276,323.5C 274.578,300.827 273.245,278.16 272,255.5C 270.647,254.315 269.48,252.981 268.5,251.5C 274.874,246.404 282.208,244.404 290.5,245.5C 290.159,271.52 290.659,297.52 292,323.5C 296.127,338.811 305.627,343.977 320.5,339C 325.414,335.079 329.247,330.246 332,324.5C 339.777,301.634 342.277,278.301 339.5,254.5C 338.675,253.614 337.675,253.281 336.5,253.5C 336.561,251.408 337.561,249.908 339.5,249C 343.714,247.391 348.047,246.224 352.5,245.5C 354.766,245.931 356.266,247.264 357,249.5C 357.978,272.491 358.644,295.491 359,318.5C 359.192,326.745 360.025,334.911 361.5,343C 361.164,344.03 360.497,344.53 359.5,344.5 Z"/></g>
<g><path style="opacity:1" fill="#1f1f1f" d="M 381.5,345.5 C 381.5,341.5 381.5,337.5 381.5,333.5C 385.5,333.5 389.5,333.5 393.5,333.5C 393.5,329.5 393.5,325.5 393.5,321.5C 389.5,321.5 385.5,321.5 381.5,321.5C 381.5,317.5 381.5,313.5 381.5,309.5C 385.5,309.5 389.5,309.5 393.5,309.5C 393.5,305.5 393.5,301.5 393.5,297.5C 389.5,297.5 385.5,297.5 381.5,297.5C 381.5,293.5 381.5,289.5 381.5,285.5C 385.971,286.089 389.971,285.423 393.5,283.5C 394.906,283.027 395.573,282.027 395.5,280.5C 396.744,267.514 402.077,256.68 411.5,248C 419.396,245.14 427.396,244.807 435.5,247C 442.298,250.102 445.131,255.268 444,262.5C 440.578,267.678 436.911,272.678 433,277.5C 431.654,272.131 429.988,266.798 428,261.5C 426.114,257.56 423.614,254.06 420.5,251C 415.388,250.394 411.221,252.227 408,256.5C 400.741,269.862 396.741,284.195 396,299.5C 395.333,312.5 395.333,325.5 396,338.5C 396.972,340.305 398.139,341.972 399.5,343.5C 399.291,344.086 398.957,344.586 398.5,345C 392.843,345.499 387.176,345.666 381.5,345.5 Z"/></g>
<g><path style="opacity:1" fill="#1e1e1e" d="M 644.5,378.5 C 640.167,378.5 635.833,378.5 631.5,378.5C 640.07,375.741 644.903,369.741 646,360.5C 646.667,356.833 646.667,353.167 646,349.5C 644.702,346.767 642.535,345.434 639.5,345.5C 634.795,345.926 630.462,347.426 626.5,350C 617.817,355.341 609.484,361.174 601.5,367.5C 604.921,371.926 608.921,375.593 613.5,378.5C 610.5,378.5 607.5,378.5 604.5,378.5C 601.8,376.954 599.967,374.621 599,371.5C 598.275,370.941 597.442,370.608 596.5,370.5C 590.712,373.729 584.712,376.396 578.5,378.5C 571.167,378.5 563.833,378.5 556.5,378.5C 547.58,368.316 548.914,359.482 560.5,352C 564.953,350.274 569.286,348.274 573.5,346C 564.415,342.709 556.581,337.542 550,330.5C 540.562,312.798 539.228,294.465 546,275.5C 561.739,248.398 584.906,239.064 615.5,247.5C 626.081,245.23 636.581,242.563 647,239.5C 648.711,239.439 650.044,240.106 651,241.5C 651.498,244.817 651.665,248.15 651.5,251.5C 642.161,251.334 632.827,251.5 623.5,252C 635.607,259.807 642.44,270.974 644,285.5C 645.521,316.987 631.355,337.487 601.5,347C 590.807,347.293 580.473,349.293 570.5,353C 566.34,355.492 564.34,359.159 564.5,364C 563.737,369.656 566.07,373.156 571.5,374.5C 579.327,372.947 586.66,370.113 593.5,366C 607.5,357.333 621.5,348.667 635.5,340C 641.167,339.333 646.833,339.333 652.5,340C 654.624,341.122 656.457,342.622 658,344.5C 662.953,359.841 658.453,371.174 644.5,378.5 Z"/></g>
<g><path style="opacity:1" fill="#fafafa" d="M 631.5,378.5 C 625.5,378.5 619.5,378.5 613.5,378.5C 608.921,375.593 604.921,371.926 601.5,367.5C 609.484,361.174 617.817,355.341 626.5,350C 630.462,347.426 634.795,345.926 639.5,345.5C 642.535,345.434 644.702,346.767 646,349.5C 646.667,353.167 646.667,356.833 646,360.5C 644.903,369.741 640.07,375.741 631.5,378.5 Z"/></g>
<g><path style="opacity:1" fill="#fcfcfc" d="M 582.5,249.5 C 602.667,249.164 616.167,258.497 623,277.5C 630.652,294.717 630.318,311.717 622,328.5C 609.491,345.33 594.657,347.83 577.5,336C 564.206,322.406 557.539,306.073 557.5,287C 557.539,268.705 565.872,256.205 582.5,249.5 Z"/></g>
<g><path style="opacity:1" fill="#f4f4f4" d="M 604.5,378.5 C 595.833,378.5 587.167,378.5 578.5,378.5C 584.712,376.396 590.712,373.729 596.5,370.5C 597.442,370.608 598.275,370.941 599,371.5C 599.967,374.621 601.8,376.954 604.5,378.5 Z"/></g>
</svg>
