<?xml version="1.0" encoding="UTF-8"?>
<!DOCTYPE svg PUBLIC "-//W3C//DTD SVG 1.1//EN" "http://www.w3.org/Graphics/SVG/1.1/DTD/svg11.dtd">
<svg xmlns="http://www.w3.org/2000/svg" version="1.1" width="357px" height="354px" style="shape-rendering:geometricPrecision; text-rendering:geometricPrecision; image-rendering:optimizeQuality; fill-rule:evenodd; clip-rule:evenodd" xmlns:xlink="http://www.w3.org/1999/xlink">
<g><path style="opacity:1" fill="#fefefe" d="M -0.5,-0.5 C 118.5,-0.5 237.5,-0.5 356.5,-0.5C 356.5,117.5 356.5,235.5 356.5,353.5C 237.5,353.5 118.5,353.5 -0.5,353.5C -0.5,235.5 -0.5,117.5 -0.5,-0.5 Z"/></g>
<g><path style="opacity:1" fill="#1e1e1e" d="M 182.5,64.5 C 185.448,64.2229 188.281,64.5562 191,65.5C 190.836,72.4764 190.669,79.4764 190.5,86.5C 187.5,86.5 184.5,86.5 181.5,86.5C 181.365,79.1375 181.698,71.8042 182.5,64.5 Z"/></g>
<g><path style="opacity:1" fill="#202020" d="M 163.5,64.5 C 169.114,63.4137 173.614,65.0803 177,69.5C 177.986,72.7417 177.152,75.4083 174.5,77.5C 176.905,79.6423 178.238,82.309 178.5,85.5C 173.494,86.3467 169.494,84.8467 166.5,81C 159.09,78.4356 156.09,80.9356 157.5,88.5C 154.5,88.5 151.5,88.5 148.5,88.5C 148.115,81.1393 147.448,73.806 146.5,66.5C 152.43,66.8718 158.097,66.2051 163.5,64.5 Z"/></g>
<g><path style="opacity:1" fill="#202020" d="M 199.5,65.5 C 208.267,67.605 216.6,70.7717 224.5,75C 228.076,79.5821 228.242,84.4154 225,89.5C 222.521,91.9168 219.521,92.9168 216,92.5C 208.575,91.6919 201.408,89.8586 194.5,87C 193.978,86.4387 193.645,85.772 193.5,85C 195.583,78.4925 197.583,71.9925 199.5,65.5 Z"/></g>
<g><path style="opacity:1" fill="#f0f0f0" d="M 156.5,70.5 C 160.167,70.5 163.833,70.5 167.5,70.5C 167.67,71.8221 167.337,72.9887 166.5,74C 163.204,74.4574 160.037,75.2907 157,76.5C 156.505,74.5273 156.338,72.5273 156.5,70.5 Z"/></g>
<g><path style="opacity:1" fill="#1f1f1f" d="M 137.5,69.5 C 139.908,70.3148 140.741,71.9814 140,74.5C 137.75,75.7079 135.583,77.0413 133.5,78.5C 135.933,83.3076 138.266,88.141 140.5,93C 138.06,94.3034 135.56,95.47 133,96.5C 129.905,92.4895 127.405,87.9895 125.5,83C 123.095,82.8516 120.761,83.3516 118.5,84.5C 115.208,83.109 114.875,81.2756 117.5,79C 124.484,76.2945 131.151,73.1278 137.5,69.5 Z"/></g>
<g><path style="opacity:1" fill="#f0f0f0" d="M 206.5,73.5 C 210.046,74.272 213.379,75.6053 216.5,77.5C 217.927,80.5328 217.594,83.3661 215.5,86C 210.888,87.1107 206.888,86.1107 203.5,83C 204.662,79.8531 205.662,76.6864 206.5,73.5 Z"/></g>
<g><path style="opacity:1" fill="#212121" d="M 235.5,79.5 C 236.552,79.3505 237.552,79.5172 238.5,80C 244.655,84.9108 250.989,89.5774 257.5,94C 256.44,95.298 255.274,96.4647 254,97.5C 249.978,94.6515 245.811,91.9848 241.5,89.5C 240.5,89.8333 239.833,90.5 239.5,91.5C 243.118,94.1211 246.451,96.9544 249.5,100C 249.387,101.28 248.72,102.113 247.5,102.5C 244.086,100.043 240.586,97.7093 237,95.5C 236.308,96.0253 235.808,96.6919 235.5,97.5C 239.209,101.373 243.376,104.706 248,107.5C 248.251,109.603 247.251,110.937 245,111.5C 237.452,107.449 230.619,102.449 224.5,96.5C 228.437,90.9469 232.104,85.2802 235.5,79.5 Z"/></g>
<g><path style="opacity:1" fill="#212121" d="M 105.5,87.5 C 108.167,87.5 110.833,87.5 113.5,87.5C 113.67,88.8221 113.337,89.9887 112.5,91C 110.277,93.2227 107.611,94.556 104.5,95C 102.384,96.1707 101.718,97.6707 102.5,99.5C 106.811,96.7613 111.311,94.4279 116,92.5C 120.126,94.1805 121.46,97.1805 120,101.5C 115.699,110.566 108.865,114.066 99.5,112C 102.398,108.388 106.065,106.055 110.5,105C 111.731,103.817 111.731,102.651 110.5,101.5C 106.722,104.474 102.555,106.807 98,108.5C 94.5029,107.516 93.0029,105.182 93.5,101.5C 93.6667,100.167 93.8333,98.8333 94,97.5C 96.9835,93.1062 100.817,89.7729 105.5,87.5 Z"/></g>
<g><path style="opacity:1" fill="#f0f0f0" d="M 165.5,106.5 C 167.857,106.337 170.19,106.503 172.5,107C 170.907,107.949 169.574,109.115 168.5,110.5C 166.606,111.048 164.94,112.048 163.5,113.5C 160.601,112.358 157.601,111.692 154.5,111.5C 153.127,111.657 151.793,111.49 150.5,111C 155.302,108.788 160.302,107.288 165.5,106.5 Z"/></g>
<g><path style="opacity:1" fill="#f8f8f8" d="M 177.5,106.5 C 182.301,106.35 186.967,107.016 191.5,108.5C 191.842,109.338 192.508,109.672 193.5,109.5C 194.473,109.987 195.473,110.487 196.5,111C 196.272,111.399 195.938,111.565 195.5,111.5C 189.318,113.394 183.152,115.394 177,117.5C 173.321,116.543 169.821,115.209 166.5,113.5C 167.193,112.482 167.859,111.482 168.5,110.5C 171.686,109.403 174.686,108.07 177.5,106.5 Z"/></g>
<g><path style="opacity:1" fill="#6d6d6d" d="M 162.5,105.5 C 163.568,104.566 164.901,104.232 166.5,104.5C 170.021,105.307 173.688,105.974 177.5,106.5C 174.686,108.07 171.686,109.403 168.5,110.5C 169.574,109.115 170.907,107.949 172.5,107C 170.19,106.503 167.857,106.337 165.5,106.5C 164.791,105.596 163.791,105.263 162.5,105.5 Z"/></g>
<g><path style="opacity:1" fill="#9f9f9f" d="M 193.5,109.5 C 192.508,109.672 191.842,109.338 191.5,108.5C 191.938,108.565 192.272,108.399 192.5,108C 190.405,107.444 190.238,106.944 192,106.5C 195.367,107.133 198.533,108.3 201.5,110C 199.069,110.252 196.735,109.752 194.5,108.5C 193.893,108.624 193.56,108.957 193.5,109.5 Z"/></g>
<g><path style="opacity:1" fill="#f8f8f8" d="M 197.5,112.5 C 198.5,112.5 199.5,112.5 200.5,112.5C 203.944,114.736 207.277,117.236 210.5,120C 207.062,121.611 204.062,123.777 201.5,126.5C 195.22,123.01 188.554,120.176 181.5,118C 186.715,115.429 192.048,113.596 197.5,112.5 Z"/></g>
<g><path style="opacity:1" fill="#4a4a4a" d="M 168.5,110.5 C 167.859,111.482 167.193,112.482 166.5,113.5C 169.821,115.209 173.321,116.543 177,117.5C 183.152,115.394 189.318,113.394 195.5,111.5C 195.842,112.338 196.508,112.672 197.5,112.5C 192.048,113.596 186.715,115.429 181.5,118C 188.554,120.176 195.22,123.01 201.5,126.5C 194.176,124 186.842,121.833 179.5,120C 186.12,124.23 192.287,129.063 198,134.5C 199.082,132.382 200.249,130.382 201.5,128.5C 201.538,131.181 200.871,133.681 199.5,136C 200.315,137.643 201.315,139.143 202.5,140.5C 199.962,140.169 198.296,138.836 197.5,136.5C 191.565,130.863 185.231,125.696 178.5,121C 177.5,120.333 176.5,120.333 175.5,121C 173.609,122.442 171.609,123.609 169.5,124.5C 170.94,122.612 172.606,120.945 174.5,119.5C 170.291,117.328 165.958,116.995 161.5,118.5C 155.216,117.134 148.883,117.467 142.5,119.5C 141.5,118.833 140.5,118.167 139.5,117.5C 139.953,116.542 140.619,115.708 141.5,115C 141.272,114.601 140.938,114.435 140.5,114.5C 141.705,113.314 143.039,113.314 144.5,114.5C 143.571,115.315 142.571,116.148 141.5,117C 148.771,116.227 156.105,115.56 163.5,115C 158.246,113.729 152.913,113.229 147.5,113.5C 149.833,112.833 152.167,112.167 154.5,111.5C 157.601,111.692 160.601,112.358 163.5,113.5C 164.94,112.048 166.606,111.048 168.5,110.5 Z"/></g>
<g><path style="opacity:1" fill="#f5f5f5" d="M 147.5,113.5 C 152.913,113.229 158.246,113.729 163.5,115C 156.105,115.56 148.771,116.227 141.5,117C 142.571,116.148 143.571,115.315 144.5,114.5C 145.391,113.89 146.391,113.557 147.5,113.5 Z"/></g>
<g><path style="opacity:1" fill="#ececec" d="M 203.5,112.5 C 208.485,113.153 212.485,115.486 215.5,119.5C 211.003,118 207.003,115.667 203.5,112.5 Z"/></g>
<g><path style="opacity:1" fill="#fbfbfb" d="M 161.5,118.5 C 157.803,123.426 155.97,129.092 156,135.5C 153.5,138 151,140.5 148.5,143C 144.548,143.912 140.881,143.245 137.5,141C 133.205,140.088 128.872,139.421 124.5,139C 123.549,138.282 123.383,137.449 124,136.5C 126.266,132.958 128.766,129.625 131.5,126.5C 133.872,122.127 137.539,119.794 142.5,119.5C 148.883,117.467 155.216,117.134 161.5,118.5 Z"/></g>
<g><path style="opacity:1" fill="#f0f0f0" d="M 169.5,124.5 C 167.251,125.08 165.585,126.413 164.5,128.5C 162.264,129.389 160.264,130.722 158.5,132.5C 158.167,132.167 157.833,131.833 157.5,131.5C 158.551,127.069 159.884,122.735 161.5,118.5C 165.958,116.995 170.291,117.328 174.5,119.5C 172.606,120.945 170.94,122.612 169.5,124.5 Z"/></g>
<g><path style="opacity:1" fill="#dadada" d="M 140.5,114.5 C 140.938,114.435 141.272,114.601 141.5,115C 140.619,115.708 139.953,116.542 139.5,117.5C 137.391,118.391 135.391,119.558 133.5,121C 132.5,121.667 131.5,121.667 130.5,121C 133.447,118.217 136.78,116.05 140.5,114.5 Z"/></g>
<g><path style="opacity:1" fill="#f4f4f4" d="M 201.5,126.5 C 201.5,127.167 201.5,127.833 201.5,128.5C 200.249,130.382 199.082,132.382 198,134.5C 192.287,129.063 186.12,124.23 179.5,120C 186.842,121.833 194.176,124 201.5,126.5 Z"/></g>
<g><path style="opacity:1" fill="#fcfcfc" d="M 197.5,136.5 C 197.5,137.833 197.5,139.167 197.5,140.5C 186.833,140.5 176.167,140.5 165.5,140.5C 162.482,140.704 159.482,141.037 156.5,141.5C 156.34,139.801 156.506,138.134 157,136.5C 159.705,133.964 162.205,131.297 164.5,128.5C 166.749,127.92 168.415,126.587 169.5,124.5C 171.609,123.609 173.609,122.442 175.5,121C 176.5,120.333 177.5,120.333 178.5,121C 185.231,125.696 191.565,130.863 197.5,136.5 Z"/></g>
<g><path style="opacity:1" fill="#ededed" d="M 216.5,121.5 C 218.703,121.604 220.703,122.27 222.5,123.5C 224.546,127.027 227.212,130.194 230.5,133C 229.892,133.87 229.059,134.37 228,134.5C 226.056,133.561 224.389,132.227 223,130.5C 220.59,127.603 218.423,124.603 216.5,121.5 Z"/></g>
<g><path style="opacity:1" fill="#e2e2e2" d="M 130.5,126.5 C 127.148,129.695 124.315,133.362 122,137.5C 121.82,135.512 121.986,133.512 122.5,131.5C 124.264,128.007 126.931,125.34 130.5,123.5C 131.087,124.233 131.087,125.233 130.5,126.5 Z"/></g>
<g><path style="opacity:1" fill="#e2e2e2" d="M 226.5,124.5 C 227.833,125.833 229.167,127.167 230.5,128.5C 230.631,129.239 230.464,129.906 230,130.5C 227.882,128.554 226.716,126.554 226.5,124.5 Z"/></g>
<g><path style="opacity:1" fill="#575757" d="M 169.5,124.5 C 168.415,126.587 166.749,127.92 164.5,128.5C 165.585,126.413 167.251,125.08 169.5,124.5 Z"/></g>
<g><path style="opacity:1" fill="#f3f3f3" d="M 201.5,128.5 C 202.833,128.5 204.167,128.5 205.5,128.5C 210.961,132.123 216.294,135.956 221.5,140C 224.833,143.333 228.167,146.667 231.5,150C 226.047,148.374 220.547,146.541 215,144.5C 213.902,143.616 213.402,142.616 213.5,141.5C 209.607,143.986 205.94,143.652 202.5,140.5C 201.315,139.143 200.315,137.643 199.5,136C 200.871,133.681 201.538,131.181 201.5,128.5 Z"/></g>
<g><path style="opacity:1" fill="#d3d3d3" d="M 231.5,127.5 C 234.166,128.842 236.499,130.675 238.5,133C 236.613,133.78 234.946,133.613 233.5,132.5C 232.559,130.95 231.893,129.284 231.5,127.5 Z"/></g>
<g><path style="opacity:1" fill="#eeeeee" d="M 232.5,135.5 C 234.245,139.2 235.245,143.2 235.5,147.5C 235.565,147.938 235.399,148.272 235,148.5C 234.623,147.058 233.79,146.058 232.5,145.5C 231.453,142.404 230.12,139.404 228.5,136.5C 229.689,135.571 231.022,135.238 232.5,135.5 Z"/></g>
<g><path style="opacity:1" fill="#2d2d2d" d="M 162.5,105.5 C 163.791,105.263 164.791,105.596 165.5,106.5C 160.302,107.288 155.302,108.788 150.5,111C 151.793,111.49 153.127,111.657 154.5,111.5C 152.167,112.167 149.833,112.833 147.5,113.5C 146.391,113.557 145.391,113.89 144.5,114.5C 143.039,113.314 141.705,113.314 140.5,114.5C 136.78,116.05 133.447,118.217 130.5,121C 131.5,121.667 132.5,121.667 133.5,121C 135.391,119.558 137.391,118.391 139.5,117.5C 140.5,118.167 141.5,118.833 142.5,119.5C 137.539,119.794 133.872,122.127 131.5,126.5C 131.167,126.5 130.833,126.5 130.5,126.5C 131.087,125.233 131.087,124.233 130.5,123.5C 126.931,125.34 124.264,128.007 122.5,131.5C 122.649,130.448 122.483,129.448 122,128.5C 115.908,132.756 111.074,138.089 107.5,144.5C 107.062,144.435 106.728,144.601 106.5,145C 107.416,145.278 108.082,145.778 108.5,146.5C 102.926,151.866 100.26,158.532 100.5,166.5C 99.6981,165.048 99.1981,163.382 99,161.5C 97.6719,166.581 97.1719,171.581 97.5,176.5C 97.3359,179.187 97.5026,181.854 98,184.5C 98.1587,186.343 98.6587,187.009 99.5,186.5C 100.315,185.571 101.148,184.571 102,183.5C 102.399,183.728 102.565,184.062 102.5,184.5C 102.695,191.93 104.861,198.93 109,205.5C 109.708,204.619 110.542,203.953 111.5,203.5C 112.167,202.5 112.833,201.5 113.5,200.5C 113.5,200.833 113.5,201.167 113.5,201.5C 113.768,203.099 113.434,204.432 112.5,205.5C 112.565,205.062 112.399,204.728 112,204.5C 110.519,205.471 109.685,206.804 109.5,208.5C 109.167,208.5 108.833,208.5 108.5,208.5C 107.833,208.5 107.167,208.5 106.5,208.5C 106.047,209.458 105.381,210.292 104.5,211C 106.041,212.371 107.375,213.871 108.5,215.5C 107.391,215.443 106.391,215.11 105.5,214.5C 102.72,213.239 101.053,214.239 100.5,217.5C 100.981,220.314 102.648,221.648 105.5,221.5C 104.737,222.268 103.737,222.768 102.5,223C 102.728,223.399 103.062,223.565 103.5,223.5C 105.483,228.133 107.983,232.466 111,236.5C 111.464,235.906 111.631,235.239 111.5,234.5C 111.833,234.5 112.167,234.5 112.5,234.5C 111.908,237.631 112.908,239.964 115.5,241.5C 116.5,242.167 117.5,242.833 118.5,243.5C 118.062,243.435 117.728,243.601 117.5,244C 119.095,246.102 121.095,247.602 123.5,248.5C 123.938,249.506 124.604,249.506 125.5,248.5C 126.402,250.341 127.736,251.674 129.5,252.5C 129.427,254.027 130.094,255.027 131.5,255.5C 134.533,259.516 138.533,261.682 143.5,262C 139.929,259.579 136.262,257.413 132.5,255.5C 132.833,254.5 133.5,253.833 134.5,253.5C 136.32,255.461 138.32,255.794 140.5,254.5C 140.833,254.5 141.167,254.5 141.5,254.5C 142.167,254.833 142.833,255.167 143.5,255.5C 143.5,256.167 143.5,256.833 143.5,257.5C 141.863,256.782 140.197,256.616 138.5,257C 141.72,259.437 145.053,261.603 148.5,263.5C 149.965,264.737 151.632,265.737 153.5,266.5C 155.297,267.73 157.297,268.396 159.5,268.5C 159.158,269.338 158.492,269.672 157.5,269.5C 124.383,260.216 103.549,238.882 95,205.5C 93.7829,196.541 93.2829,187.541 93.5,178.5C 95.2702,179.385 96.2702,178.552 96.5,176C 96.0556,174.238 95.5556,174.405 95,176.5C 94.5357,175.906 94.369,175.239 94.5,174.5C 102.378,136.955 125.045,113.955 162.5,105.5 Z"/></g>
<g><path style="opacity:1" fill="#f3f3f3" d="M 122.5,131.5 C 119.489,139.636 116.656,147.969 114,156.5C 109.331,160.003 105.164,164.003 101.5,168.5C 100.662,168.158 100.328,167.492 100.5,166.5C 100.26,158.532 102.926,151.866 108.5,146.5C 111.138,144.176 114.138,142.343 117.5,141C 113.906,141.291 110.573,142.458 107.5,144.5C 111.074,138.089 115.908,132.756 122,128.5C 122.483,129.448 122.649,130.448 122.5,131.5 Z"/></g>
<g><path style="opacity:1" fill="#eeeeee" d="M 252.5,153.5 C 248.824,153.492 245.824,152.159 243.5,149.5C 242.327,146.153 242.493,142.82 244,139.5C 247.598,143.695 250.431,148.362 252.5,153.5 Z"/></g>
<g><path style="opacity:1" fill="#f3f3f3" d="M 239.5,145.5 C 239.496,149.25 238.496,149.917 236.5,147.5C 235.914,141.004 236.914,140.337 239.5,145.5 Z"/></g>
<g><path style="opacity:1" fill="#616161" d="M 108.5,146.5 C 108.082,145.778 107.416,145.278 106.5,145C 106.728,144.601 107.062,144.435 107.5,144.5C 110.573,142.458 113.906,141.291 117.5,141C 114.138,142.343 111.138,144.176 108.5,146.5 Z"/></g>
<g><path style="opacity:1" fill="#f5f5f5" d="M 155.5,143.5 C 155.795,145.735 155.461,147.735 154.5,149.5C 146.213,146.238 146.547,144.238 155.5,143.5 Z"/></g>
<g><path style="opacity:1" fill="#eeeeee" d="M 202.5,143.5 C 203.756,143.461 204.756,143.961 205.5,145C 203.76,146.517 202.094,148.017 200.5,149.5C 199.539,147.735 199.205,145.735 199.5,143.5C 200.5,143.5 201.5,143.5 202.5,143.5 Z"/></g>
<g><path style="opacity:1" fill="#fbfbfb" d="M 146.5,147.5 C 144.738,148.262 143.738,149.596 143.5,151.5C 137.304,158.551 132.638,166.551 129.5,175.5C 127.993,177.289 126.66,179.289 125.5,181.5C 123.787,181.121 122.787,180.121 122.5,178.5C 120.6,170.971 119.6,163.304 119.5,155.5C 121.678,154.343 123.678,153.01 125.5,151.5C 131.855,149.659 138.189,147.659 144.5,145.5C 145.522,145.855 146.189,146.522 146.5,147.5 Z"/></g>
<g><path style="opacity:1" fill="#929292" d="M 165.5,140.5 C 165.842,141.338 166.508,141.672 167.5,141.5C 164.64,142.244 161.64,142.911 158.5,143.5C 157.526,145.743 157.192,148.076 157.5,150.5C 156.105,151.815 155.105,151.481 154.5,149.5C 155.461,147.735 155.795,145.735 155.5,143.5C 156.338,143.158 156.672,142.492 156.5,141.5C 159.482,141.037 162.482,140.704 165.5,140.5 Z"/></g>
<g><path style="opacity:1" fill="#f8f8f8" d="M 214.5,157.5 C 210.678,159.122 206.678,160.122 202.5,160.5C 201.674,156.864 201.008,153.197 200.5,149.5C 202.757,149.038 204.757,148.038 206.5,146.5C 209.421,150.019 212.087,153.686 214.5,157.5 Z"/></g>
<g><path style="opacity:1" fill="#f9f9f9" d="M 167.5,141.5 C 177.589,141.079 187.589,141.746 197.5,143.5C 198.824,146.198 198.824,148.864 197.5,151.5C 194.802,151.845 192.802,153.178 191.5,155.5C 187.608,157.062 184.275,159.395 181.5,162.5C 178.63,163.433 176.296,165.1 174.5,167.5C 172.629,167.141 171.129,166.141 170,164.5C 169.667,166.047 170.167,167.38 171.5,168.5C 169.024,171.853 169.524,172.186 173,169.5C 173.5,170 174,170.5 174.5,171C 172.934,171.608 171.6,172.442 170.5,173.5C 167.756,171.942 165.59,172.609 164,175.5C 163.722,174.584 163.222,173.918 162.5,173.5C 162.473,175.199 161.806,176.533 160.5,177.5C 155.081,179.044 150.081,181.378 145.5,184.5C 149.697,183.404 153.697,181.738 157.5,179.5C 157.833,179.667 158.167,179.833 158.5,180C 157.619,180.708 156.953,181.542 156.5,182.5C 151.895,185.436 147.895,189.102 144.5,193.5C 141.065,194.654 138.398,193.487 136.5,190C 136.833,189.667 137.167,189.333 137.5,189C 134.12,187.559 130.953,185.726 128,183.5C 128.153,180.826 128.653,178.16 129.5,175.5C 134.15,167.54 138.816,159.54 143.5,151.5C 145.262,150.738 146.262,149.404 146.5,147.5C 151.056,148.853 154.556,151.519 157,155.5C 157.333,155.167 157.667,154.833 158,154.5C 159.422,156.638 161.255,157.805 163.5,158C 160.882,155.894 158.882,153.394 157.5,150.5C 157.192,148.076 157.526,145.743 158.5,143.5C 161.64,142.911 164.64,142.244 167.5,141.5 Z"/></g>
<g><path style="opacity:1" fill="#efefef" d="M 241.5,148.5 C 242.167,148.5 242.5,148.833 242.5,149.5C 242.804,150.15 243.137,150.817 243.5,151.5C 237.773,153.252 237.106,152.252 241.5,148.5 Z"/></g>
<g><path style="opacity:1" fill="#f9f9f9" d="M 197.5,151.5 C 198.586,151.62 199.253,152.287 199.5,153.5C 200.553,156.131 201.053,158.798 201,161.5C 194.934,163.457 189.1,165.79 183.5,168.5C 181.063,168.756 178.729,169.423 176.5,170.5C 175.081,169.995 174.415,168.995 174.5,167.5C 177.37,166.567 179.704,164.9 181.5,162.5C 185.392,160.938 188.725,158.605 191.5,155.5C 193.853,154.66 195.853,153.326 197.5,151.5 Z"/></g>
<g><path style="opacity:1" fill="#5a5a5a" d="M 197.5,151.5 C 195.853,153.326 193.853,154.66 191.5,155.5C 192.802,153.178 194.802,151.845 197.5,151.5 Z"/></g>
<g><path style="opacity:1" fill="#f0f0f0" d="M 252.5,155.5 C 254.104,156.287 254.771,157.62 254.5,159.5C 253.751,160.531 253.085,161.698 252.5,163C 251.668,163.688 251.002,163.521 250.5,162.5C 249.695,160.085 248.695,157.751 247.5,155.5C 249.095,154.566 250.761,154.566 252.5,155.5 Z"/></g>
<g><path style="opacity:1" fill="#2a2a2a" d="M 166.5,104.5 C 216.945,102.464 248.445,125.798 261,174.5C 264.576,225.568 241.743,257.735 192.5,271C 181.8,271.763 171.133,271.596 160.5,270.5C 162.028,269.691 163.694,269.024 165.5,268.5C 169.764,270.291 174.098,270.625 178.5,269.5C 179.167,269.5 179.833,269.5 180.5,269.5C 188.521,270.604 196.187,269.104 203.5,265C 201.527,264.505 199.527,264.338 197.5,264.5C 197.5,264.167 197.5,263.833 197.5,263.5C 203.25,264.168 208.583,263.168 213.5,260.5C 212.15,261.65 212.316,262.317 214,262.5C 218.704,260.464 222.871,257.631 226.5,254C 225.906,253.536 225.239,253.369 224.5,253.5C 226.123,252.221 227.79,250.887 229.5,249.5C 230.608,246.941 231.941,244.608 233.5,242.5C 232.948,244.331 232.948,245.997 233.5,247.5C 240.462,243.392 245.295,237.726 248,230.5C 246.568,232.439 244.735,233.772 242.5,234.5C 241.833,234.5 241.167,234.5 240.5,234.5C 244.397,232.114 247.897,229.114 251,225.5C 253.075,221.03 254.242,216.364 254.5,211.5C 255.29,212.609 255.79,213.942 256,215.5C 257.325,211.572 257.658,207.572 257,203.5C 256.366,209.134 255.866,209.468 255.5,204.5C 255.5,203.167 255.5,201.833 255.5,200.5C 255.328,199.508 255.662,198.842 256.5,198.5C 257.561,196.963 257.894,193.963 257.5,189.5C 257.5,188.833 257.833,188.5 258.5,188.5C 258.337,190.857 258.503,193.19 259,195.5C 261,190.167 261,184.833 259,179.5C 258.51,180.793 258.343,182.127 258.5,183.5C 257.662,183.158 257.328,182.492 257.5,181.5C 257.736,178.391 257.403,175.391 256.5,172.5C 257.72,170.716 257.72,169.05 256.5,167.5C 256.784,165.585 256.451,163.919 255.5,162.5C 254.89,161.609 254.557,160.609 254.5,159.5C 254.771,157.62 254.104,156.287 252.5,155.5C 253.506,154.604 253.506,153.938 252.5,153.5C 250.431,148.362 247.598,143.695 244,139.5C 242.493,142.82 242.327,146.153 243.5,149.5C 243.167,149.5 242.833,149.5 242.5,149.5C 242.5,148.833 242.167,148.5 241.5,148.5C 241.068,147.29 240.401,146.29 239.5,145.5C 236.914,140.337 235.914,141.004 236.5,147.5C 236.167,147.5 235.833,147.5 235.5,147.5C 235.245,143.2 234.245,139.2 232.5,135.5C 230.871,133.804 231.204,132.804 233.5,132.5C 234.946,133.613 236.613,133.78 238.5,133C 236.499,130.675 234.166,128.842 231.5,127.5C 230.794,126.443 230.461,126.776 230.5,128.5C 229.167,127.167 227.833,125.833 226.5,124.5C 225.295,122.862 223.962,122.529 222.5,123.5C 220.703,122.27 218.703,121.604 216.5,121.5C 216.167,120.833 215.833,120.167 215.5,119.5C 212.485,115.486 208.485,113.153 203.5,112.5C 202.5,112.5 201.5,112.5 200.5,112.5C 199.5,112.5 198.5,112.5 197.5,112.5C 196.508,112.672 195.842,112.338 195.5,111.5C 195.938,111.565 196.272,111.399 196.5,111C 195.473,110.487 194.473,109.987 193.5,109.5C 193.56,108.957 193.893,108.624 194.5,108.5C 196.735,109.752 199.069,110.252 201.5,110C 198.533,108.3 195.367,107.133 192,106.5C 190.238,106.944 190.405,107.444 192.5,108C 192.272,108.399 191.938,108.565 191.5,108.5C 186.967,107.016 182.301,106.35 177.5,106.5C 173.688,105.974 170.021,105.307 166.5,104.5 Z"/></g>
<g><path style="opacity:1" fill="#f2f2f2" d="M 234.5,135.5 C 242.241,133.777 244.407,136.777 241,144.5C 238.812,141.433 236.645,138.433 234.5,135.5 Z"/></g>
<g><path style="opacity:1" fill="#d8d8d8" d="M 211.5,114.5 C 216.341,114.918 220.674,117.085 224.5,121C 222.831,121.122 221.165,120.788 219.5,120C 216.978,117.91 214.312,116.076 211.5,114.5 Z"/></g>
<g><path style="opacity:1" fill="#6d6d6d" d="M 119.5,155.5 C 119.6,163.304 120.6,170.971 122.5,178.5C 121.596,179.209 121.263,180.209 121.5,181.5C 118.57,180.701 115.57,180.368 112.5,180.5C 112.391,187.196 112.724,193.863 113.5,200.5C 112.833,201.5 112.167,202.5 111.5,203.5C 111.24,197.828 110.907,192.161 110.5,186.5C 111.167,183.167 111.833,179.833 112.5,176.5C 114.416,178.977 117.083,179.977 120.5,179.5C 119.669,171.934 118.336,164.601 116.5,157.5C 117.29,156.599 118.29,155.932 119.5,155.5 Z"/></g>
<g><path style="opacity:1" fill="#474747" d="M 161.5,118.5 C 159.884,122.735 158.551,127.069 157.5,131.5C 157.833,131.833 158.167,132.167 158.5,132.5C 160.264,130.722 162.264,129.389 164.5,128.5C 162.205,131.297 159.705,133.964 157,136.5C 156.506,138.134 156.34,139.801 156.5,141.5C 156.672,142.492 156.338,143.158 155.5,143.5C 146.547,144.238 146.213,146.238 154.5,149.5C 155.105,151.481 156.105,151.815 157.5,150.5C 158.882,153.394 160.882,155.894 163.5,158C 161.255,157.805 159.422,156.638 158,154.5C 157.667,154.833 157.333,155.167 157,155.5C 154.556,151.519 151.056,148.853 146.5,147.5C 146.189,146.522 145.522,145.855 144.5,145.5C 138.189,147.659 131.855,149.659 125.5,151.5C 123.678,153.01 121.678,154.343 119.5,155.5C 118.29,155.932 117.29,156.599 116.5,157.5C 115.883,157.611 115.383,157.944 115,158.5C 113.519,164.419 112.686,170.419 112.5,176.5C 111.833,179.833 111.167,183.167 110.5,186.5C 110.5,184.5 110.5,182.5 110.5,180.5C 110.5,179.833 110.5,179.167 110.5,178.5C 110.978,173.484 111.645,168.484 112.5,163.5C 112.167,162.5 111.833,161.5 111.5,160.5C 108.147,163.522 104.813,166.522 101.5,169.5C 101.5,169.167 101.5,168.833 101.5,168.5C 105.164,164.003 109.331,160.003 114,156.5C 116.656,147.969 119.489,139.636 122.5,131.5C 121.986,133.512 121.82,135.512 122,137.5C 124.315,133.362 127.148,129.695 130.5,126.5C 130.833,126.5 131.167,126.5 131.5,126.5C 128.766,129.625 126.266,132.958 124,136.5C 123.383,137.449 123.549,138.282 124.5,139C 128.872,139.421 133.205,140.088 137.5,141C 140.881,143.245 144.548,143.912 148.5,143C 151,140.5 153.5,138 156,135.5C 155.97,129.092 157.803,123.426 161.5,118.5 Z"/></g>
<g><path style="opacity:1" fill="#626262" d="M 146.5,147.5 C 146.262,149.404 145.262,150.738 143.5,151.5C 143.738,149.596 144.738,148.262 146.5,147.5 Z"/></g>
<g><path style="opacity:1" fill="#f8f8f8" d="M 125.5,151.5 C 123.418,151.472 121.584,152.139 120,153.5C 117.348,143.155 121.182,138.989 131.5,141C 134.72,141.716 137.72,142.883 140.5,144.5C 135.152,146.273 130.152,148.607 125.5,151.5 Z"/></g>
<g><path style="opacity:1" fill="#f7f7f7" d="M 154.5,138.5 C 156.017,141.495 155.017,142.661 151.5,142C 152.71,140.961 153.71,139.794 154.5,138.5 Z"/></g>
<g><path style="opacity:1" fill="#f9f9f9" d="M 116.5,157.5 C 118.336,164.601 119.669,171.934 120.5,179.5C 117.083,179.977 114.416,178.977 112.5,176.5C 112.686,170.419 113.519,164.419 115,158.5C 115.383,157.944 115.883,157.611 116.5,157.5 Z"/></g>
<g><path style="opacity:1" fill="#505050" d="M 200.5,112.5 C 201.5,112.5 202.5,112.5 203.5,112.5C 207.003,115.667 211.003,118 215.5,119.5C 215.833,120.167 216.167,120.833 216.5,121.5C 218.423,124.603 220.59,127.603 223,130.5C 224.389,132.227 226.056,133.561 228,134.5C 229.059,134.37 229.892,133.87 230.5,133C 227.212,130.194 224.546,127.027 222.5,123.5C 223.962,122.529 225.295,122.862 226.5,124.5C 226.716,126.554 227.882,128.554 230,130.5C 230.464,129.906 230.631,129.239 230.5,128.5C 230.461,126.776 230.794,126.443 231.5,127.5C 231.893,129.284 232.559,130.95 233.5,132.5C 231.204,132.804 230.871,133.804 232.5,135.5C 231.022,135.238 229.689,135.571 228.5,136.5C 230.12,139.404 231.453,142.404 232.5,145.5C 233.79,146.058 234.623,147.058 235,148.5C 235.399,148.272 235.565,147.938 235.5,147.5C 235.833,147.5 236.167,147.5 236.5,147.5C 238.496,149.917 239.496,149.25 239.5,145.5C 240.401,146.29 241.068,147.29 241.5,148.5C 237.106,152.252 237.773,153.252 243.5,151.5C 243.137,150.817 242.804,150.15 242.5,149.5C 242.833,149.5 243.167,149.5 243.5,149.5C 245.824,152.159 248.824,153.492 252.5,153.5C 253.506,153.938 253.506,154.604 252.5,155.5C 250.761,154.566 249.095,154.566 247.5,155.5C 248.695,157.751 249.695,160.085 250.5,162.5C 251.002,163.521 251.668,163.688 252.5,163C 253.085,161.698 253.751,160.531 254.5,159.5C 254.557,160.609 254.89,161.609 255.5,162.5C 252.104,164.589 252.27,166.922 256,169.5C 256.464,168.906 256.631,168.239 256.5,167.5C 257.72,169.05 257.72,170.716 256.5,172.5C 255.685,171.571 254.852,170.571 254,169.5C 254.548,173.696 255.715,177.696 257.5,181.5C 257.328,182.492 257.662,183.158 258.5,183.5C 258.5,185.167 258.5,186.833 258.5,188.5C 257.833,188.5 257.5,188.833 257.5,189.5C 256.307,189.97 255.64,190.97 255.5,192.5C 255.84,194.512 256.173,196.512 256.5,198.5C 255.662,198.842 255.328,199.508 255.5,200.5C 254.683,198.031 254.183,195.365 254,192.5C 252.511,194.332 250.678,195.165 248.5,195C 251.064,193.938 252.731,192.104 253.5,189.5C 251.896,183.688 249.896,178.021 247.5,172.5C 246.675,171.614 245.675,171.281 244.5,171.5C 243.612,174.054 243.279,176.721 243.5,179.5C 243.672,180.492 243.338,181.158 242.5,181.5C 242.852,178.927 242.352,176.594 241,174.5C 232.466,179.264 229.966,186.264 233.5,195.5C 236.518,195.704 239.518,196.037 242.5,196.5C 243.167,192.167 243.833,187.833 244.5,183.5C 245.63,193.475 244.963,203.475 242.5,213.5C 242.833,214.167 243.167,214.833 243.5,215.5C 248.172,212.492 252.172,208.825 255.5,204.5C 255.866,209.468 256.366,209.134 257,203.5C 257.658,207.572 257.325,211.572 256,215.5C 255.79,213.942 255.29,212.609 254.5,211.5C 254.649,210.448 254.483,209.448 254,208.5C 250.419,212.752 246.252,216.252 241.5,219C 240.413,221.567 239.413,224.067 238.5,226.5C 237.631,224.283 237.298,221.95 237.5,219.5C 238.458,219.047 239.292,218.381 240,217.5C 241.596,210.923 242.43,204.256 242.5,197.5C 240.08,197.708 237.747,197.374 235.5,196.5C 235.167,197.167 234.833,197.833 234.5,198.5C 236.15,204.399 237.15,210.399 237.5,216.5C 236.539,218.265 236.205,220.265 236.5,222.5C 229.043,226.23 221.376,229.397 213.5,232C 219.856,234.927 226.522,236.093 233.5,235.5C 233.196,236.15 232.863,236.817 232.5,237.5C 233.782,237.088 234.782,237.754 235.5,239.5C 235.068,240.71 234.401,241.71 233.5,242.5C 233.649,241.448 233.483,240.448 233,239.5C 230.015,244.311 226.515,248.644 222.5,252.5C 225.479,247.89 228.479,243.223 231.5,238.5C 223.988,237.106 216.654,235.106 209.5,232.5C 207.645,232.34 206.312,233.007 205.5,234.5C 204.29,234.068 203.29,233.401 202.5,232.5C 204.346,232.778 205.68,232.111 206.5,230.5C 204.424,228.712 202.257,227.046 200,225.5C 199.199,228.367 199.366,231.034 200.5,233.5C 200.5,233.833 200.5,234.167 200.5,234.5C 199.167,235.833 199.167,237.167 200.5,238.5C 200.5,238.833 200.5,239.167 200.5,239.5C 199.054,245.759 197.054,251.926 194.5,258C 200.948,258.768 207.281,258.268 213.5,256.5C 216.098,257.472 216.098,258.472 213.5,259.5C 213.083,258.876 212.416,258.543 211.5,258.5C 205.521,259.631 199.521,260.631 193.5,261.5C 194.949,262.172 196.282,262.839 197.5,263.5C 197.5,263.833 197.5,264.167 197.5,264.5C 195.181,263.833 192.847,263.666 190.5,264C 187.594,266.619 184.261,268.453 180.5,269.5C 179.833,269.5 179.167,269.5 178.5,269.5C 182.469,268.173 185.802,265.84 188.5,262.5C 187.051,261.828 185.718,261.161 184.5,260.5C 185.338,260.158 185.672,259.492 185.5,258.5C 188.119,258.768 190.619,258.435 193,257.5C 195.575,253.117 196.908,248.451 197,243.5C 192.886,247.461 188.386,250.795 183.5,253.5C 188.543,249.535 193.377,245.202 198,240.5C 198.494,238.866 198.66,237.199 198.5,235.5C 190.325,235.589 182.159,235.923 174,236.5C 166.787,236.086 159.62,235.586 152.5,235C 154.5,237 156.5,239 158.5,241C 156.807,242.25 155.473,243.75 154.5,245.5C 154.67,246.822 154.337,247.989 153.5,249C 159.746,252.02 166.079,254.52 172.5,256.5C 171.833,256.5 171.5,256.833 171.5,257.5C 165.174,255.587 159.008,253.254 153,250.5C 150.771,253.364 147.937,255.364 144.5,256.5C 148.602,261.718 153.935,263.885 160.5,263C 165.038,261.988 169.371,260.488 173.5,258.5C 173.5,258.833 173.5,259.167 173.5,259.5C 169.15,262.002 164.484,264.002 159.5,265.5C 161.594,266.518 163.594,267.518 165.5,268.5C 163.694,269.024 162.028,269.691 160.5,270.5C 159.209,270.737 158.209,270.404 157.5,269.5C 158.492,269.672 159.158,269.338 159.5,268.5C 159.938,268.565 160.272,268.399 160.5,268C 159.167,267.333 157.833,266.667 156.5,266C 155.251,265.26 154.251,265.427 153.5,266.5C 151.632,265.737 149.965,264.737 148.5,263.5C 149.239,263.631 149.906,263.464 150.5,263C 147.98,261.303 145.647,259.47 143.5,257.5C 143.5,256.833 143.5,256.167 143.5,255.5C 146.514,254.307 149.181,252.474 151.5,250C 145.626,246.232 139.626,242.732 133.5,239.5C 132.062,239.719 130.729,240.219 129.5,241C 133.337,245.669 137.337,250.169 141.5,254.5C 141.167,254.5 140.833,254.5 140.5,254.5C 136.003,250.836 132.003,246.669 128.5,242C 127.207,241.51 125.873,241.343 124.5,241.5C 125.263,240.732 126.263,240.232 127.5,240C 125.171,237.174 123.504,234.008 122.5,230.5C 121.728,229.306 120.728,228.306 119.5,227.5C 120.5,226.167 121.5,224.833 122.5,223.5C 130.149,227.161 138.149,229.827 146.5,231.5C 147.167,230.833 147.833,230.167 148.5,229.5C 149.167,229.5 149.833,229.5 150.5,229.5C 150.5,229.833 150.5,230.167 150.5,230.5C 149.115,231.302 149.282,231.969 151,232.5C 152.44,233.148 153.94,233.481 155.5,233.5C 156.167,233.5 156.833,233.5 157.5,233.5C 171.107,234.691 184.773,234.691 198.5,233.5C 198.968,229.058 197.968,225.058 195.5,221.5C 196.609,221.443 197.609,221.11 198.5,220.5C 198.33,221.822 198.663,222.989 199.5,224C 202.23,226.204 205.23,227.537 208.5,228C 213.56,221.361 218.227,214.528 222.5,207.5C 224.364,202.574 226.031,197.574 227.5,192.5C 230.14,189.577 230.14,186.577 227.5,183.5C 225.925,184.456 224.258,185.123 222.5,185.5C 223.914,183.946 225.581,182.612 227.5,181.5C 225.924,179.021 224.924,176.354 224.5,173.5C 223.778,173.082 223.278,172.416 223,171.5C 220.963,173.706 218.797,175.706 216.5,177.5C 217.934,174.889 219.601,172.389 221.5,170C 220.112,166.046 218.112,162.546 215.5,159.5C 215.167,158.833 214.833,158.167 214.5,157.5C 212.087,153.686 209.421,150.019 206.5,146.5C 204.757,148.038 202.757,149.038 200.5,149.5C 202.094,148.017 203.76,146.517 205.5,145C 204.756,143.961 203.756,143.461 202.5,143.5C 202.5,142.5 202.5,141.5 202.5,140.5C 205.94,143.652 209.607,143.986 213.5,141.5C 213.402,142.616 213.902,143.616 215,144.5C 220.547,146.541 226.047,148.374 231.5,150C 228.167,146.667 224.833,143.333 221.5,140C 216.294,135.956 210.961,132.123 205.5,128.5C 204.167,128.5 202.833,128.5 201.5,128.5C 201.5,127.833 201.5,127.167 201.5,126.5C 204.062,123.777 207.062,121.611 210.5,120C 207.277,117.236 203.944,114.736 200.5,112.5 Z"/></g>
<g><path style="opacity:1" fill="#f7f7f7" d="M 232.5,159.5 C 229.161,162.173 226.161,165.173 223.5,168.5C 221.125,165.587 219.125,162.42 217.5,159C 218.949,157.883 220.616,157.216 222.5,157C 220.559,156.257 218.726,156.424 217,157.5C 213.781,153.948 210.948,150.115 208.5,146C 216.963,146.485 224.963,148.818 232.5,153C 229.639,154.246 226.639,155.246 223.5,156C 227.256,156.35 230.923,155.85 234.5,154.5C 234.833,154.667 235.167,154.833 235.5,155C 233.859,156.129 232.859,157.629 232.5,159.5 Z"/></g>
<g><path style="opacity:1" fill="#f0f0f0" d="M 240.5,155.5 C 245.299,153.451 247.465,155.117 247,160.5C 245.074,158.461 242.907,156.794 240.5,155.5 Z"/></g>
<g><path style="opacity:1" fill="#efefef" d="M 232.5,145.5 C 232.631,146.239 232.464,146.906 232,147.5C 229.116,144.315 225.949,141.482 222.5,139C 223.579,138.044 224.745,137.211 226,136.5C 228.188,139.567 230.355,142.567 232.5,145.5 Z"/></g>
<g><path style="opacity:1" fill="#f7f7f7" d="M 205.5,128.5 C 204.251,126.171 204.918,124.338 207.5,123C 209.365,121.699 211.365,121.365 213.5,122C 217.725,125.722 221.392,129.888 224.5,134.5C 223.788,136.046 222.622,137.046 221,137.5C 216.204,133.852 211.037,130.852 205.5,128.5 Z"/></g>
<g><path style="opacity:1" fill="#626262" d="M 191.5,155.5 C 188.725,158.605 185.392,160.938 181.5,162.5C 184.275,159.395 187.608,157.062 191.5,155.5 Z"/></g>
<g><path style="opacity:1" fill="#f7f7f7" d="M 224.5,173.5 C 224.343,172.127 224.51,170.793 225,169.5C 227.741,166.271 230.241,162.938 232.5,159.5C 233.458,159.047 234.292,158.381 235,157.5C 235.709,164.504 234.876,171.337 232.5,178C 231.629,179.769 230.296,180.436 228.5,180C 227.267,177.686 225.933,175.519 224.5,173.5 Z"/></g>
<g><path style="opacity:1" fill="#787878" d="M 162.5,173.5 C 159.293,168.343 157.793,162.677 158,156.5C 159.66,162.142 161.16,167.809 162.5,173.5 Z"/></g>
<g><path style="opacity:1" fill="#fafafa" d="M 215.5,159.5 C 218.112,162.546 220.112,166.046 221.5,170C 219.601,172.389 217.934,174.889 216.5,177.5C 215.292,178.234 213.959,178.567 212.5,178.5C 212.573,176.973 211.906,175.973 210.5,175.5C 210.573,173.973 209.906,172.973 208.5,172.5C 206.881,168.931 205.548,165.264 204.5,161.5C 208.167,160.833 211.833,160.167 215.5,159.5 Z"/></g>
<g><path style="opacity:1" fill="#ededed" d="M 240.5,157.5 C 243.454,159.28 246.287,161.28 249,163.5C 249.829,166.674 248.829,167.674 246,166.5C 244.144,163.444 242.311,160.444 240.5,157.5 Z"/></g>
<g><path style="opacity:1" fill="#fafafa" d="M 110.5,178.5 C 107.581,179.293 104.915,180.626 102.5,182.5C 100.193,178.383 99.8593,174.05 101.5,169.5C 104.813,166.522 108.147,163.522 111.5,160.5C 111.833,161.5 112.167,162.5 112.5,163.5C 111.645,168.484 110.978,173.484 110.5,178.5 Z"/></g>
<g><path style="opacity:1" fill="#fbfbfb" d="M 208.5,172.5 C 208.427,174.027 209.094,175.027 210.5,175.5C 210.427,177.027 211.094,178.027 212.5,178.5C 212.703,180.39 212.037,181.89 210.5,183C 211.996,183.507 213.163,183.007 214,181.5C 216.705,182.953 217.539,184.953 216.5,187.5C 210.613,190.274 204.947,193.274 199.5,196.5C 197.158,196.225 197.158,195.392 199.5,194C 196.564,194.893 194.064,196.726 192,199.5C 190.582,194.99 188.415,190.99 185.5,187.5C 184.502,183.495 182.502,180.161 179.5,177.5C 178.758,175.574 177.758,173.741 176.5,172C 179.069,171.102 181.402,169.935 183.5,168.5C 189.815,166.924 195.981,164.924 202,162.5C 203.942,166.069 206.108,169.402 208.5,172.5 Z"/></g>
<g><path style="opacity:1" fill="#f0f0f0" d="M 236.5,160.5 C 237.497,160.47 238.164,160.97 238.5,162C 239.345,165.379 240.345,168.713 241.5,172C 239.977,173.854 238.144,175.354 236,176.5C 235.831,171.172 235.998,165.838 236.5,160.5 Z"/></g>
<g><path style="opacity:1" fill="#ececec" d="M 255.5,162.5 C 256.451,163.919 256.784,165.585 256.5,167.5C 256.631,168.239 256.464,168.906 256,169.5C 252.27,166.922 252.104,164.589 255.5,162.5 Z"/></g>
<g><path style="opacity:1" fill="#e6e6e6" d="M 244.5,171.5 C 243.25,171.423 242.417,170.756 242,169.5C 239.414,160.135 240.414,159.468 245,167.5C 245.579,168.928 245.412,170.262 244.5,171.5 Z"/></g>
<g><path style="opacity:1" fill="#696969" d="M 181.5,162.5 C 179.704,164.9 177.37,166.567 174.5,167.5C 176.296,165.1 178.63,163.433 181.5,162.5 Z"/></g>
<g><path style="opacity:1" fill="#656565" d="M 197.5,136.5 C 198.296,138.836 199.962,140.169 202.5,140.5C 202.5,141.5 202.5,142.5 202.5,143.5C 201.5,143.5 200.5,143.5 199.5,143.5C 199.205,145.735 199.539,147.735 200.5,149.5C 201.008,153.197 201.674,156.864 202.5,160.5C 206.678,160.122 210.678,159.122 214.5,157.5C 214.833,158.167 215.167,158.833 215.5,159.5C 211.833,160.167 208.167,160.833 204.5,161.5C 205.548,165.264 206.881,168.931 208.5,172.5C 206.108,169.402 203.942,166.069 202,162.5C 195.981,164.924 189.815,166.924 183.5,168.5C 189.1,165.79 194.934,163.457 201,161.5C 201.053,158.798 200.553,156.131 199.5,153.5C 199.253,152.287 198.586,151.62 197.5,151.5C 198.824,148.864 198.824,146.198 197.5,143.5C 187.589,141.746 177.589,141.079 167.5,141.5C 166.508,141.672 165.842,141.338 165.5,140.5C 176.167,140.5 186.833,140.5 197.5,140.5C 197.5,139.167 197.5,137.833 197.5,136.5 Z"/></g>
<g><path style="opacity:1" fill="#5f5f5f" d="M 100.5,166.5 C 100.328,167.492 100.662,168.158 101.5,168.5C 101.5,168.833 101.5,169.167 101.5,169.5C 99.8593,174.05 100.193,178.383 102.5,182.5C 104.915,180.626 107.581,179.293 110.5,178.5C 110.5,179.167 110.5,179.833 110.5,180.5C 107.319,180.888 104.652,182.222 102.5,184.5C 102.565,184.062 102.399,183.728 102,183.5C 101.148,184.571 100.315,185.571 99.5,186.5C 99.6641,183.813 99.4974,181.146 99,178.5C 98.7216,177.584 98.2216,176.918 97.5,176.5C 97.1719,171.581 97.6719,166.581 99,161.5C 99.1981,163.382 99.6981,165.048 100.5,166.5 Z"/></g>
<g><path style="opacity:1" fill="#eeeeee" d="M 249.5,167.5 C 250.497,167.47 251.164,167.97 251.5,169C 253.322,174.287 254.988,179.62 256.5,185C 256.138,186.225 255.638,187.391 255,188.5C 253.672,181.847 251.172,175.68 247.5,170C 248.381,169.292 249.047,168.458 249.5,167.5 Z"/></g>
<g><path style="opacity:1" fill="#5a5a5a" d="M 143.5,151.5 C 138.816,159.54 134.15,167.54 129.5,175.5C 132.638,166.551 137.304,158.551 143.5,151.5 Z"/></g>
<g><path style="opacity:1" fill="#545454" d="M 174.5,167.5 C 174.415,168.995 175.081,169.995 176.5,170.5C 178.729,169.423 181.063,168.756 183.5,168.5C 181.402,169.935 179.069,171.102 176.5,172C 177.758,173.741 178.758,175.574 179.5,177.5C 177.612,176.06 175.945,174.394 174.5,172.5C 173.264,173.246 171.93,173.579 170.5,173.5C 171.6,172.442 172.934,171.608 174.5,171C 174,170.5 173.5,170 173,169.5C 169.524,172.186 169.024,171.853 171.5,168.5C 170.167,167.38 169.667,166.047 170,164.5C 171.129,166.141 172.629,167.141 174.5,167.5 Z"/></g>
<g><path style="opacity:1" fill="#fafafa" d="M 224.5,173.5 C 224.924,176.354 225.924,179.021 227.5,181.5C 225.581,182.612 223.914,183.946 222.5,185.5C 219.213,184.736 216.546,182.903 214.5,180C 215.756,179.583 216.423,178.75 216.5,177.5C 218.797,175.706 220.963,173.706 223,171.5C 223.278,172.416 223.778,173.082 224.5,173.5 Z"/></g>
<g><path style="opacity:1" fill="#fafafa" d="M 179.5,177.5 C 181,181.173 183,184.506 185.5,187.5C 187.451,191.733 189.117,196.066 190.5,200.5C 186.926,201.967 183.26,202.8 179.5,203C 173.843,195.189 168.843,187.023 164.5,178.5C 164.414,177.504 164.748,176.671 165.5,176C 167.491,175.626 169.158,174.793 170.5,173.5C 171.93,173.579 173.264,173.246 174.5,172.5C 175.945,174.394 177.612,176.06 179.5,177.5 Z"/></g>
<g><path style="opacity:1" fill="#636363" d="M 208.5,172.5 C 209.906,172.973 210.573,173.973 210.5,175.5C 209.094,175.027 208.427,174.027 208.5,172.5 Z"/></g>
<g><path style="opacity:1" fill="#e5e5e5" d="M 256.5,172.5 C 257.403,175.391 257.736,178.391 257.5,181.5C 255.715,177.696 254.548,173.696 254,169.5C 254.852,170.571 255.685,171.571 256.5,172.5 Z"/></g>
<g><path style="opacity:1" fill="#353535" d="M 170.5,173.5 C 169.158,174.793 167.491,175.626 165.5,176C 164.748,176.671 164.414,177.504 164.5,178.5C 163.5,177.167 162.5,177.167 161.5,178.5C 160.833,178.5 160.5,178.167 160.5,177.5C 161.806,176.533 162.473,175.199 162.5,173.5C 163.222,173.918 163.722,174.584 164,175.5C 165.59,172.609 167.756,171.942 170.5,173.5 Z"/></g>
<g><path style="opacity:1" fill="#f9f9f9" d="M 242.5,181.5 C 242.5,186.5 242.5,191.5 242.5,196.5C 239.518,196.037 236.518,195.704 233.5,195.5C 229.966,186.264 232.466,179.264 241,174.5C 242.352,176.594 242.852,178.927 242.5,181.5 Z"/></g>
<g><path style="opacity:1" fill="#999999" d="M 94.5,174.5 C 94.369,175.239 94.5357,175.906 95,176.5C 95.5556,174.405 96.0556,174.238 96.5,176C 96.2702,178.552 95.2702,179.385 93.5,178.5C 93.2322,176.901 93.5655,175.568 94.5,174.5 Z"/></g>
<g><path style="opacity:1" fill="#6d6d6d" d="M 210.5,175.5 C 211.906,175.973 212.573,176.973 212.5,178.5C 211.094,178.027 210.427,177.027 210.5,175.5 Z"/></g>
<g><path style="opacity:1" fill="#e7e7e7" d="M 97.5,176.5 C 98.2216,176.918 98.7216,177.584 99,178.5C 99.4974,181.146 99.6641,183.813 99.5,186.5C 98.6587,187.009 98.1587,186.343 98,184.5C 97.5026,181.854 97.3359,179.187 97.5,176.5 Z"/></g>
<g><path style="opacity:1" fill="#777777" d="M 160.5,177.5 C 160.5,178.167 160.833,178.5 161.5,178.5C 160.415,180.587 158.749,181.92 156.5,182.5C 156.953,181.542 157.619,180.708 158.5,180C 158.167,179.833 157.833,179.667 157.5,179.5C 153.697,181.738 149.697,183.404 145.5,184.5C 150.081,181.378 155.081,179.044 160.5,177.5 Z"/></g>
<g><path style="opacity:1" fill="#fcfcfc" d="M 164.5,178.5 C 167.66,187.827 172.327,196.327 178.5,204C 170.238,207.755 161.738,210.921 153,213.5C 150.014,207.531 146.514,201.865 142.5,196.5C 143.193,195.482 143.859,194.482 144.5,193.5C 149.105,190.564 153.105,186.898 156.5,182.5C 158.749,181.92 160.415,180.587 161.5,178.5C 162.5,177.167 163.5,177.167 164.5,178.5 Z"/></g>
<g><path style="opacity:1" fill="#f8f8f8" d="M 121.5,181.5 C 121.989,182.995 122.655,184.329 123.5,185.5C 122.992,188.176 122.825,190.843 123,193.5C 123.893,192.289 124.726,192.289 125.5,193.5C 122.146,196.172 118.813,198.839 115.5,201.5C 114.833,201.5 114.167,201.5 113.5,201.5C 113.5,201.167 113.5,200.833 113.5,200.5C 112.724,193.863 112.391,187.196 112.5,180.5C 115.57,180.368 118.57,180.701 121.5,181.5 Z"/></g>
<g><path style="opacity:1" fill="#fafafa" d="M 110.5,180.5 C 110.5,182.5 110.5,184.5 110.5,186.5C 110.907,192.161 111.24,197.828 111.5,203.5C 110.542,203.953 109.708,204.619 109,205.5C 104.861,198.93 102.695,191.93 102.5,184.5C 104.652,182.222 107.319,180.888 110.5,180.5 Z"/></g>
<g><path style="opacity:1" fill="#6b6b6b" d="M 179.5,177.5 C 182.502,180.161 184.502,183.495 185.5,187.5C 183,184.506 181,181.173 179.5,177.5 Z"/></g>
<g><path style="opacity:1" fill="#5e5e5e" d="M 216.5,177.5 C 216.423,178.75 215.756,179.583 214.5,180C 216.546,182.903 219.213,184.736 222.5,185.5C 222.389,186.117 222.056,186.617 221.5,187C 223.763,188.617 225.763,190.45 227.5,192.5C 224.553,191.356 221.887,189.689 219.5,187.5C 213.038,191.066 206.371,194.066 199.5,196.5C 204.947,193.274 210.613,190.274 216.5,187.5C 217.539,184.953 216.705,182.953 214,181.5C 213.163,183.007 211.996,183.507 210.5,183C 212.037,181.89 212.703,180.39 212.5,178.5C 213.959,178.567 215.292,178.234 216.5,177.5 Z"/></g>
<g><path style="opacity:1" fill="#efefef" d="M 229.5,181.5 C 231.465,181.948 231.798,182.948 230.5,184.5C 229.614,183.675 229.281,182.675 229.5,181.5 Z"/></g>
<g><path style="opacity:1" fill="#d3d3d3" d="M 95.5,181.5 C 97.7737,186.323 97.9404,191.323 96,196.5C 94.2861,191.507 94.1194,186.507 95.5,181.5 Z"/></g>
<g><path style="opacity:1" fill="#a1a1a1" d="M 243.5,179.5 C 244.434,180.568 244.768,181.901 244.5,183.5C 243.833,187.833 243.167,192.167 242.5,196.5C 242.5,191.5 242.5,186.5 242.5,181.5C 243.338,181.158 243.672,180.492 243.5,179.5 Z"/></g>
<g><path style="opacity:1" fill="#f6f6f6" d="M 227.5,192.5 C 225.763,190.45 223.763,188.617 221.5,187C 222.056,186.617 222.389,186.117 222.5,185.5C 224.258,185.123 225.925,184.456 227.5,183.5C 230.14,186.577 230.14,189.577 227.5,192.5 Z"/></g>
<g><path style="opacity:1" fill="#fcfcfc" d="M 227.5,192.5 C 226.031,197.574 224.364,202.574 222.5,207.5C 218.227,214.528 213.56,221.361 208.5,228C 205.23,227.537 202.23,226.204 199.5,224C 198.663,222.989 198.33,221.822 198.5,220.5C 197.146,214.268 195.479,208.101 193.5,202C 193.833,201.167 194.167,200.333 194.5,199.5C 196.396,198.725 198.063,197.725 199.5,196.5C 206.371,194.066 213.038,191.066 219.5,187.5C 221.887,189.689 224.553,191.356 227.5,192.5 Z"/></g>
<g><path style="opacity:1" fill="#818181" d="M 207.5,184.5 C 208.239,184.369 208.906,184.536 209.5,185C 206.945,188.259 203.945,190.593 200.5,192C 203.039,189.63 205.372,187.13 207.5,184.5 Z"/></g>
<g><path style="opacity:1" fill="#ebebeb" d="M 106.5,208.5 C 105.5,208.5 104.5,208.5 103.5,208.5C 102.494,204.142 101.327,199.809 100,195.5C 99.3333,193.167 99.3333,190.833 100,188.5C 102,194.657 104.5,200.657 107.5,206.5C 107.137,207.183 106.804,207.85 106.5,208.5 Z"/></g>
<g><path style="opacity:1" fill="#bcbcbc" d="M 258.5,188.5 C 258.5,186.833 258.5,185.167 258.5,183.5C 258.343,182.127 258.51,180.793 259,179.5C 261,184.833 261,190.167 259,195.5C 258.503,193.19 258.337,190.857 258.5,188.5 Z"/></g>
<g><path style="opacity:1" fill="#d4d4d4" d="M 257.5,189.5 C 257.894,193.963 257.561,196.963 256.5,198.5C 256.173,196.512 255.84,194.512 255.5,192.5C 255.64,190.97 256.307,189.97 257.5,189.5 Z"/></g>
<g><path style="opacity:1" fill="#f6f6f6" d="M 244.5,171.5 C 245.675,171.281 246.675,171.614 247.5,172.5C 249.896,178.021 251.896,183.688 253.5,189.5C 252.731,192.104 251.064,193.938 248.5,195C 250.678,195.165 252.511,194.332 254,192.5C 254.183,195.365 254.683,198.031 255.5,200.5C 255.5,201.833 255.5,203.167 255.5,204.5C 252.172,208.825 248.172,212.492 243.5,215.5C 243.167,214.833 242.833,214.167 242.5,213.5C 244.963,203.475 245.63,193.475 244.5,183.5C 244.768,181.901 244.434,180.568 243.5,179.5C 243.279,176.721 243.612,174.054 244.5,171.5 Z"/></g>
<g><path style="opacity:1" fill="#fafafa" d="M 222.5,207.5 C 224.981,203.871 226.981,199.871 228.5,195.5C 229.651,194.269 230.817,194.269 232,195.5C 235.246,203.951 236.079,212.618 234.5,221.5C 226.643,226.233 218.309,228.899 209.5,229.5C 214.864,222.771 219.198,215.437 222.5,207.5 Z"/></g>
<g><path style="opacity:1" fill="#f8f8f8" d="M 126.5,212.5 C 124.413,213.585 123.08,215.251 122.5,217.5C 121.542,217.953 120.708,218.619 120,219.5C 119.502,216.518 119.335,213.518 119.5,210.5C 120.714,206.307 121.88,201.974 123,197.5C 124,196.833 125,196.167 126,195.5C 127.83,198.982 129.664,202.482 131.5,206C 129.21,207.777 127.543,209.944 126.5,212.5 Z"/></g>
<g><path style="opacity:1" fill="#fdfdfd" d="M 237.5,219.5 C 237.5,218.5 237.5,217.5 237.5,216.5C 237.15,210.399 236.15,204.399 234.5,198.5C 234.833,197.833 235.167,197.167 235.5,196.5C 237.747,197.374 240.08,197.708 242.5,197.5C 242.43,204.256 241.596,210.923 240,217.5C 239.292,218.381 238.458,219.047 237.5,219.5 Z"/></g>
<g><path style="opacity:1" fill="#dcdcdc" d="M 97.5,195.5 C 99.3678,198.937 100.534,202.604 101,206.5C 98.1457,203.386 96.979,199.719 97.5,195.5 Z"/></g>
<g><path style="opacity:1" fill="#f5f5f5" d="M 118.5,210.5 C 118.802,213.059 118.468,215.393 117.5,217.5C 115.502,212.226 114.835,206.893 115.5,201.5C 117.17,201.249 118.67,200.582 120,199.5C 119.584,203.102 119.084,206.768 118.5,210.5 Z"/></g>
<g><path style="opacity:1" fill="#eeeeee" d="M 112.5,205.5 C 113.803,208.376 114.303,211.376 114,214.5C 112.723,212.253 111.223,210.253 109.5,208.5C 109.685,206.804 110.519,205.471 112,204.5C 112.399,204.728 112.565,205.062 112.5,205.5 Z"/></g>
<g><path style="opacity:1" fill="#e0e0e0" d="M 97.5,204.5 C 99.4974,206.513 101.164,208.846 102.5,211.5C 101.855,212.646 101.022,213.646 100,214.5C 98.5387,211.321 97.7054,207.988 97.5,204.5 Z"/></g>
<g><path style="opacity:1" fill="#e7e7e7" d="M 106.5,208.5 C 107.167,208.5 107.833,208.5 108.5,208.5C 110.364,211.723 112.364,214.89 114.5,218C 112.463,217.517 110.463,216.684 108.5,215.5C 107.375,213.871 106.041,212.371 104.5,211C 105.381,210.292 106.047,209.458 106.5,208.5 Z"/></g>
<g><path style="opacity:1" fill="#fafafa" d="M 121.5,220.5 C 122.11,219.609 122.443,218.609 122.5,217.5C 124.587,216.415 125.92,214.749 126.5,212.5C 128.463,211.04 130.296,209.373 132,207.5C 134.041,211.084 136.208,214.584 138.5,218C 132.894,219.319 127.227,220.153 121.5,220.5 Z"/></g>
<g><path style="opacity:1" fill="#f7f7f7" d="M 254.5,211.5 C 254.242,216.364 253.075,221.03 251,225.5C 247.897,229.114 244.397,232.114 240.5,234.5C 239.5,234.5 238.5,234.5 237.5,234.5C 237.5,233.5 237.5,232.5 237.5,231.5C 237.629,229.784 237.962,228.117 238.5,226.5C 239.413,224.067 240.413,221.567 241.5,219C 246.252,216.252 250.419,212.752 254,208.5C 254.483,209.448 254.649,210.448 254.5,211.5 Z"/></g>
<g><path style="opacity:1" fill="#fafafa" d="M 195.5,221.5 C 197.968,225.058 198.968,229.058 198.5,233.5C 184.773,234.691 171.107,234.691 157.5,233.5C 155.828,230.375 156.162,227.542 158.5,225C 157.584,224.626 156.75,224.126 156,223.5C 155.166,220.828 154.332,218.161 153.5,215.5C 161.701,212.238 170.034,209.238 178.5,206.5C 179.167,206.833 179.833,207.167 180.5,207.5C 178.606,208.945 176.94,210.612 175.5,212.5C 180.769,209.078 185.936,205.411 191,201.5C 194.078,207.479 195.745,213.812 196,220.5C 192.703,218.205 189.703,215.538 187,212.5C 188.51,216.517 191.343,219.517 195.5,221.5 Z"/></g>
<g><path style="opacity:1" fill="#595959" d="M 113.5,201.5 C 114.167,201.5 114.833,201.5 115.5,201.5C 114.835,206.893 115.502,212.226 117.5,217.5C 116.711,217.783 116.044,218.283 115.5,219C 116.598,219.77 116.598,220.603 115.5,221.5C 113.02,220.088 110.687,218.422 108.5,216.5C 107.702,216.957 107.369,217.624 107.5,218.5C 106.326,217.486 105.66,216.153 105.5,214.5C 106.391,215.11 107.391,215.443 108.5,215.5C 110.463,216.684 112.463,217.517 114.5,218C 112.364,214.89 110.364,211.723 108.5,208.5C 108.833,208.5 109.167,208.5 109.5,208.5C 111.223,210.253 112.723,212.253 114,214.5C 114.303,211.376 113.803,208.376 112.5,205.5C 113.434,204.432 113.768,203.099 113.5,201.5 Z"/></g>
<g><path style="opacity:1" fill="#626262" d="M 129.5,175.5 C 128.653,178.16 128.153,180.826 128,183.5C 130.953,185.726 134.12,187.559 137.5,189C 137.167,189.333 136.833,189.667 136.5,190C 138.398,193.487 141.065,194.654 144.5,193.5C 143.859,194.482 143.193,195.482 142.5,196.5C 146.514,201.865 150.014,207.531 153,213.5C 161.738,210.921 170.238,207.755 178.5,204C 172.327,196.327 167.66,187.827 164.5,178.5C 168.843,187.023 173.843,195.189 179.5,203C 183.26,202.8 186.926,201.967 190.5,200.5C 189.117,196.066 187.451,191.733 185.5,187.5C 188.415,190.99 190.582,194.99 192,199.5C 194.064,196.726 196.564,194.893 199.5,194C 197.158,195.392 197.158,196.225 199.5,196.5C 198.063,197.725 196.396,198.725 194.5,199.5C 194.167,200.333 193.833,201.167 193.5,202C 195.479,208.101 197.146,214.268 198.5,220.5C 197.609,221.11 196.609,221.443 195.5,221.5C 191.343,219.517 188.51,216.517 187,212.5C 189.703,215.538 192.703,218.205 196,220.5C 195.745,213.812 194.078,207.479 191,201.5C 185.936,205.411 180.769,209.078 175.5,212.5C 176.94,210.612 178.606,208.945 180.5,207.5C 179.833,207.167 179.167,206.833 178.5,206.5C 170.034,209.238 161.701,212.238 153.5,215.5C 154.332,218.161 155.166,220.828 156,223.5C 156.75,224.126 157.584,224.626 158.5,225C 156.162,227.542 155.828,230.375 157.5,233.5C 156.833,233.5 156.167,233.5 155.5,233.5C 155.662,231.473 155.495,229.473 155,227.5C 153.385,228.386 151.885,229.386 150.5,230.5C 150.5,230.167 150.5,229.833 150.5,229.5C 152.344,228.244 153.677,226.577 154.5,224.5C 153.958,221.328 152.958,218.328 151.5,215.5C 147.808,216.564 144.141,217.731 140.5,219C 143.054,222.62 145.721,226.12 148.5,229.5C 147.833,230.167 147.167,230.833 146.5,231.5C 144.835,227.35 142.502,223.517 139.5,220C 133.768,220.177 128.102,221.01 122.5,222.5C 122.082,221.778 121.416,221.278 120.5,221C 120.728,220.601 121.062,220.435 121.5,220.5C 127.227,220.153 132.894,219.319 138.5,218C 136.208,214.584 134.041,211.084 132,207.5C 130.296,209.373 128.463,211.04 126.5,212.5C 127.543,209.944 129.21,207.777 131.5,206C 129.664,202.482 127.83,198.982 126,195.5C 125,196.167 124,196.833 123,197.5C 121.88,201.974 120.714,206.307 119.5,210.5C 119.167,210.5 118.833,210.5 118.5,210.5C 119.084,206.768 119.584,203.102 120,199.5C 118.67,200.582 117.17,201.249 115.5,201.5C 118.813,198.839 122.146,196.172 125.5,193.5C 124.726,192.289 123.893,192.289 123,193.5C 122.825,190.843 122.992,188.176 123.5,185.5C 122.655,184.329 121.989,182.995 121.5,181.5C 121.263,180.209 121.596,179.209 122.5,178.5C 122.787,180.121 123.787,181.121 125.5,181.5C 126.66,179.289 127.993,177.289 129.5,175.5 Z"/></g>
<g><path style="opacity:1" fill="#f8f8f8" d="M 134.5,190.5 C 136.63,192.127 138.63,193.96 140.5,196C 137.85,199.207 138.016,199.707 141,197.5C 145.387,202.441 148.887,207.941 151.5,214C 148,215.167 144.5,216.333 141,217.5C 140.228,217.355 139.561,217.022 139,216.5C 136.959,212.916 134.792,209.416 132.5,206C 135.131,204.309 134.797,203.142 131.5,202.5C 130.294,199.921 128.961,197.421 127.5,195C 129.898,193.476 132.231,191.976 134.5,190.5 Z"/></g>
<g><path style="opacity:1" fill="#707070" d="M 156.5,182.5 C 153.105,186.898 149.105,190.564 144.5,193.5C 147.895,189.102 151.895,185.436 156.5,182.5 Z"/></g>
<g><path style="opacity:1" fill="#666666" d="M 145.5,184.5 C 144.082,186.708 142.082,187.542 139.5,187C 141.407,185.878 143.407,185.045 145.5,184.5 Z"/></g>
<g><path style="opacity:1" fill="#f7f7f7" d="M 126.5,184.5 C 129.117,185.786 131.45,187.453 133.5,189.5C 131.513,191.327 129.179,192.327 126.5,192.5C 125.47,189.771 125.47,187.104 126.5,184.5 Z"/></g>
<g><path style="opacity:1" fill="#d1d1d1" d="M 123.5,185.5 C 123.202,182.664 123.869,182.164 125.5,184C 124.956,184.717 124.289,185.217 123.5,185.5 Z"/></g>
<g><path style="opacity:1" fill="#ececec" d="M 105.5,214.5 C 105.66,216.153 106.326,217.486 107.5,218.5C 107.715,220.179 107.048,221.179 105.5,221.5C 102.648,221.648 100.981,220.314 100.5,217.5C 101.053,214.239 102.72,213.239 105.5,214.5 Z"/></g>
<g><path style="opacity:1" fill="#727272" d="M 175.5,212.5 C 174.738,214.262 173.404,215.262 171.5,215.5C 172.262,213.738 173.596,212.738 175.5,212.5 Z"/></g>
<g><path style="opacity:1" fill="#7b7b7b" d="M 126.5,212.5 C 125.92,214.749 124.587,216.415 122.5,217.5C 123.08,215.251 124.413,213.585 126.5,212.5 Z"/></g>
<g><path style="opacity:1" fill="#fafafa" d="M 150.5,229.5 C 149.833,229.5 149.167,229.5 148.5,229.5C 145.721,226.12 143.054,222.62 140.5,219C 144.141,217.731 147.808,216.564 151.5,215.5C 152.958,218.328 153.958,221.328 154.5,224.5C 153.677,226.577 152.344,228.244 150.5,229.5 Z"/></g>
<g><path style="opacity:1" fill="#767676" d="M 171.5,215.5 C 171.027,216.906 170.027,217.573 168.5,217.5C 168.973,216.094 169.973,215.427 171.5,215.5 Z"/></g>
<g><path style="opacity:1" fill="#dfdfdf" d="M 115.5,221.5 C 116.167,221.5 116.5,221.833 116.5,222.5C 114.167,222.5 111.833,222.5 109.5,222.5C 109.771,220.62 109.104,219.287 107.5,218.5C 107.369,217.624 107.702,216.957 108.5,216.5C 110.687,218.422 113.02,220.088 115.5,221.5 Z"/></g>
<g><path style="opacity:1" fill="#2d2d2d" d="M 118.5,210.5 C 118.833,210.5 119.167,210.5 119.5,210.5C 119.335,213.518 119.502,216.518 120,219.5C 120.708,218.619 121.542,217.953 122.5,217.5C 122.443,218.609 122.11,219.609 121.5,220.5C 121.062,220.435 120.728,220.601 120.5,221C 121.416,221.278 122.082,221.778 122.5,222.5C 121.167,222.833 121.167,223.167 122.5,223.5C 121.5,224.833 120.5,226.167 119.5,227.5C 120.167,231.5 120.833,235.5 121.5,239.5C 121.5,240.167 121.167,240.5 120.5,240.5C 119.075,239.078 118.075,237.411 117.5,235.5C 118.895,237.054 119.561,236.721 119.5,234.5C 118.777,232.218 118.443,229.884 118.5,227.5C 118.598,225.447 117.931,223.78 116.5,222.5C 116.5,221.833 116.167,221.5 115.5,221.5C 116.598,220.603 116.598,219.77 115.5,219C 116.044,218.283 116.711,217.783 117.5,217.5C 118.468,215.393 118.802,213.059 118.5,210.5 Z"/></g>
<g><path style="opacity:1" fill="#7b7b7b" d="M 168.5,217.5 C 167.746,219.446 166.412,220.279 164.5,220C 165.471,218.519 166.804,217.685 168.5,217.5 Z"/></g>
<g><path style="opacity:1" fill="#f7f7f7" d="M 146.5,231.5 C 138.149,229.827 130.149,227.161 122.5,223.5C 121.167,223.167 121.167,222.833 122.5,222.5C 128.102,221.01 133.768,220.177 139.5,220C 142.502,223.517 144.835,227.35 146.5,231.5 Z"/></g>
<g><path style="opacity:1" fill="#f2f2f2" d="M 103.5,223.5 C 109.286,222.528 112.286,225.028 112.5,231C 112.352,232.256 112.018,233.423 111.5,234.5C 111.631,235.239 111.464,235.906 111,236.5C 107.983,232.466 105.483,228.133 103.5,223.5 Z"/></g>
<g><path style="opacity:1" fill="#f6f6f6" d="M 236.5,222.5 C 236.282,227.038 235.282,231.371 233.5,235.5C 226.522,236.093 219.856,234.927 213.5,232C 221.376,229.397 229.043,226.23 236.5,222.5 Z"/></g>
<g><path style="opacity:1" fill="#545454" d="M 107.5,218.5 C 109.104,219.287 109.771,220.62 109.5,222.5C 111.833,222.5 114.167,222.5 116.5,222.5C 117.931,223.78 118.598,225.447 118.5,227.5C 117.5,226.167 116.5,226.167 115.5,227.5C 115.586,228.496 115.252,229.329 114.5,230C 116.16,231.488 117.16,233.321 117.5,235.5C 115.827,234.657 114.66,233.324 114,231.5C 113.768,232.737 113.268,233.737 112.5,234.5C 112.167,234.5 111.833,234.5 111.5,234.5C 112.018,233.423 112.352,232.256 112.5,231C 112.286,225.028 109.286,222.528 103.5,223.5C 103.062,223.565 102.728,223.399 102.5,223C 103.737,222.768 104.737,222.268 105.5,221.5C 107.048,221.179 107.715,220.179 107.5,218.5 Z"/></g>
<g><path style="opacity:1" fill="#f3f3f3" d="M 115.5,227.5 C 114.883,227.611 114.383,227.944 114,228.5C 109.843,223.868 110.676,222.535 116.5,224.5C 115.873,225.417 115.539,226.417 115.5,227.5 Z"/></g>
<g><path style="opacity:1" fill="#e9e9e9" d="M 118.5,227.5 C 118.443,229.884 118.777,232.218 119.5,234.5C 119.561,236.721 118.895,237.054 117.5,235.5C 117.16,233.321 116.16,231.488 114.5,230C 115.252,229.329 115.586,228.496 115.5,227.5C 116.5,226.167 117.5,226.167 118.5,227.5 Z"/></g>
<g><path style="opacity:1" fill="#f4f4f4" d="M 202.5,232.5 C 201.508,232.328 200.842,232.662 200.5,233.5C 199.366,231.034 199.199,228.367 200,225.5C 202.257,227.046 204.424,228.712 206.5,230.5C 205.68,232.111 204.346,232.778 202.5,232.5 Z"/></g>
<g><path style="opacity:1" fill="#f0f0f0" d="M 155.5,233.5 C 153.94,233.481 152.44,233.148 151,232.5C 149.282,231.969 149.115,231.302 150.5,230.5C 151.885,229.386 153.385,228.386 155,227.5C 155.495,229.473 155.662,231.473 155.5,233.5 Z"/></g>
<g><path style="opacity:1" fill="#e4e4e4" d="M 119.5,227.5 C 120.728,228.306 121.728,229.306 122.5,230.5C 123.504,234.008 125.171,237.174 127.5,240C 126.263,240.232 125.263,240.732 124.5,241.5C 123.222,241.218 122.222,240.551 121.5,239.5C 120.833,235.5 120.167,231.5 119.5,227.5 Z"/></g>
<g><path style="opacity:1" fill="#ededed" d="M 122.5,230.5 C 122.369,229.761 122.536,229.094 123,228.5C 126.405,231.784 129.905,234.95 133.5,238C 131.835,238.788 130.169,239.122 128.5,239C 126.601,236.012 124.601,233.179 122.5,230.5 Z"/></g>
<g><path style="opacity:1" fill="#ebebeb" d="M 117.5,235.5 C 118.075,237.411 119.075,239.078 120.5,240.5C 119.081,241.451 117.415,241.784 115.5,241.5C 112.908,239.964 111.908,237.631 112.5,234.5C 113.268,233.737 113.768,232.737 114,231.5C 114.66,233.324 115.827,234.657 117.5,235.5 Z"/></g>
<g><path style="opacity:1" fill="#fcfcfc" d="M 222.5,252.5 C 219.873,254.601 216.873,255.934 213.5,256.5C 207.281,258.268 200.948,258.768 194.5,258C 197.054,251.926 199.054,245.759 200.5,239.5C 202.5,238.167 204.167,236.5 205.5,234.5C 206.312,233.007 207.645,232.34 209.5,232.5C 216.654,235.106 223.988,237.106 231.5,238.5C 228.479,243.223 225.479,247.89 222.5,252.5 Z"/></g>
<g><path style="opacity:1" fill="#e5e5e5" d="M 233.5,242.5 C 234.401,241.71 235.068,240.71 235.5,239.5C 235.5,238.5 235.5,237.5 235.5,236.5C 236.791,236.737 237.791,236.404 238.5,235.5C 240.099,235.768 241.432,235.434 242.5,234.5C 244.735,233.772 246.568,232.439 248,230.5C 245.295,237.726 240.462,243.392 233.5,247.5C 232.948,245.997 232.948,244.331 233.5,242.5 Z"/></g>
<g><path style="opacity:1" fill="#f1f1f1" d="M 154.5,245.5 C 153.685,246.429 152.852,247.429 152,248.5C 141.805,242.822 132.638,235.822 124.5,227.5C 124.833,227.167 125.167,226.833 125.5,226.5C 133.509,230.114 141.842,232.614 150.5,234C 151.622,236.124 153.122,237.957 155,239.5C 155.18,241.488 155.014,243.488 154.5,245.5 Z"/></g>
<g><path style="opacity:1" fill="#898989" d="M 202.5,232.5 C 203.29,233.401 204.29,234.068 205.5,234.5C 204.167,236.5 202.5,238.167 200.5,239.5C 200.5,239.167 200.5,238.833 200.5,238.5C 201.141,237.518 201.807,236.518 202.5,235.5C 202.043,234.702 201.376,234.369 200.5,234.5C 200.5,234.167 200.5,233.833 200.5,233.5C 200.842,232.662 201.508,232.328 202.5,232.5 Z"/></g>
<g><path style="opacity:1" fill="#242424" d="M 237.5,216.5 C 237.5,217.5 237.5,218.5 237.5,219.5C 237.298,221.95 237.631,224.283 238.5,226.5C 237.962,228.117 237.629,229.784 237.5,231.5C 236.876,231.917 236.543,232.584 236.5,233.5C 236.747,234.713 237.414,235.38 238.5,235.5C 237.791,236.404 236.791,236.737 235.5,236.5C 235.5,237.5 235.5,238.5 235.5,239.5C 234.782,237.754 233.782,237.088 232.5,237.5C 232.863,236.817 233.196,236.15 233.5,235.5C 235.282,231.371 236.282,227.038 236.5,222.5C 236.205,220.265 236.539,218.265 237.5,216.5 Z"/></g>
<g><path style="opacity:1" fill="#efefef" d="M 200.5,234.5 C 201.376,234.369 202.043,234.702 202.5,235.5C 201.807,236.518 201.141,237.518 200.5,238.5C 199.167,237.167 199.167,235.833 200.5,234.5 Z"/></g>
<g><path style="opacity:1" fill="#878787" d="M 237.5,231.5 C 237.5,232.5 237.5,233.5 237.5,234.5C 238.5,234.5 239.5,234.5 240.5,234.5C 241.167,234.5 241.833,234.5 242.5,234.5C 241.432,235.434 240.099,235.768 238.5,235.5C 237.414,235.38 236.747,234.713 236.5,233.5C 236.543,232.584 236.876,231.917 237.5,231.5 Z"/></g>
<g><path style="opacity:1" fill="#f8f8f8" d="M 183.5,253.5 C 181.973,253.427 180.973,254.094 180.5,255.5C 173.194,253.224 166.861,249.224 161.5,243.5C 161.167,243.667 160.833,243.833 160.5,244C 164.953,248.721 169.953,252.721 175.5,256C 175.272,256.399 174.938,256.565 174.5,256.5C 173.833,256.5 173.167,256.5 172.5,256.5C 166.079,254.52 159.746,252.02 153.5,249C 154.337,247.989 154.67,246.822 154.5,245.5C 155.473,243.75 156.807,242.25 158.5,241C 156.5,239 154.5,237 152.5,235C 159.62,235.586 166.787,236.086 174,236.5C 182.159,235.923 190.325,235.589 198.5,235.5C 198.66,237.199 198.494,238.866 198,240.5C 193.377,245.202 188.543,249.535 183.5,253.5 Z"/></g>
<g><path style="opacity:1" fill="#f9f9f9" d="M 143.5,255.5 C 142.833,255.167 142.167,254.833 141.5,254.5C 137.337,250.169 133.337,245.669 129.5,241C 130.729,240.219 132.062,239.719 133.5,239.5C 139.626,242.732 145.626,246.232 151.5,250C 149.181,252.474 146.514,254.307 143.5,255.5 Z"/></g>
<g><path style="opacity:1" fill="#474747" d="M 121.5,239.5 C 122.222,240.551 123.222,241.218 124.5,241.5C 127.434,245.773 130.767,249.773 134.5,253.5C 133.5,253.833 132.833,254.5 132.5,255.5C 132.167,255.5 131.833,255.5 131.5,255.5C 130.094,255.027 129.427,254.027 129.5,252.5C 129.938,252.565 130.272,252.399 130.5,252C 129,250.5 127.5,249 126,247.5C 125.601,247.728 125.435,248.062 125.5,248.5C 124.604,249.506 123.938,249.506 123.5,248.5C 123.368,245.203 121.702,243.537 118.5,243.5C 117.5,242.833 116.5,242.167 115.5,241.5C 117.415,241.784 119.081,241.451 120.5,240.5C 121.167,240.5 121.5,240.167 121.5,239.5 Z"/></g>
<g><path style="opacity:1" fill="#ededed" d="M 124.5,241.5 C 125.873,241.343 127.207,241.51 128.5,242C 132.003,246.669 136.003,250.836 140.5,254.5C 138.32,255.794 136.32,255.461 134.5,253.5C 130.767,249.773 127.434,245.773 124.5,241.5 Z"/></g>
<g><path style="opacity:1" fill="#e1e1e1" d="M 118.5,243.5 C 121.702,243.537 123.368,245.203 123.5,248.5C 121.095,247.602 119.095,246.102 117.5,244C 117.728,243.601 118.062,243.435 118.5,243.5 Z"/></g>
<g><path style="opacity:1" fill="#e4e4e4" d="M 233.5,242.5 C 231.941,244.608 230.608,246.941 229.5,249.5C 227.79,250.887 226.123,252.221 224.5,253.5C 223.508,253.672 222.842,253.338 222.5,252.5C 226.515,248.644 230.015,244.311 233,239.5C 233.483,240.448 233.649,241.448 233.5,242.5 Z"/></g>
<g><path style="opacity:1" fill="#f7f7f7" d="M 185.5,258.5 C 183.708,258.634 182.042,258.301 180.5,257.5C 180.5,256.833 180.5,256.167 180.5,255.5C 182.027,255.573 183.027,254.906 183.5,253.5C 188.386,250.795 192.886,247.461 197,243.5C 196.908,248.451 195.575,253.117 193,257.5C 190.619,258.435 188.119,258.768 185.5,258.5 Z"/></g>
<g><path style="opacity:1" fill="#e0e0e0" d="M 129.5,252.5 C 127.736,251.674 126.402,250.341 125.5,248.5C 125.435,248.062 125.601,247.728 126,247.5C 127.5,249 129,250.5 130.5,252C 130.272,252.399 129.938,252.565 129.5,252.5 Z"/></g>
<g><path style="opacity:1" fill="#fafafa" d="M 171.5,257.5 C 172.492,257.328 173.158,257.662 173.5,258.5C 169.371,260.488 165.038,261.988 160.5,263C 153.935,263.885 148.602,261.718 144.5,256.5C 147.937,255.364 150.771,253.364 153,250.5C 159.008,253.254 165.174,255.587 171.5,257.5 Z"/></g>
<g><path style="opacity:1" fill="#636363" d="M 180.5,255.5 C 180.5,256.167 180.5,256.833 180.5,257.5C 178.425,257.223 176.425,256.89 174.5,256.5C 174.938,256.565 175.272,256.399 175.5,256C 169.953,252.721 164.953,248.721 160.5,244C 160.833,243.833 161.167,243.667 161.5,243.5C 166.861,249.224 173.194,253.224 180.5,255.5 Z"/></g>
<g><path style="opacity:1" fill="#595959" d="M 183.5,253.5 C 183.027,254.906 182.027,255.573 180.5,255.5C 180.973,254.094 181.973,253.427 183.5,253.5 Z"/></g>
<g><path style="opacity:1" fill="#303030" d="M 222.5,252.5 C 222.842,253.338 223.508,253.672 224.5,253.5C 221.106,256.221 217.439,258.554 213.5,260.5C 213.5,260.167 213.5,259.833 213.5,259.5C 216.098,258.472 216.098,257.472 213.5,256.5C 216.873,255.934 219.873,254.601 222.5,252.5 Z"/></g>
<g><path style="opacity:1" fill="#272727" d="M 171.5,257.5 C 171.5,256.833 171.833,256.5 172.5,256.5C 173.167,256.5 173.833,256.5 174.5,256.5C 176.425,256.89 178.425,257.223 180.5,257.5C 182.042,258.301 183.708,258.634 185.5,258.5C 185.672,259.492 185.338,260.158 184.5,260.5C 182.095,260.134 179.762,259.467 177.5,258.5C 176.151,258.846 174.817,259.179 173.5,259.5C 173.5,259.167 173.5,258.833 173.5,258.5C 173.158,257.662 172.492,257.328 171.5,257.5 Z"/></g>
<g><path style="opacity:1" fill="#d1d1d1" d="M 224.5,253.5 C 225.239,253.369 225.906,253.536 226.5,254C 222.871,257.631 218.704,260.464 214,262.5C 212.316,262.317 212.15,261.65 213.5,260.5C 217.439,258.554 221.106,256.221 224.5,253.5 Z"/></g>
<g><path style="opacity:1" fill="#d6d6d6" d="M 131.5,255.5 C 131.833,255.5 132.167,255.5 132.5,255.5C 136.262,257.413 139.929,259.579 143.5,262C 138.533,261.682 134.533,259.516 131.5,255.5 Z"/></g>
<g><path style="opacity:1" fill="#ececec" d="M 213.5,259.5 C 213.5,259.833 213.5,260.167 213.5,260.5C 208.583,263.168 203.25,264.168 197.5,263.5C 196.282,262.839 194.949,262.172 193.5,261.5C 199.521,260.631 205.521,259.631 211.5,258.5C 212.416,258.543 213.083,258.876 213.5,259.5 Z"/></g>
<g><path style="opacity:1" fill="#f3f3f3" d="M 184.5,260.5 C 185.718,261.161 187.051,261.828 188.5,262.5C 185.802,265.84 182.469,268.173 178.5,269.5C 174.098,270.625 169.764,270.291 165.5,268.5C 163.594,267.518 161.594,266.518 159.5,265.5C 164.484,264.002 169.15,262.002 173.5,259.5C 174.817,259.179 176.151,258.846 177.5,258.5C 179.762,259.467 182.095,260.134 184.5,260.5 Z"/></g>
<g><path style="opacity:1" fill="#e4e4e4" d="M 143.5,257.5 C 145.647,259.47 147.98,261.303 150.5,263C 149.906,263.464 149.239,263.631 148.5,263.5C 145.053,261.603 141.72,259.437 138.5,257C 140.197,256.616 141.863,256.782 143.5,257.5 Z"/></g>
<g><path style="opacity:1" fill="#f2f2f2" d="M 197.5,264.5 C 199.527,264.338 201.527,264.505 203.5,265C 196.187,269.104 188.521,270.604 180.5,269.5C 184.261,268.453 187.594,266.619 190.5,264C 192.847,263.666 195.181,263.833 197.5,264.5 Z"/></g>
<g><path style="opacity:1" fill="#bbbbbb" d="M 153.5,266.5 C 154.251,265.427 155.251,265.26 156.5,266C 157.833,266.667 159.167,267.333 160.5,268C 160.272,268.399 159.938,268.565 159.5,268.5C 157.297,268.396 155.297,267.73 153.5,266.5 Z"/></g>
<g><path style="opacity:1" fill="#727272" d="M 132.5,285.5 C 129.5,285.5 126.5,285.5 123.5,285.5C 123.5,287.833 123.5,290.167 123.5,292.5C 126.5,292.5 129.5,292.5 132.5,292.5C 129.375,293.479 126.042,293.813 122.5,293.5C 122.5,290.5 122.5,287.5 122.5,284.5C 126.042,284.187 129.375,284.521 132.5,285.5 Z"/></g>
<g><path style="opacity:1" fill="#1d1d1d" d="M 132.5,285.5 C 130.631,286.165 128.631,286.831 126.5,287.5C 128.078,288.298 129.744,288.798 131.5,289C 129.744,289.202 128.078,289.702 126.5,290.5C 128.631,291.169 130.631,291.835 132.5,292.5C 129.5,292.5 126.5,292.5 123.5,292.5C 123.5,290.167 123.5,287.833 123.5,285.5C 126.5,285.5 129.5,285.5 132.5,285.5 Z"/></g>
<g><path style="opacity:1" fill="#282828" d="M 178.5,284.5 C 179.675,284.281 180.675,284.614 181.5,285.5C 178.453,286.875 177.12,289.208 177.5,292.5C 176.5,292.5 175.5,292.5 174.5,292.5C 174.415,290.071 173.415,288.071 171.5,286.5C 173.259,285.246 174.759,285.579 176,287.5C 177.045,286.627 177.878,285.627 178.5,284.5 Z"/></g>
<g><path style="opacity:1" fill="#1b1b1b" d="M 193.5,286.5 C 198.007,285.107 200.34,285.107 200.5,286.5C 200.5,288.5 200.5,290.5 200.5,292.5C 199.5,292.5 198.5,292.5 197.5,292.5C 197.5,290.5 197.5,288.5 197.5,286.5C 196.167,286.5 194.833,286.5 193.5,286.5 Z"/></g>
<g><path style="opacity:1" fill="#1e1e1e" d="M 214.5,285.5 C 212.631,286.165 210.631,286.831 208.5,287.5C 210.078,288.298 211.744,288.798 213.5,289C 211.744,289.202 210.078,289.702 208.5,290.5C 210.631,291.169 212.631,291.835 214.5,292.5C 211.5,292.5 208.5,292.5 205.5,292.5C 205.5,290.167 205.5,287.833 205.5,285.5C 208.5,285.5 211.5,285.5 214.5,285.5 Z"/></g>
<g><path style="opacity:1" fill="#212121" d="M 227.5,285.5 C 228.833,285.5 230.167,285.5 231.5,285.5C 231.808,287.924 231.474,290.257 230.5,292.5C 229.818,291.757 229.151,291.091 228.5,290.5C 228.631,289.761 228.464,289.094 228,288.5C 226.755,293.908 224.588,294.574 221.5,290.5C 221.217,289.711 220.717,289.044 220,288.5C 219.51,289.793 219.343,291.127 219.5,292.5C 218.5,292.5 217.5,292.5 216.5,292.5C 216.5,290.167 216.5,287.833 216.5,285.5C 220.404,285.061 222.904,286.728 224,290.5C 225.669,289.154 226.836,287.487 227.5,285.5 Z"/></g>
<g><path style="opacity:1" fill="#777777" d="M 227.5,285.5 C 228.919,284.549 230.585,284.216 232.5,284.5C 232.5,287.5 232.5,290.5 232.5,293.5C 231.167,293.5 229.833,293.5 228.5,293.5C 228.5,292.5 228.5,291.5 228.5,290.5C 229.151,291.091 229.818,291.757 230.5,292.5C 231.474,290.257 231.808,287.924 231.5,285.5C 230.167,285.5 228.833,285.5 227.5,285.5 Z"/></g>
<g><path style="opacity:1" fill="#323232" d="M 136.5,284.5 C 139.665,283.964 142.331,284.797 144.5,287C 142.19,287.497 139.857,287.663 137.5,287.5C 137.33,288.822 137.663,289.989 138.5,291C 140.443,290.695 142.443,290.695 144.5,291C 141.501,293.941 138.167,294.274 134.5,292C 133.446,290.612 133.28,289.112 134,287.5C 135.045,286.627 135.878,285.627 136.5,284.5 Z"/></g>
<g><path style="opacity:1" fill="#2a2a2a" d="M 159.5,291.5 C 161.321,290.883 163.321,290.716 165.5,291C 163.75,289.681 161.75,289.181 159.5,289.5C 159.5,288.5 159.5,287.5 159.5,286.5C 162.526,283.771 165.526,283.938 168.5,287C 163.206,287.818 163.206,288.318 168.5,288.5C 167.826,293.151 165.159,294.651 160.5,293C 159.944,292.617 159.611,292.117 159.5,291.5 Z"/></g>
<g><path style="opacity:1" fill="#323232" d="M 157.5,287.5 C 157.5,288.5 157.5,289.5 157.5,290.5C 154.768,293.899 151.434,294.399 147.5,292C 145.306,287.349 146.806,284.849 152,284.5C 154.399,284.613 156.232,285.613 157.5,287.5 Z"/></g>
<g><path style="opacity:1" fill="#ebebeb" d="M 150.5,287.5 C 153.166,287.066 154.333,288.066 154,290.5C 151.342,291.694 150.176,290.694 150.5,287.5 Z"/></g>
<g><path style="opacity:1" fill="#b4b4b4" d="M 159.5,286.5 C 159.5,287.5 159.5,288.5 159.5,289.5C 161.75,289.181 163.75,289.681 165.5,291C 163.321,290.716 161.321,290.883 159.5,291.5C 158.833,291.167 158.167,290.833 157.5,290.5C 157.5,289.5 157.5,288.5 157.5,287.5C 158.167,287.167 158.833,286.833 159.5,286.5 Z"/></g>
<g><path style="opacity:1" fill="#2f2f2f" d="M 184.5,284.5 C 187.665,283.964 190.331,284.797 192.5,287C 191.5,287.333 190.5,287.667 189.5,288C 193.465,290.951 192.798,292.784 187.5,293.5C 185.681,293.658 184.348,292.991 183.5,291.5C 185.021,291.12 186.687,290.954 188.5,291C 186.655,289.872 184.655,289.372 182.5,289.5C 182.392,287.486 183.058,285.82 184.5,284.5 Z"/></g>
<g><path style="opacity:1" fill="#717171" d="M 193.5,286.5 C 194.833,286.5 196.167,286.5 197.5,286.5C 197.5,288.5 197.5,290.5 197.5,292.5C 198.5,292.5 199.5,292.5 200.5,292.5C 199.432,293.434 198.099,293.768 196.5,293.5C 196.5,291.5 196.5,289.5 196.5,287.5C 195.209,287.737 194.209,287.404 193.5,286.5 Z"/></g>
<g><path style="opacity:1" fill="#6a6a6a" d="M 214.5,285.5 C 211.5,285.5 208.5,285.5 205.5,285.5C 205.5,287.833 205.5,290.167 205.5,292.5C 208.5,292.5 211.5,292.5 214.5,292.5C 211.375,293.479 208.042,293.813 204.5,293.5C 204.5,290.5 204.5,287.5 204.5,284.5C 208.042,284.187 211.375,284.521 214.5,285.5 Z"/></g>
<g><path style="opacity:1" fill="#9e9e9e" d="M 221.5,290.5 C 220.596,291.209 220.263,292.209 220.5,293.5C 218.901,293.768 217.568,293.434 216.5,292.5C 217.5,292.5 218.5,292.5 219.5,292.5C 219.343,291.127 219.51,289.793 220,288.5C 220.717,289.044 221.217,289.711 221.5,290.5 Z"/></g>
</svg>
