<?xml version="1.0" encoding="UTF-8"?>
<!DOCTYPE svg PUBLIC "-//W3C//DTD SVG 1.1//EN" "http://www.w3.org/Graphics/SVG/1.1/DTD/svg11.dtd">
<svg xmlns="http://www.w3.org/2000/svg" version="1.1" width="1012px" height="441px" style="shape-rendering:geometricPrecision; text-rendering:geometricPrecision; image-rendering:optimizeQuality; fill-rule:evenodd; clip-rule:evenodd" xmlns:xlink="http://www.w3.org/1999/xlink">
<g><path style="opacity:1" fill="#fefefe" d="M -0.5,-0.5 C 336.833,-0.5 674.167,-0.5 1011.5,-0.5C 1011.5,146.5 1011.5,293.5 1011.5,440.5C 674.167,440.5 336.833,440.5 -0.5,440.5C -0.5,293.5 -0.5,146.5 -0.5,-0.5 Z"/></g>
<g><path style="opacity:1" fill="#181818" d="M 747.5,10.5 C 747.5,12.5 747.5,14.5 747.5,16.5C 751.5,16.5 755.5,16.5 759.5,16.5C 759.5,20.5 759.5,24.5 759.5,28.5C 755.5,28.5 751.5,28.5 747.5,28.5C 747.5,32.5 747.5,36.5 747.5,40.5C 751.5,40.5 755.5,40.5 759.5,40.5C 759.5,44.5 759.5,48.5 759.5,52.5C 755.5,52.5 751.5,52.5 747.5,52.5C 747.5,56.5 747.5,60.5 747.5,64.5C 751.5,64.5 755.5,64.5 759.5,64.5C 759.5,68.5 759.5,72.5 759.5,76.5C 755.5,76.5 751.5,76.5 747.5,76.5C 747.5,80.5 747.5,84.5 747.5,88.5C 751.5,88.5 755.5,88.5 759.5,88.5C 759.5,92.5 759.5,96.5 759.5,100.5C 755.5,100.5 751.5,100.5 747.5,100.5C 747.5,104.5 747.5,108.5 747.5,112.5C 751.5,112.5 755.5,112.5 759.5,112.5C 759.5,116.5 759.5,120.5 759.5,124.5C 755.5,124.5 751.5,124.5 747.5,124.5C 747.5,128.5 747.5,132.5 747.5,136.5C 751.5,136.5 755.5,136.5 759.5,136.5C 759.5,140.5 759.5,144.5 759.5,148.5C 755.5,148.5 751.5,148.5 747.5,148.5C 747.5,152.5 747.5,156.5 747.5,160.5C 751.5,160.5 755.5,160.5 759.5,160.5C 759.5,164.5 759.5,168.5 759.5,172.5C 755.5,172.5 751.5,172.5 747.5,172.5C 747.5,176.5 747.5,180.5 747.5,184.5C 751.5,184.5 755.5,184.5 759.5,184.5C 759.5,188.5 759.5,192.5 759.5,196.5C 755.5,196.5 751.5,196.5 747.5,196.5C 747.5,200.5 747.5,204.5 747.5,208.5C 751.5,208.5 755.5,208.5 759.5,208.5C 759.5,212.5 759.5,216.5 759.5,220.5C 755.5,220.5 751.5,220.5 747.5,220.5C 747.5,224.5 747.5,228.5 747.5,232.5C 751.5,232.5 755.5,232.5 759.5,232.5C 759.5,236.5 759.5,240.5 759.5,244.5C 763.5,244.5 767.5,244.5 771.5,244.5C 771.5,248.5 771.5,252.5 771.5,256.5C 775.5,256.5 779.5,256.5 783.5,256.5C 783.5,260.5 783.5,264.5 783.5,268.5C 787.5,268.5 791.5,268.5 795.5,268.5C 795.5,272.5 795.5,276.5 795.5,280.5C 799.5,280.5 803.5,280.5 807.5,280.5C 807.5,284.5 807.5,288.5 807.5,292.5C 771.51,293.417 735.51,293.75 699.5,293.5C 699.5,199.167 699.5,104.833 699.5,10.5C 715.5,10.5 731.5,10.5 747.5,10.5 Z"/></g>
<g><path style="opacity:1" fill="#404040" d="M 160.5,10.5 C 160.5,28.8333 160.5,47.1667 160.5,65.5C 164.371,65.185 168.038,65.5184 171.5,66.5C 167.5,66.5 163.5,66.5 159.5,66.5C 159.17,47.6592 159.503,28.9925 160.5,10.5 Z"/></g>
<g><path style="opacity:1" fill="#191919" d="M 160.5,10.5 C 226.833,10.5 293.167,10.5 359.5,10.5C 359.5,29.1667 359.5,47.8333 359.5,66.5C 336.833,66.5 314.167,66.5 291.5,66.5C 291.5,142.167 291.5,217.833 291.5,293.5C 270.167,293.5 248.833,293.5 227.5,293.5C 227.5,218.167 227.5,142.833 227.5,67.5C 208.837,67.0001 190.17,66.6668 171.5,66.5C 168.038,65.5184 164.371,65.185 160.5,65.5C 160.5,47.1667 160.5,28.8333 160.5,10.5 Z"/></g>
<g><path style="opacity:1" fill="#1a1a1a" d="M 500.5,5.5 C 535.869,2.78103 569.203,9.61436 600.5,26C 617.735,37.4016 631.735,51.9016 642.5,69.5C 623.436,79.7816 603.936,89.4483 584,98.5C 577.534,91.703 570.701,85.203 563.5,79C 554.022,71.9588 543.355,67.9588 531.5,67C 483.677,64.1467 453.843,85.9801 442,132.5C 437.201,161.635 443.535,187.969 461,211.5C 480.417,233.075 504.583,241.575 533.5,237C 560.714,233.326 578.547,218.493 587,192.5C 587.498,189.518 587.665,186.518 587.5,183.5C 564.167,183.5 540.833,183.5 517.5,183.5C 517.5,167.167 517.5,150.833 517.5,134.5C 565.17,134.426 612.837,134.759 660.5,135.5C 664.41,178.922 652.91,217.589 626,251.5C 591.087,288.292 548.254,303.458 497.5,297C 435.672,287.515 395.839,252.682 378,192.5C 365.832,141.663 375.498,95.6634 407,54.5C 432.305,26.9312 463.472,10.5979 500.5,5.5 Z"/></g>
<g><path style="opacity:1" fill="#1c1c1c" d="M 747.5,10.5 C 752.833,10.5 758.167,10.5 763.5,10.5C 763.827,86.1667 764.161,161.833 764.5,237.5C 798.833,237.5 833.167,237.5 867.5,237.5C 867.236,255.835 866.902,274.168 866.5,292.5C 846.833,292.5 827.167,292.5 807.5,292.5C 807.5,288.5 807.5,284.5 807.5,280.5C 803.5,280.5 799.5,280.5 795.5,280.5C 795.5,276.5 795.5,272.5 795.5,268.5C 791.5,268.5 787.5,268.5 783.5,268.5C 783.5,264.5 783.5,260.5 783.5,256.5C 779.5,256.5 775.5,256.5 771.5,256.5C 771.5,252.5 771.5,248.5 771.5,244.5C 767.5,244.5 763.5,244.5 759.5,244.5C 759.5,240.5 759.5,236.5 759.5,232.5C 755.5,232.5 751.5,232.5 747.5,232.5C 747.5,228.5 747.5,224.5 747.5,220.5C 751.5,220.5 755.5,220.5 759.5,220.5C 759.5,216.5 759.5,212.5 759.5,208.5C 755.5,208.5 751.5,208.5 747.5,208.5C 747.5,204.5 747.5,200.5 747.5,196.5C 751.5,196.5 755.5,196.5 759.5,196.5C 759.5,192.5 759.5,188.5 759.5,184.5C 755.5,184.5 751.5,184.5 747.5,184.5C 747.5,180.5 747.5,176.5 747.5,172.5C 751.5,172.5 755.5,172.5 759.5,172.5C 759.5,168.5 759.5,164.5 759.5,160.5C 755.5,160.5 751.5,160.5 747.5,160.5C 747.5,156.5 747.5,152.5 747.5,148.5C 751.5,148.5 755.5,148.5 759.5,148.5C 759.5,144.5 759.5,140.5 759.5,136.5C 755.5,136.5 751.5,136.5 747.5,136.5C 747.5,132.5 747.5,128.5 747.5,124.5C 751.5,124.5 755.5,124.5 759.5,124.5C 759.5,120.5 759.5,116.5 759.5,112.5C 755.5,112.5 751.5,112.5 747.5,112.5C 747.5,108.5 747.5,104.5 747.5,100.5C 751.5,100.5 755.5,100.5 759.5,100.5C 759.5,96.5 759.5,92.5 759.5,88.5C 755.5,88.5 751.5,88.5 747.5,88.5C 747.5,84.5 747.5,80.5 747.5,76.5C 751.5,76.5 755.5,76.5 759.5,76.5C 759.5,72.5 759.5,68.5 759.5,64.5C 755.5,64.5 751.5,64.5 747.5,64.5C 747.5,60.5 747.5,56.5 747.5,52.5C 751.5,52.5 755.5,52.5 759.5,52.5C 759.5,48.5 759.5,44.5 759.5,40.5C 755.5,40.5 751.5,40.5 747.5,40.5C 747.5,36.5 747.5,32.5 747.5,28.5C 751.5,28.5 755.5,28.5 759.5,28.5C 759.5,24.5 759.5,20.5 759.5,16.5C 755.5,16.5 751.5,16.5 747.5,16.5C 747.5,14.5 747.5,12.5 747.5,10.5 Z"/></g>
<g><path style="opacity:1" fill="#535353" d="M 569.5,386.5 C 573.298,385.517 577.298,385.183 581.5,385.5C 581.5,387.167 581.5,388.833 581.5,390.5C 580.566,389.432 580.232,388.099 580.5,386.5C 576.833,386.5 573.167,386.5 569.5,386.5 Z"/></g>
<g><path style="opacity:1" fill="#1d1d1d" d="M 186.5,385.5 C 196.833,385.5 207.167,385.5 217.5,385.5C 217.665,388.85 217.498,392.183 217,395.5C 213.606,396.456 210.106,396.789 206.5,396.5C 205.716,410.152 205.382,423.819 205.5,437.5C 201.5,437.5 197.5,437.5 193.5,437.5C 193.5,423.833 193.5,410.167 193.5,396.5C 189.161,397.154 185.327,396.154 182,393.5C 180.797,389.222 182.297,386.556 186.5,385.5 Z"/></g>
<g><path style="opacity:1" fill="#1d1d1d" d="M 344.5,385.5 C 354.294,384.487 363.128,386.82 371,392.5C 371.984,397.859 369.651,400.525 364,400.5C 360.518,399.033 357.018,397.533 353.5,396C 346.201,396.593 341.034,400.426 338,407.5C 336.169,418.196 340.502,424.529 351,426.5C 356.361,426.574 360.194,424.24 362.5,419.5C 358.066,419.082 354.233,417.416 351,414.5C 350.175,412.299 350.675,410.466 352.5,409C 360.439,406.908 368.272,407.075 376,409.5C 376.397,426.936 367.897,436.27 350.5,437.5C 337.559,437.284 329.392,430.95 326,418.5C 322.908,401.994 329.075,390.994 344.5,385.5 Z"/></g>
<g><path style="opacity:1" fill="#1a1a1a" d="M 529.5,383.5 C 533.5,383.5 537.5,383.5 541.5,383.5C 541.5,401.5 541.5,419.5 541.5,437.5C 537.5,437.5 533.5,437.5 529.5,437.5C 529.5,419.5 529.5,401.5 529.5,383.5 Z"/></g>
<g><path style="opacity:1" fill="#1c1c1c" d="M 569.5,386.5 C 573.167,386.5 576.833,386.5 580.5,386.5C 580.232,388.099 580.566,389.432 581.5,390.5C 582.077,402.493 582.577,414.493 583,426.5C 587.749,427.305 592.582,427.805 597.5,428C 600.418,431.472 600.085,434.472 596.5,437C 587.506,437.5 578.506,437.666 569.5,437.5C 569.5,420.5 569.5,403.5 569.5,386.5 Z"/></g>
<g><path style="opacity:1" fill="#1e1e1e" d="M 743.5,385.5 C 747.29,384.899 750.456,385.899 753,388.5C 754.064,401.146 754.564,413.812 754.5,426.5C 759.822,427.029 765.156,427.529 770.5,428C 773.379,429.666 774.212,432.166 773,435.5C 772.25,436.126 771.416,436.626 770.5,437C 761.506,437.5 752.506,437.666 743.5,437.5C 743.5,420.167 743.5,402.833 743.5,385.5 Z"/></g>
<g><path style="opacity:1" fill="#1d1d1d" d="M 784.5,391.5 C 792.834,391.003 796.668,395.003 796,403.5C 797.667,404.833 799.333,406.167 801,407.5C 802.69,412.416 801.023,415.416 796,416.5C 795.248,419.894 795.415,423.227 796.5,426.5C 801.2,428.196 803.533,431.53 803.5,436.5C 798.537,437.496 793.537,437.663 788.5,437C 786.667,436.5 785.5,435.333 785,433.5C 783.826,428.25 783.159,422.916 783,417.5C 777.757,415.422 776.257,411.755 778.5,406.5C 780.193,405.772 781.693,404.772 783,403.5C 783.233,399.415 783.733,395.415 784.5,391.5 Z"/></g>
<g><path style="opacity:1" fill="#1e1e1e" d="M 277.5,404.5 C 289.572,402.183 296.906,406.849 299.5,418.5C 299.43,419.772 299.097,420.938 298.5,422C 292.275,423.251 285.942,423.917 279.5,424C 276.978,425.686 277.311,427.019 280.5,428C 285.5,428.333 290.5,428.667 295.5,429C 296.833,431 296.833,433 295.5,435C 289.327,437.051 282.993,437.717 276.5,437C 267.673,432.552 264.173,425.386 266,415.5C 268.437,410.226 272.271,406.56 277.5,404.5 Z"/></g>
<g><path style="opacity:1" fill="#1d1d1d" d="M 416.5,403.5 C 433.153,405.632 438.986,414.632 434,430.5C 432.056,433.734 429.222,435.9 425.5,437C 407,439.502 399.5,431.669 403,413.5C 406.369,408.573 410.869,405.239 416.5,403.5 Z"/></g>
<g><path style="opacity:1" fill="#1b1b1b" d="M 664.5,403.5 C 672.183,403.43 677.683,406.763 681,413.5C 681.5,421.493 681.666,429.493 681.5,437.5C 677.894,437.789 674.394,437.456 671,436.5C 669.781,429.906 668.781,423.239 668,416.5C 663.77,412.222 660.437,412.888 658,418.5C 657.667,424.167 657.333,429.833 657,435.5C 656.5,436 656,436.5 655.5,437C 652.183,437.498 648.85,437.665 645.5,437.5C 645.5,426.833 645.5,416.167 645.5,405.5C 651.176,405.666 656.843,405.499 662.5,405C 663.416,404.722 664.082,404.222 664.5,403.5 Z"/></g>
<g><path style="opacity:1" fill="#1b1b1b" d="M 227.5,383.5 C 230.365,383.055 232.865,383.722 235,385.5C 235.186,392.414 235.686,399.247 236.5,406C 241.465,405.582 246.465,405.582 251.5,406C 255.896,406.73 258.73,409.23 260,413.5C 260.667,420.167 260.667,426.833 260,433.5C 259.682,435.061 258.849,436.228 257.5,437C 254.901,437.769 252.401,437.602 250,436.5C 249.101,429.47 248.101,422.47 247,415.5C 241.986,412.12 238.653,413.453 237,419.5C 235.938,425.137 235.105,430.804 234.5,436.5C 231.185,437.553 227.852,437.553 224.5,436.5C 224.333,419.497 224.5,402.497 225,385.5C 225.995,384.934 226.828,384.267 227.5,383.5 Z"/></g>
<g><path style="opacity:1" fill="#1b1b1b" d="M 383.5,383.5 C 387.5,383.5 391.5,383.5 395.5,383.5C 395.5,401.5 395.5,419.5 395.5,437.5C 391.5,437.5 387.5,437.5 383.5,437.5C 383.5,419.5 383.5,401.5 383.5,383.5 Z"/></g>
<g><path style="opacity:1" fill="#1b1b1b" d="M 441.5,383.5 C 445.5,383.5 449.5,383.5 453.5,383.5C 453.334,390.841 453.5,398.174 454,405.5C 454.725,406.059 455.558,406.392 456.5,406.5C 466.122,402.138 473.622,404.471 479,413.5C 480.093,420.485 479.093,427.151 476,433.5C 469.275,438.361 462.275,438.694 455,434.5C 451.044,436.279 446.877,436.946 442.5,436.5C 442.191,418.833 441.858,401.166 441.5,383.5 Z"/></g>
<g><path style="opacity:1" fill="#1e1e1e" d="M 495.5,404.5 C 504.149,405.203 512.815,405.536 521.5,405.5C 521.666,415.506 521.5,425.506 521,435.5C 517.072,438.316 513.405,437.983 510,434.5C 494.911,441.039 486.078,436.206 483.5,420C 485.064,412.937 489.064,407.77 495.5,404.5 Z"/></g>
<g><path style="opacity:1" fill="#202020" d="M 617.5,404.5 C 627.611,402.804 634.778,406.47 639,415.5C 639.758,417.769 639.591,419.936 638.5,422C 632.275,423.251 625.942,423.917 619.5,424C 616.978,425.686 617.311,427.019 620.5,428C 625.167,428.333 629.833,428.667 634.5,429C 636.602,430.733 636.935,432.733 635.5,435C 629.327,437.051 622.993,437.717 616.5,437C 605.106,430.705 602.606,421.872 609,410.5C 611.637,408.109 614.47,406.109 617.5,404.5 Z"/></g>
<g><path style="opacity:1" fill="#1a1a1a" d="M 833.5,384.5 C 837.167,384.5 840.833,384.5 844.5,384.5C 844.5,402.167 844.5,419.833 844.5,437.5C 839.846,438.196 835.679,437.196 832,434.5C 821.375,440.443 813.375,438.11 808,427.5C 806.052,419.583 807.885,412.75 813.5,407C 818.957,404.039 824.624,403.873 830.5,406.5C 831.442,406.392 832.275,406.059 833,405.5C 833.5,398.508 833.666,391.508 833.5,384.5 Z"/></g>
<g><path style="opacity:1" fill="#444444" d="M 833.5,384.5 C 837.298,383.517 841.298,383.183 845.5,383.5C 845.83,401.674 845.497,419.674 844.5,437.5C 844.5,419.833 844.5,402.167 844.5,384.5C 840.833,384.5 837.167,384.5 833.5,384.5 Z"/></g>
<g><path style="opacity:1" fill="#e7e7e7" d="M 281.5,412.5 C 285.029,411.889 286.862,413.223 287,416.5C 284.205,417.783 281.372,417.783 278.5,416.5C 279.524,415.148 280.524,413.815 281.5,412.5 Z"/></g>
<g><path style="opacity:1" fill="#f5f5f5" d="M 416.5,414.5 C 423.809,414.666 426.309,418.333 424,425.5C 420.87,428.122 417.703,428.122 414.5,425.5C 412.811,421.305 413.478,417.638 416.5,414.5 Z"/></g>
<g><path style="opacity:1" fill="#eeeeee" d="M 458.5,414.5 C 464.051,413.007 467.051,415.007 467.5,420.5C 467.563,422.481 466.896,424.148 465.5,425.5C 462.634,426.795 459.801,426.795 457,425.5C 454.689,421.374 455.189,417.707 458.5,414.5 Z"/></g>
<g><path style="opacity:1" fill="#f4f4f4" d="M 499.5,414.5 C 507.994,414.475 510.661,418.308 507.5,426C 501.759,428.757 498.093,427.09 496.5,421C 496.84,418.489 497.84,416.322 499.5,414.5 Z"/></g>
<g><path style="opacity:1" fill="#e8e8e8" d="M 618.5,413.5 C 621.807,413.063 624.807,413.73 627.5,415.5C 624.792,417.436 621.792,417.936 618.5,417C 617.316,415.855 617.316,414.688 618.5,413.5 Z"/></g>
<g><path style="opacity:1" fill="#efefef" d="M 823.5,413.5 C 829.454,414.281 832.288,417.615 832,423.5C 828.219,428.201 824.219,428.534 820,424.5C 818.662,419.96 819.829,416.293 823.5,413.5 Z"/></g>
<g><path style="opacity:1" fill="#1b1b1b" d="M 699.5,403.5 C 705.036,403.289 709.869,404.956 714,408.5C 714.684,409.784 714.517,410.951 713.5,412C 709.459,412.173 705.459,412.673 701.5,413.5C 706.051,416.7 710.551,420.033 715,423.5C 715.71,431.137 712.21,435.637 704.5,437C 699.833,437.667 695.167,437.667 690.5,437C 686.5,434.333 686.5,431.667 690.5,429C 693.89,428.754 697.223,428.254 700.5,427.5C 701.386,426.675 701.719,425.675 701.5,424.5C 694.231,424.068 689.897,420.234 688.5,413C 688.99,410.497 690.323,408.497 692.5,407C 694.925,405.787 697.259,404.621 699.5,403.5 Z"/></g>
<g><path style="opacity:1" fill="#252525" d="M 856.5,423.5 C 860.664,423.143 863.831,424.81 866,428.5C 866.158,436.001 862.658,438.501 855.5,436C 851.48,431.552 851.813,427.385 856.5,423.5 Z"/></g>
</svg>
